<svg width="44" height="44" viewBox="0 0 44 44" fill="none" xmlns="http://www.w3.org/2000/svg">
<g clip-path="url(#clip0_4210_4082)">
<path d="M19.5394 36.2677L22.2291 29.5397L22.5528 29.3639L19.8632 36.0919L19.5394 36.2677ZM20.5107 35.7403L23.2004 29.0123L24.4955 28.3091L21.8059 35.0371L20.5107 35.7403ZM22.1296 34.8613L24.8193 28.1333L25.1431 27.9575L22.4534 34.6855L22.1296 34.8613ZM20.716 38.3341C20.4855 38.5723 20.2624 38.75 20.0465 38.8672C19.8451 38.9766 19.727 38.9901 19.6923 38.9077C19.6607 38.8178 19.7026 38.6284 19.8181 38.3395C19.8394 38.2863 19.8764 38.2007 19.9292 38.0827L20.2277 37.4207L19.8175 37.6434L19.9178 37.3925L20.3387 37.164L20.5763 36.6332L20.912 36.4063L20.9552 36.3828L20.9461 36.4057C20.9226 36.4363 20.9027 36.4649 20.8864 36.4917C20.8629 36.5223 20.8435 36.5566 20.8283 36.5946L20.6301 37.0058L21.2345 36.6776L21.1342 36.9285L20.5083 37.2684L20.2115 37.9473C20.1587 38.0653 20.1262 38.1394 20.1141 38.1699C20.0229 38.3979 19.9858 38.5401 20.0027 38.5964C20.0227 38.645 20.0866 38.6401 20.1946 38.5815C20.2737 38.5385 20.3553 38.4823 20.4395 38.4128C20.5164 38.3472 20.6117 38.2568 20.7254 38.1415L20.716 38.3341ZM23.1018 34.3334L25.7915 27.6054L26.1152 27.4296L23.4256 34.1576L23.1018 34.3334ZM24.0732 33.8061L26.7628 27.078L27.0866 26.9022L24.3969 33.6303L24.0732 33.8061ZM25.0445 33.2787L27.7341 26.5506L29.0293 25.8475L26.3396 32.5755L25.0445 33.2787ZM24.567 34.8325C24.7612 34.7271 24.8942 34.7114 24.966 34.7855L24.7453 35.0839L24.7163 35.1354L24.693 35.1301C24.698 35.1036 24.6999 35.0847 24.6988 35.0734C24.6935 35.0584 24.6775 35.0493 24.6506 35.046C24.6041 35.0356 24.5341 35.0557 24.4405 35.1065C24.347 35.1573 24.2464 35.2328 24.1388 35.3329C24.0342 35.4253 23.9355 35.5385 23.8426 35.6723C23.7424 35.8099 23.662 35.9548 23.6012 36.1069L23.1909 37.1332L22.8995 37.2914L23.6745 35.3528L23.9767 35.1887L23.8246 35.5481C23.9236 35.3991 24.0422 35.2573 24.1806 35.1227C24.3158 34.9957 24.4446 34.8989 24.567 34.8325ZM26.6642 32.3992L29.3539 25.6712L29.6777 25.4954L26.988 32.2234L26.6642 32.3992ZM27.6356 31.8718L30.3252 25.1438L30.649 24.968L27.9593 31.696L27.6356 31.8718ZM28.2831 31.5202L30.9728 24.7922L31.6203 24.4406L28.9307 31.1686L28.2831 31.5202ZM27.7624 33.0975C28.0214 32.9569 28.1904 32.9217 28.2694 32.9919C28.3484 33.0621 28.3179 33.2721 28.1781 33.6218L27.7679 34.6481L27.4549 34.818L27.5734 34.5215C27.3743 34.8082 27.12 35.0355 26.8107 35.2035C26.6092 35.3129 26.4707 35.3494 26.395 35.3131C26.3194 35.2768 26.3135 35.1788 26.3774 35.0192C26.4321 34.8823 26.5223 34.741 26.6482 34.5953C26.7668 34.4535 26.9103 34.3132 27.0785 34.1742C27.2365 34.0468 27.4018 33.9362 27.5745 33.8424C27.7256 33.7604 27.8593 33.6937 27.9755 33.6425C28.0462 33.4375 28.053 33.3147 27.996 33.2743C27.9389 33.2339 27.8204 33.2625 27.6405 33.3601C27.547 33.4109 27.4531 33.4768 27.3587 33.5578C27.2572 33.6427 27.1568 33.7389 27.0575 33.8464L26.9947 33.7287C27.2403 33.4525 27.4962 33.2421 27.7624 33.0975ZM26.9342 34.9579C27.1357 34.8485 27.3198 34.6979 27.4866 34.5062C27.6503 34.322 27.7814 34.114 27.8798 33.882C27.7666 33.9256 27.6416 33.9845 27.5049 34.0588C27.3034 34.1681 27.1264 34.294 26.9736 34.4365C26.8312 34.5674 26.7311 34.7051 26.6733 34.8495C26.5882 35.0624 26.6752 35.0985 26.9342 34.9579ZM30.2266 30.465L32.9163 23.737L33.2401 23.5612L30.5504 30.2892L30.2266 30.465ZM31.8455 29.586L34.5352 22.858L34.859 22.6822L32.1693 29.4102L31.8455 29.586ZM32.4931 29.2344L35.1827 22.5064L35.8303 22.1548L33.1407 28.8828L32.4931 29.2344ZM30.6753 33.1052C30.4954 33.2029 30.3538 33.247 30.2505 33.2376C30.1503 33.2206 30.091 33.1576 30.0726 33.0485C30.0543 32.9394 30.0846 32.7861 30.1636 32.5884C30.2396 32.3983 30.3475 32.2058 30.4875 32.0108C30.6274 31.8158 30.784 31.6355 30.9571 31.4701C31.1273 31.3122 31.3023 31.1845 31.4822 31.0868C31.6261 31.0087 31.747 30.9668 31.845 30.9612C31.9358 30.9595 31.998 30.9942 32.0316 31.0653L31.7706 31.3588L31.7399 31.3933L31.7274 31.3822C31.7365 31.3594 31.7385 31.3405 31.7332 31.3255C31.7321 31.3142 31.7232 31.3012 31.7066 31.2864C31.6703 31.2644 31.6243 31.2596 31.5687 31.272C31.5089 31.2806 31.4358 31.3084 31.3495 31.3553C31.2416 31.4139 31.1323 31.497 31.0216 31.6047C30.9038 31.7163 30.7969 31.8428 30.7009 31.9842C30.6008 32.1219 30.5219 32.2629 30.4641 32.4074C30.4064 32.5518 30.382 32.6692 30.3909 32.7596C30.4029 32.8424 30.4435 32.8888 30.5127 32.8988C30.5861 32.9126 30.6803 32.8882 30.7955 32.8257C30.9825 32.7241 31.1763 32.5564 31.3769 32.3225L31.4567 32.4399C31.1948 32.7428 30.9343 32.9646 30.6753 33.1052ZM33.7891 28.5307L36.4787 21.8027L36.8025 21.6269L34.1128 28.355L33.7891 28.5307ZM34.7604 28.0034L37.45 21.2753L38.7452 20.5722L36.0555 27.3002L34.7604 28.0034ZM36.3793 27.1244L39.0689 20.3964L39.3927 20.2206L36.7031 26.9486L36.3793 27.1244ZM34.9656 30.5972C34.7352 30.8354 34.5121 31.0131 34.2962 31.1303C34.0947 31.2397 33.9767 31.2532 33.942 31.1708C33.9104 31.0809 33.9523 30.8914 34.0678 30.6025C34.089 30.5493 34.1261 30.4638 34.1789 30.3458L34.4773 29.6838L34.0672 29.9065L34.1675 29.6556L34.5884 29.427L34.8259 28.8963L35.1617 28.6694L35.2049 28.6459L35.1958 28.6687C35.1722 28.6993 35.1523 28.728 35.136 28.7547C35.1125 28.7853 35.0932 28.8197 35.078 28.8577L34.8798 29.2688L35.4842 28.9407L35.3839 29.1915L34.7579 29.5314L34.4611 30.2104C34.4084 30.3283 34.3759 30.4025 34.3637 30.4329C34.2726 30.661 34.2354 30.8032 34.2524 30.8594C34.2723 30.9081 34.3363 30.9032 34.4442 30.8446C34.5234 30.8016 34.605 30.7454 34.6891 30.6759C34.766 30.6103 34.8613 30.5199 34.975 30.4046L34.9656 30.5972ZM37.3515 26.5965L40.0411 19.8685L40.3649 19.6927L37.6752 26.4207L37.3515 26.5965ZM38.6466 25.8933L41.3362 19.1653L42.6313 18.4621L39.9417 25.1901L38.6466 25.8933ZM40.2655 25.0143L42.9551 18.2863L43.2789 18.1105L40.5893 24.8385L40.2655 25.0143ZM37.6643 29.3015C37.4989 29.3914 37.3681 29.4297 37.272 29.4163C37.1831 29.3991 37.1331 29.334 37.1219 29.2211C37.1035 29.112 37.1339 28.9586 37.2129 28.761C37.2919 28.5633 37.4014 28.367 37.5413 28.1719C37.674 27.9808 37.8183 27.8103 37.974 27.6602C38.14 27.4987 38.3057 27.373 38.4712 27.2831C38.6367 27.1933 38.7624 27.1608 38.8482 27.1856C38.9443 27.1989 38.9979 27.262 39.0091 27.375C39.0203 27.488 38.9864 27.6433 38.9073 27.841C38.8283 28.0386 38.7224 28.233 38.5897 28.4241C38.457 28.6152 38.3091 28.7877 38.1462 28.9417C37.9904 29.0917 37.8298 29.2117 37.6643 29.3015ZM37.7646 29.0507C37.8654 28.996 37.9726 28.911 38.0863 28.7957C38.1897 28.6919 38.2894 28.5693 38.3854 28.4279C38.4772 28.2828 38.552 28.1381 38.6097 27.9936C38.6978 27.7732 38.7189 27.6219 38.6729 27.5397C38.6268 27.4576 38.5247 27.4595 38.3664 27.5454C38.2081 27.6313 38.0512 27.7701 37.8958 27.9616C37.7404 28.1532 37.6186 28.3592 37.5304 28.5796C37.4727 28.7241 37.4411 28.8454 37.4356 28.9436C37.4404 29.0303 37.4702 29.0825 37.5251 29.1004C37.5768 29.1258 37.6567 29.1092 37.7646 29.0507Z" fill="#1D1D1D"/>
<g clip-path="url(#clip1_4210_4082)">
<path d="M1.55327 19.2647L4.27434 12.5494L4.54004 12.8046L1.81897 19.52L1.55327 19.2647ZM2.35038 20.0304L5.07145 13.3151L5.33715 13.5703L2.61608 20.2856L2.35038 20.0304ZM3.67889 21.3065L6.39996 14.5912L6.93136 15.1016L4.21029 21.817L3.67889 21.3065ZM1.5781 24.3959C1.48953 24.3108 1.41763 24.2049 1.3624 24.078C1.30716 23.9512 1.27142 23.8167 1.25518 23.6746L1.06515 23.8399L0.91458 23.6953L2.05374 20.8839L2.3283 21.1477L2.31908 21.1704C2.29804 21.1819 2.2815 21.1923 2.26945 21.2018C2.25432 21.2189 2.23753 21.2502 2.21908 21.2958L1.81784 22.286C1.91402 22.2308 2.01575 22.2126 2.12301 22.2313C2.23027 22.25 2.32523 22.299 2.40789 22.3784C2.59684 22.5599 2.71358 22.788 2.75812 23.0627C2.79959 23.345 2.75576 23.6455 2.62662 23.9642C2.53746 24.1842 2.43107 24.3456 2.30745 24.4482C2.18384 24.5508 2.05647 24.5919 1.92535 24.5713C1.80013 24.5565 1.68438 24.498 1.5781 24.3959ZM1.66222 24.0972C1.78031 24.2106 1.90233 24.2435 2.02828 24.1958C2.15116 24.1558 2.26487 24.0067 2.36941 23.7487C2.47087 23.4983 2.51077 23.2784 2.48911 23.0889C2.46463 22.8862 2.39038 22.7253 2.26639 22.6062C2.14239 22.4871 2.01281 22.4627 1.87763 22.5332C1.74553 22.596 1.63336 22.7413 1.54112 22.9689C1.34434 23.4545 1.38471 23.8306 1.66222 24.0972ZM4.47669 22.0729L7.19776 15.3575L7.46346 15.6127L4.74239 22.3281L4.47669 22.0729ZM5.00809 22.5833L7.72916 15.868L8.26057 16.3784L5.53949 23.0938L5.00809 22.5833ZM6.0709 23.6042L8.79197 16.8889L9.05767 17.1441L6.3366 23.8595L6.0709 23.6042ZM4.51923 27.2211C4.29486 27.0055 4.15308 26.7481 4.0939 26.4488C4.02882 26.1438 4.06084 25.832 4.18998 25.5133C4.27607 25.3009 4.38387 25.1461 4.51339 25.0492C4.63393 24.9541 4.76271 24.9197 4.89974 24.9459C5.03393 24.9589 5.16598 25.0278 5.29588 25.1525C5.47892 25.3284 5.59579 25.546 5.64648 25.8055C5.6941 26.0727 5.65641 26.358 5.53342 26.6615C5.52113 26.6918 5.50268 26.7374 5.47808 26.7981L4.40642 25.7687C4.31701 26.0096 4.29494 26.2361 4.34022 26.4482C4.38549 26.6604 4.48194 26.8374 4.62955 26.9792C4.78897 27.1323 4.94808 27.185 5.10688 27.1372L5.17055 27.4356C4.96071 27.5081 4.7436 27.4366 4.51923 27.2211ZM5.3358 26.3293C5.40959 26.1472 5.43258 25.969 5.40477 25.7947C5.37697 25.6204 5.30402 25.4766 5.18593 25.3632C5.07965 25.2611 4.96519 25.2196 4.84256 25.2389C4.71992 25.2581 4.60978 25.3579 4.51212 25.5381L5.3358 26.3293ZM7.4001 24.881L10.1212 18.1657L10.6526 18.6761L7.93151 25.3915L7.4001 24.881ZM8.19721 25.6467L10.9183 18.9313L11.4497 19.4418L8.72861 26.1572L8.19721 25.6467ZM9.26002 26.6676L11.9811 19.9522L12.5125 20.4627L9.79142 27.1781L9.26002 26.6676ZM10.3235 27.6892L13.0446 20.9738L13.3103 21.229L10.5892 27.9444L10.3235 27.6892ZM11.1206 28.4548L13.8417 21.7395L14.1074 21.9947L11.3863 28.7101L11.1206 28.4548ZM11.652 28.9653L14.3731 22.2499L14.9045 22.7604L12.1834 29.4757L11.652 28.9653ZM11.0984 30.7263C11.311 30.9305 11.4442 31.1585 11.4979 31.4105C11.5517 31.6624 11.5079 31.9629 11.3664 32.3119L10.9513 33.3363L10.6945 33.0896L10.8144 32.7937C10.6336 32.9362 10.4162 32.8856 10.1624 32.6417C9.99703 32.4829 9.88712 32.3088 9.83262 32.1194C9.77811 31.93 9.78315 31.7556 9.84772 31.5963C9.90306 31.4597 9.98614 31.3761 10.097 31.3455C10.2019 31.3093 10.3257 31.3175 10.4684 31.3702C10.6021 31.4249 10.7398 31.5203 10.8815 31.6564C11.0055 31.7755 11.1146 31.8908 11.2088 32.0024C11.2831 31.7786 11.3003 31.5843 11.2605 31.4195C11.2206 31.2548 11.1269 31.1015 10.9793 30.9597C10.9025 30.8859 10.824 30.8368 10.7436 30.8124C10.6574 30.7823 10.5709 30.773 10.4842 30.7846L10.4475 30.4805C10.663 30.4345 10.88 30.5164 11.0984 30.7263ZM10.2812 32.4396C10.4465 32.5984 10.6025 32.6586 10.7493 32.6204C10.8929 32.5897 11.0138 32.4634 11.112 32.2415C11.0208 32.1223 10.9192 32.0088 10.807 31.901C10.6417 31.7422 10.4934 31.6526 10.3623 31.632C10.2402 31.6096 10.1499 31.6704 10.0915 31.8146C10.0054 32.0271 10.0686 32.2354 10.2812 32.4396ZM13.2469 30.4973L15.968 23.782L16.2337 24.0372L13.5126 30.7525L13.2469 30.4973ZM14.044 31.263L16.7651 24.5476L17.0308 24.8029L14.3097 31.5182L14.044 31.263ZM15.3726 32.5391L18.0936 25.8238L18.625 26.3342L15.904 33.0496L15.3726 32.5391ZM13.2718 35.6285C13.1832 35.5434 13.1113 35.4374 13.0561 35.3106C13.0008 35.1837 12.9651 35.0493 12.9488 34.9072L12.7588 35.0725L12.6082 34.9279L13.7474 32.1165L14.022 32.3803L14.0127 32.403C13.9917 32.4144 13.9752 32.4249 13.9631 32.4344C13.948 32.4515 13.9312 32.4828 13.9127 32.5283L13.5115 33.5186C13.6077 33.4634 13.7094 33.4451 13.8167 33.4638C13.9239 33.4825 14.0189 33.5316 14.1016 33.611C14.2905 33.7925 14.4072 34.0206 14.4518 34.2953C14.4933 34.5776 14.4494 34.8781 14.3203 35.1968C14.2311 35.4168 14.1247 35.5781 14.0011 35.6808C13.8775 35.7834 13.7501 35.8245 13.619 35.8039C13.4938 35.789 13.378 35.7306 13.2718 35.6285ZM13.3559 35.3298C13.474 35.4432 13.596 35.4761 13.7219 35.4284C13.8448 35.3883 13.9585 35.2393 14.0631 34.9813C14.1645 34.7309 14.2044 34.511 14.1828 34.3215C14.1583 34.1188 14.084 33.9579 13.9601 33.8387C13.8361 33.7196 13.7065 33.6953 13.5713 33.7657C13.4392 33.8286 13.327 33.9738 13.2348 34.2015C13.038 34.6871 13.0784 35.0632 13.3559 35.3298ZM16.1703 33.3055L18.8914 26.5901L19.1571 26.8453L16.4361 33.5607L16.1703 33.3055ZM16.7018 33.8159L19.4228 27.1005L20.4856 28.1214L17.7646 34.8368L16.7018 33.8159ZM18.296 35.3473L21.017 28.6319L21.2827 28.8871L18.5617 35.6025L18.296 35.3473ZM16.142 38.3856C15.8881 38.1417 15.7171 37.8351 15.6289 37.4657L15.877 37.3088L15.9132 37.2803L15.9305 37.3286C15.9275 37.3361 15.9228 37.3475 15.9167 37.3627C15.9134 37.3911 15.9116 37.4158 15.9114 37.4366C15.9139 37.4707 15.9165 37.5048 15.9191 37.539C15.9477 37.6507 15.9867 37.7567 16.0363 37.8571C16.0889 37.9498 16.1625 38.0416 16.257 38.1323C16.3751 38.2457 16.4803 38.3099 16.5727 38.3249C16.6591 38.3341 16.7224 38.2895 16.7623 38.1908C16.7962 38.1073 16.7973 38.0135 16.7656 37.9094C16.734 37.8052 16.6552 37.6557 16.5291 37.4608C16.2096 36.9536 16.1021 36.571 16.2067 36.313C16.2682 36.1613 16.366 36.0919 16.5002 36.1048C16.6316 36.1045 16.7858 36.1894 16.963 36.3596C17.0988 36.49 17.2032 36.6272 17.2761 36.7711C17.3521 36.9073 17.407 37.0654 17.4407 37.2454L17.216 37.3142L17.1844 37.3313L17.1759 37.2915C17.1882 37.2612 17.1916 37.2327 17.1859 37.2062C17.1892 37.1778 17.1837 37.1408 17.1693 37.0954C17.1377 36.9912 17.097 36.8994 17.0471 36.8199C16.9945 36.7272 16.9386 36.6524 16.8796 36.5957C16.7851 36.505 16.6962 36.4512 16.6128 36.4343C16.5384 36.4155 16.4858 36.4441 16.455 36.52C16.4243 36.5959 16.4306 36.6915 16.4741 36.8071C16.5085 36.9245 16.5931 37.0901 16.728 37.3039C16.8862 37.5613 16.9867 37.7686 17.0297 37.9258C17.0785 38.0887 17.0737 38.2422 17.0153 38.3864C16.9446 38.5609 16.833 38.654 16.6806 38.6657C16.5282 38.6775 16.3487 38.5841 16.142 38.3856Z" fill="#1D1D1D"/>
</g>
<path d="M4.36658 12.6995L4.69797 12.5306L22.4284 29.6803L22.1042 29.8626L4.36658 12.6995Z" fill="#1D1D1D"/>
<path d="M6.95721 11.2964L7.2886 11.121L25.019 28.2771L24.6948 28.4595L6.95721 11.2964Z" fill="#1D1D1D"/>
<path d="M7.93188 10.7636L8.26327 10.5946L25.9937 27.7508L25.6695 27.9267L7.93188 10.7636Z" fill="#1D1D1D"/>
<path d="M8.90205 10.2433L9.23344 10.0614L26.9639 27.2176L26.6397 27.4064L8.90205 10.2433Z" fill="#1D1D1D"/>
<path d="M11.4817 8.83332L11.8131 8.66438L29.5435 25.8206L29.2193 25.9964L11.4817 8.83332Z" fill="#1D1D1D"/>
<path d="M12.4601 8.30699L12.7915 8.13804L30.522 25.2942L30.1978 25.4701L12.4601 8.30699Z" fill="#1D1D1D"/>
<path d="M12.4601 8.30699L12.7915 8.13804L30.522 25.2942L30.1978 25.4701L12.4601 8.30699Z" fill="#1D1D1D"/>
<path d="M15.0463 6.90347L15.3777 6.73453L33.1146 23.8842L32.7839 24.0666L15.0463 6.90347Z" fill="#1D1D1D"/>
<path d="M16.6902 6.03277L17.0021 5.84433L34.7325 23.0005L34.4279 23.1959L16.6902 6.03277Z" fill="#1D1D1D"/>
<path d="M18.6163 4.98011L18.9477 4.79168L36.6781 21.9479L36.3539 22.1432L18.6163 4.98011Z" fill="#1D1D1D"/>
<path d="M21.2192 3.5701L21.5311 3.38816L39.2615 20.5443L38.9568 20.7332L21.2192 3.5701Z" fill="#1D1D1D"/>
<path d="M19.565 4.46679L20.8775 3.75852L38.6079 20.9147L37.3026 21.6299L19.565 4.46679Z" fill="#1D1D1D"/>
<path d="M21.2192 3.5701L21.5311 3.38816L39.2615 20.5443L38.9568 20.7332L21.2192 3.5701Z" fill="#1D1D1D"/>
<path d="M9.87672 9.70402L11.1763 9.00875L28.9067 26.1649L27.6144 26.8671L9.87672 9.70402Z" fill="#1D1D1D"/>
<path d="M5.34125 12.1732L6.69929 11.4519L24.3647 28.6276L23.0789 29.3363L5.34125 12.1732Z" fill="#1D1D1D"/>
<path d="M13.0931 7.96261L13.7669 7.61866L31.4908 24.7618L30.8308 25.1322L13.0931 7.96261Z" fill="#1D1D1D"/>
<path d="M17.3232 5.66888L17.971 5.31844L35.7014 22.4746L35.0609 22.832L17.3232 5.66888Z" fill="#1D1D1D"/>
<path d="M22.1809 3.04378L22.5123 2.87483L40.2427 20.031L39.9185 20.2069L22.1809 3.04378Z" fill="#1D1D1D"/>
<path d="M22.1809 3.04378L22.5123 2.87483L40.2427 20.031L39.9185 20.2069L22.1809 3.04378Z" fill="#1D1D1D"/>
<path d="M23.6232 2.37767L24.8654 1.78878L42.4824 18.8327L41.2399 19.5437L23.6232 2.37767Z" fill="#1D1D1D"/>
<path d="M23.6232 2.37767L24.8654 1.78878L42.4824 18.8327L41.2399 19.5437L23.6232 2.37767Z" fill="#1D1D1D"/>
<path d="M25.2275 1.64398L25.5895 1.42677L43.1613 18.4918L42.8371 18.6676L25.2275 1.64398Z" fill="#1D1D1D"/>
<path d="M25.2275 1.64398L25.5895 1.42677L43.1613 18.4918L42.8371 18.6676L25.2275 1.64398Z" fill="#1D1D1D"/>
</g>
<defs>
<clipPath id="clip0_4210_4082">
<rect width="43.2" height="43.2" fill="white" transform="translate(0 0.399902)"/>
</clipPath>
<clipPath id="clip1_4210_4082">
<rect width="24.3668" height="14.7541" fill="white" transform="matrix(0.721182 0.692746 -0.375542 0.926805 4.53613 11.9031)"/>
</clipPath>
</defs>
</svg>
