<svg width="86" height="86" viewBox="0 0 86 86" fill="none" xmlns="http://www.w3.org/2000/svg">
<mask id="mask0_2959_6644" style="mask-type:alpha" maskUnits="userSpaceOnUse" x="0" y="0" width="86" height="86">
<path d="M29.9973 66.8944C28.6473 66.8944 27.3536 66.7069 26.1161 66.3319C24.8786 65.9569 23.7536 65.4507 22.7411 64.8132C21.7661 64.1757 20.9411 63.4444 20.2661 62.6194C19.6286 61.7569 19.1973 60.8757 18.9723 59.9757L20.9411 59.3007L20.4348 66.2194H12.0536V24.6507H21.1098V43.5507L19.2536 42.8757C19.4786 41.9007 19.9098 41.0007 20.5473 40.1757C21.1848 39.3132 21.9911 38.5632 22.9661 37.9257C23.9411 37.2507 25.0098 36.7257 26.1723 36.3507C27.3348 35.9756 28.5348 35.7881 29.7723 35.7881C32.3598 35.7881 34.6473 36.4631 36.6348 37.8131C38.6598 39.1257 40.2536 40.9632 41.4161 43.3257C42.5786 45.6507 43.1598 48.3132 43.1598 51.3132C43.1598 54.3507 42.5786 57.0507 41.4161 59.4131C40.2911 61.7382 38.7348 63.5757 36.7473 64.9257C34.7598 66.2382 32.5098 66.8944 29.9973 66.8944ZM27.6348 59.3007C28.9848 59.3007 30.1661 58.9632 31.1786 58.2882C32.1911 57.6132 32.9598 56.6944 33.4848 55.5319C34.0473 54.3319 34.3286 52.9257 34.3286 51.3132C34.3286 49.7382 34.0473 48.3507 33.4848 47.1507C32.9598 45.9507 32.1911 45.0319 31.1786 44.3944C30.1661 43.7569 28.9848 43.4382 27.6348 43.4382C26.2473 43.4382 25.0473 43.7569 24.0348 44.3944C23.0223 45.0319 22.2348 45.9507 21.6723 47.1507C21.1098 48.3507 20.8286 49.7382 20.8286 51.3132C20.8286 52.9257 21.1098 54.3319 21.6723 55.5319C22.2348 56.6944 23.0223 57.6132 24.0348 58.2882C25.0473 58.9632 26.2473 59.3007 27.6348 59.3007ZM63.3087 66.8382C60.0087 66.8382 57.14 66.1819 54.7025 64.8694C52.265 63.5194 50.3712 61.7007 49.0212 59.4131C47.6712 57.0881 46.9962 54.4444 46.9962 51.4819C46.9962 49.1944 47.3712 47.0944 48.1212 45.1819C48.8712 43.2694 49.9212 41.6194 51.2712 40.2319C52.6212 38.8069 54.215 37.7194 56.0525 36.9694C57.9275 36.1819 59.9712 35.7881 62.1837 35.7881C64.2837 35.7881 66.1962 36.1631 67.9212 36.9132C69.6837 37.6632 71.2025 38.7132 72.4775 40.0632C73.7525 41.4132 74.7275 43.0069 75.4025 44.8444C76.0775 46.6819 76.3775 48.6882 76.3025 50.8632L76.2462 53.2819H52.4525L51.1587 48.2194H68.9337L67.9775 49.2882V48.1631C67.9025 47.2257 67.6025 46.4007 67.0775 45.6881C66.59 44.9382 65.9337 44.3569 65.1087 43.9444C64.2837 43.5319 63.3462 43.3257 62.2962 43.3257C60.8337 43.3257 59.5775 43.6257 58.5275 44.2257C57.515 44.7882 56.7462 45.6319 56.2212 46.7569C55.6962 47.8444 55.4337 49.1944 55.4337 50.8069C55.4337 52.4569 55.7712 53.9007 56.4462 55.1382C57.1587 56.3382 58.1712 57.2757 59.4837 57.9507C60.8337 58.6257 62.4275 58.9631 64.265 58.9631C65.54 58.9631 66.665 58.7757 67.64 58.4007C68.6525 58.0257 69.74 57.3882 70.9025 56.4882L75.1212 62.4507C73.9587 63.4632 72.7212 64.2882 71.4087 64.9257C70.0962 65.5632 68.7462 66.0319 67.3587 66.3319C66.0087 66.6694 64.6587 66.8382 63.3087 66.8382Z" fill="white"/>
</mask>
<g mask="url(#mask0_2959_6644)">
<rect width="21.5" height="86" fill="#B63637"/>
<rect width="21.5" height="86" transform="translate(21.5)" fill="#672F93"/>
<rect width="21.5" height="86" transform="translate(43)" fill="#2F9293"/>
<rect width="21.5" height="86" transform="translate(64.5)" fill="#FFBE28"/>
</g>
</svg>
