<svg width="86" height="86" viewBox="0 0 86 86" fill="none" xmlns="http://www.w3.org/2000/svg">
<g clip-path="url(#clip0_5_221)">
<path d="M38.8739 71.4637L44.2283 58.07L44.8729 57.72L39.5185 71.1137L38.8739 71.4637ZM40.8076 70.4138L46.162 57.0201L48.7402 55.6202L43.3858 69.0139L40.8076 70.4138ZM44.0304 68.664L49.3848 55.2702L50.0294 54.9203L44.675 68.314L44.0304 68.664ZM41.2161 75.5774C40.7574 76.0516 40.3132 76.4054 39.8835 76.6387C39.4824 76.8564 39.2474 76.8833 39.1784 76.7194C39.1154 76.5403 39.1989 76.1632 39.4288 75.5881C39.4711 75.4822 39.5448 75.3118 39.6499 75.077L40.2441 73.7591L39.4276 74.2024L39.6273 73.703L40.4652 73.248L40.938 72.1914L41.6065 71.7396L41.6924 71.693L41.6743 71.7384C41.6275 71.7993 41.5878 71.8564 41.5554 71.9096C41.5086 71.9705 41.4701 72.0388 41.4398 72.1145L41.0453 72.933L42.2485 72.2798L42.0488 72.7792L40.8027 73.4558L40.2119 74.8074C40.1068 75.0422 40.0421 75.1899 40.0179 75.2504C39.8364 75.7045 39.7625 75.9875 39.7963 76.0995C39.836 76.1964 39.9633 76.1866 40.1782 76.0699C40.3357 75.9844 40.4982 75.8724 40.6657 75.7341C40.8188 75.6036 41.0085 75.4236 41.2348 75.194L41.2161 75.5774ZM45.9658 67.6131L51.3202 54.2194L51.9647 53.8695L46.6103 67.2632L45.9658 67.6131ZM47.8994 66.5632L53.2538 53.1695L53.8984 52.8196L48.544 66.2133L47.8994 66.5632ZM49.8331 65.5133L55.1875 52.1196L57.7658 50.7197L52.4114 64.1135L49.8331 65.5133ZM48.8825 68.6067C49.2692 68.3967 49.534 68.3655 49.6769 68.5131L49.2375 69.1071L49.1798 69.2096L49.1334 69.1991C49.1433 69.1464 49.1472 69.1088 49.1449 69.0863C49.1344 69.0564 49.1025 69.0382 49.049 69.0317C48.9564 69.0109 48.817 69.0511 48.6308 69.1522C48.4446 69.2533 48.2443 69.4034 48.0301 69.6027C47.8219 69.7868 47.6253 70.0121 47.4404 70.2784C47.2411 70.5525 47.0809 70.8409 46.9599 71.1435L46.1432 73.1867L45.5631 73.5016L47.1058 69.6424L47.7074 69.3158L47.4046 70.0312C47.6017 69.7346 47.8379 69.4523 48.1133 69.1843C48.3826 68.9314 48.639 68.7389 48.8825 68.6067ZM53.0576 63.7626L58.412 50.3689L59.0566 50.0189L53.7022 63.4126L53.0576 63.7626ZM54.9913 62.7127L60.3457 49.319L60.9902 48.969L55.6358 62.3627L54.9913 62.7127ZM56.2804 62.0128L61.6348 48.619L62.9239 47.9191L57.5695 61.3128L56.2804 62.0128ZM55.2438 65.1528C55.7594 64.8728 56.0959 64.8027 56.2531 64.9425C56.4103 65.0823 56.3497 65.5003 56.0714 66.1964L55.2546 68.2395L54.6315 68.5778L54.8675 67.9876C54.4711 68.5583 53.965 69.0108 53.3491 69.3452C52.948 69.563 52.6722 69.6357 52.5217 69.5634C52.3712 69.4911 52.3595 69.296 52.4865 68.9782C52.5954 68.7058 52.7751 68.4246 53.0257 68.1345C53.2619 67.8522 53.5474 67.5728 53.8823 67.2961C54.1968 67.0424 54.5259 66.8223 54.8697 66.6356C55.1705 66.4723 55.4366 66.3397 55.668 66.2377C55.8087 65.8295 55.8223 65.5852 55.7087 65.5047C55.5951 65.4241 55.3593 65.4811 55.0012 65.6755C54.815 65.7766 54.628 65.9078 54.4401 66.069C54.238 66.238 54.0381 66.4295 53.8404 66.6435L53.7154 66.4092C54.2044 65.8593 54.7138 65.4405 55.2438 65.1528ZM53.5951 68.8562C53.9961 68.6385 54.3627 68.3387 54.6947 67.957C55.0207 67.5904 55.2816 67.1762 55.4774 66.7144C55.2521 66.8013 55.0033 66.9185 54.7312 67.0663C54.3301 67.2841 53.9776 67.5347 53.6736 67.8183C53.3899 68.0789 53.1906 68.353 53.0757 68.6406C52.9063 69.0643 53.0794 69.1362 53.5951 68.8562ZM60.1494 59.912L65.5038 46.5183L66.1484 46.1683L60.794 59.5621L60.1494 59.912ZM63.3722 58.1622L68.7266 44.7685L69.3712 44.4185L64.0168 57.8122L63.3722 58.1622ZM64.6614 57.4623L70.0158 44.0685L71.3049 43.3686L65.9505 56.7623L64.6614 57.4623ZM61.0425 65.1681C60.6844 65.3625 60.4026 65.4503 60.197 65.4316C59.9974 65.3978 59.8794 65.2723 59.8428 65.0552C59.8063 64.838 59.8667 64.5327 60.024 64.1392C60.1752 63.7609 60.3901 63.3776 60.6687 62.9893C60.9473 62.6011 61.2589 62.2423 61.6037 61.9129C61.9424 61.5987 62.2908 61.3444 62.6488 61.1499C62.9353 60.9944 63.1761 60.9111 63.3712 60.8999C63.552 60.8966 63.6758 60.9656 63.7426 61.1071L63.223 61.6913L63.1619 61.76L63.1371 61.738C63.1552 61.6926 63.1591 61.6549 63.1486 61.6251C63.1464 61.6026 63.1287 61.5766 63.0956 61.5472C63.0234 61.5035 62.9319 61.4939 62.8211 61.5185C62.7021 61.5358 62.5566 61.591 62.3847 61.6844C62.1699 61.801 61.9523 61.9665 61.732 62.1809C61.4974 62.4031 61.2846 62.6549 61.0936 62.9364C60.8943 63.2105 60.7372 63.4913 60.6222 63.7788C60.5073 64.0664 60.4587 64.3001 60.4765 64.4801C60.5003 64.6449 60.5811 64.7372 60.7189 64.7572C60.865 64.7845 61.0526 64.736 61.2818 64.6116C61.6542 64.4094 62.04 64.0755 62.4392 63.6099L62.5982 63.8435C62.0767 64.4466 61.5582 64.8881 61.0425 65.1681ZM67.2413 56.0615L72.5957 42.6678L73.2402 42.3178L67.8858 55.7115L67.2413 56.0615ZM69.175 55.0116L74.5294 41.6179L77.1076 40.218L71.7532 53.6117L69.175 55.0116ZM72.3978 53.2617L77.7522 39.868L78.3967 39.5181L73.0423 52.9118L72.3978 53.2617ZM69.5835 60.1752C69.1248 60.6494 68.6806 61.0032 68.2509 61.2365C67.8498 61.4542 67.6148 61.4811 67.5457 61.3172C67.4827 61.1381 67.5662 60.761 67.7961 60.1859C67.8385 60.08 67.9122 59.9096 68.0173 59.6748L68.6114 58.3569L67.795 58.8002L67.9946 58.3007L68.8326 57.8458L69.3054 56.7892L69.9738 56.3374L70.0598 56.2908L70.0416 56.3362C69.9948 56.3971 69.9552 56.4542 69.9227 56.5074C69.8759 56.5683 69.8374 56.6366 69.8072 56.7123L69.4127 57.5308L70.6158 56.8775L70.4162 57.377L69.17 58.0536L68.5792 59.4052C68.4741 59.64 68.4095 59.7877 68.3853 59.8482C68.2038 60.3022 68.1299 60.5853 68.1636 60.6973C68.2034 60.7942 68.3307 60.7843 68.5455 60.6677C68.7031 60.5821 68.8656 60.4702 69.033 60.3319C69.1861 60.2014 69.3759 60.0213 69.6022 59.7918L69.5835 60.1752ZM74.3331 52.2109L79.6875 38.8172L80.3321 38.4672L74.9777 51.861L74.3331 52.2109ZM76.9114 50.8111L82.2658 37.4173L84.844 36.0175L79.4896 49.4112L76.9114 50.8111ZM80.1342 49.0612L85.4886 35.6675L86.1331 35.3175L80.7787 48.7112L80.1342 49.0612ZM74.956 57.5959C74.6265 57.7748 74.3662 57.851 74.1749 57.8245C73.9979 57.7902 73.8984 57.6606 73.8761 57.4357C73.8396 57.2186 73.8999 56.9133 74.0572 56.5198C74.2146 56.1263 74.4325 55.7354 74.711 55.3472C74.9753 54.9667 75.2624 54.6272 75.5725 54.3285C75.9029 54.0069 76.2328 53.7567 76.5623 53.5778C76.8917 53.3989 77.1419 53.3342 77.3128 53.3836C77.5041 53.4101 77.6108 53.5358 77.6331 53.7607C77.6553 53.9856 77.5877 54.2948 77.4304 54.6883C77.2731 55.0818 77.0624 55.4687 76.7981 55.8492C76.5339 56.2296 76.2396 56.5731 75.9152 56.8796C75.6052 57.1782 75.2854 57.417 74.956 57.5959ZM75.1556 57.0965C75.3562 56.9876 75.5696 56.8184 75.7959 56.5889C76.0019 56.3822 76.2004 56.1382 76.3914 55.8567C76.5741 55.5679 76.723 55.2798 76.8379 54.9922C77.0134 54.5533 77.0553 54.2521 76.9637 54.0886C76.872 53.925 76.6687 53.9288 76.3536 54.0999C76.0384 54.271 75.7262 54.5472 75.4167 54.9285C75.1073 55.3098 74.8649 55.7199 74.6894 56.1588C74.5744 56.4463 74.5115 56.6878 74.5007 56.8833C74.5102 57.0559 74.5695 57.1599 74.6787 57.1955C74.7818 57.2461 74.9408 57.2131 75.1556 57.0965Z" fill="white"/>
<g clip-path="url(#clip1_5_221)">
<path d="M3.06784 37.6149L8.48479 24.2464L9.01374 24.7545L3.59679 38.123L3.06784 37.6149ZM4.65468 39.1392L10.0716 25.7706L10.6006 26.2787L5.18362 39.6473L4.65468 39.1392ZM7.2994 41.6796L12.7163 28.3111L13.7742 29.3273L8.35729 42.6958L7.2994 41.6796ZM3.11728 47.8297C2.94096 47.6604 2.79782 47.4494 2.68786 47.1969C2.5779 46.9444 2.50675 46.6767 2.47442 46.3938L2.09611 46.7229L1.79638 46.435L4.06415 40.8383L4.61073 41.3634L4.59236 41.4087C4.55049 41.4314 4.51756 41.4522 4.49356 41.4712C4.46345 41.5052 4.43003 41.5675 4.3933 41.6582L3.59453 43.6295C3.78601 43.5196 3.98852 43.4833 4.20204 43.5205C4.41557 43.5577 4.60461 43.6554 4.76917 43.8134C5.14531 44.1748 5.37772 44.6288 5.46639 45.1757C5.54894 45.7376 5.46168 46.3358 5.20461 46.9703C5.0271 47.4083 4.81531 47.7295 4.56923 47.9338C4.32315 48.1382 4.06959 48.2199 3.80856 48.179C3.55928 48.1494 3.32885 48.033 3.11728 47.8297ZM3.28473 47.2351C3.51982 47.4609 3.76273 47.5264 4.01347 47.4315C4.25809 47.3517 4.48445 47.055 4.69256 46.5414C4.89455 46.0429 4.97399 45.6051 4.93087 45.2279C4.88212 44.8243 4.73432 44.504 4.48748 44.2668C4.24064 44.0297 3.98267 43.9813 3.71356 44.1215C3.45058 44.2467 3.22728 44.5358 3.04365 44.989C2.65192 45.9557 2.73228 46.7044 3.28473 47.2351ZM8.88761 43.2052L14.3046 29.8367L14.8335 30.3448L9.41655 43.7133L8.88761 43.2052ZM9.9455 44.2214L15.3624 30.8528L16.4203 31.869L11.0034 45.2376L9.9455 44.2214ZM12.0613 46.2537L17.4782 32.8852L18.0072 33.3933L12.5902 46.7618L12.0613 46.2537ZM8.9723 53.4539C8.52564 53.0248 8.2434 52.5124 8.12558 51.9166C7.99601 51.3095 8.05977 50.6887 8.31684 50.0542C8.48823 49.6313 8.70283 49.3233 8.96067 49.1303C9.20063 48.9411 9.457 48.8725 9.72979 48.9247C9.99694 48.9505 10.2598 49.0876 10.5184 49.336C10.8828 49.686 11.1154 50.1193 11.2164 50.636C11.3112 51.1677 11.2361 51.7357 10.9913 52.3399C10.9668 52.4004 10.9301 52.491 10.8811 52.6118L8.74772 50.5625C8.56972 51.0421 8.5258 51.4931 8.61593 51.9154C8.70607 52.3378 8.89806 52.6901 9.19192 52.9723C9.50929 53.2772 9.82603 53.3821 10.1422 53.287L10.2689 53.8809C9.85117 54.0253 9.41897 53.8829 8.9723 53.4539ZM10.5979 51.6787C10.7448 51.3162 10.7906 50.9614 10.7352 50.6145C10.6798 50.2675 10.5346 49.9811 10.2995 49.7553C10.0879 49.5521 9.86009 49.4696 9.61596 49.5079C9.37183 49.5462 9.15256 49.7448 8.95815 50.1037L10.5979 51.6787ZM14.7074 48.7955L20.1243 35.427L21.1822 36.4431L15.7653 49.8117L14.7074 48.7955ZM16.2942 50.3198L21.7112 36.9512L22.769 37.9674L17.3521 51.3359L16.2942 50.3198ZM18.41 52.3521L23.8269 38.9836L24.8848 39.9997L19.4679 53.3683L18.41 52.3521ZM20.5271 54.3858L25.9441 41.0172L26.473 41.5253L21.0561 54.8939L20.5271 54.3858ZM22.114 55.91L27.5309 42.5415L28.0599 43.0496L22.6429 56.4181L22.114 55.91ZM23.1719 56.9262L28.5888 43.5577L29.6467 44.5739L24.2297 57.9424L23.1719 56.9262ZM22.0698 60.4319C22.4929 60.8384 22.758 61.2924 22.8651 61.7939C22.9721 62.2954 22.8848 62.8936 22.6033 63.5885L21.777 65.6278L21.2657 65.1366L21.5044 64.5475C21.1444 64.8313 20.7117 64.7304 20.2063 64.2449C19.8772 63.9288 19.6584 63.5822 19.5499 63.2052C19.4414 62.8282 19.4514 62.481 19.5799 62.1638C19.6901 61.8919 19.8555 61.7255 20.0761 61.6646C20.285 61.5925 20.5315 61.6089 20.8155 61.7138C21.0817 61.8226 21.3558 62.0125 21.6379 62.2835C21.8848 62.5206 22.102 62.7502 22.2896 62.9724C22.4374 62.5268 22.4717 62.14 22.3923 61.812C22.313 61.4839 22.1264 61.1788 21.8325 60.8965C21.6797 60.7497 21.5234 60.652 21.3635 60.6033C21.1918 60.5434 21.0197 60.5249 20.847 60.5479L20.7739 59.9426C21.2029 59.851 21.6349 60.0141 22.0698 60.4319ZM20.4428 63.8426C20.7719 64.1587 21.0826 64.2787 21.3747 64.2026C21.6607 64.1415 21.9014 63.8901 22.0968 63.4482C21.9153 63.2109 21.7129 62.985 21.4896 62.7705C21.1605 62.4544 20.8654 62.2759 20.6043 62.235C20.3612 62.1903 20.1815 62.3114 20.0652 62.5984C19.8938 63.0214 20.0197 63.4361 20.4428 63.8426ZM26.3469 59.9761L31.7638 46.6075L32.2928 47.1156L26.8758 60.4842L26.3469 59.9761ZM27.9337 61.5003L33.3507 48.1318L33.8796 48.6399L28.4627 62.0084L27.9337 61.5003ZM30.5784 64.0408L35.9954 50.6722L37.0533 51.6884L31.6363 65.0569L30.5784 64.0408ZM26.3963 70.1909C26.22 70.0215 26.0769 69.8106 25.9669 69.5581C25.857 69.3055 25.7858 69.0378 25.7535 68.7549L25.3752 69.0841L25.0754 68.7962L27.3432 63.1995L27.8898 63.7245L27.8714 63.7698C27.8295 63.7926 27.7966 63.8134 27.7726 63.8323C27.7425 63.8663 27.7091 63.9287 27.6724 64.0193L26.8736 65.9906C27.0651 65.8807 27.2676 65.8444 27.4811 65.8817C27.6946 65.9189 27.8837 66.0165 28.0482 66.1746C28.4244 66.5359 28.6568 66.99 28.7454 67.5368C28.828 68.0988 28.7407 68.697 28.4837 69.3314C28.3062 69.7695 28.0944 70.0907 27.8483 70.295C27.6022 70.4993 27.3486 70.581 27.0876 70.5401C26.8383 70.5105 26.6079 70.3941 26.3963 70.1909ZM26.5638 69.5963C26.7989 69.8221 27.0418 69.8875 27.2925 69.7926C27.5371 69.7128 27.7635 69.4161 27.9716 68.9025C28.1736 68.404 28.253 67.9662 28.2099 67.589C28.1612 67.1855 28.0134 66.8651 27.7665 66.628C27.5197 66.3909 27.2617 66.3425 26.9926 66.4827C26.7296 66.6078 26.5063 66.8969 26.3227 67.3501C25.931 68.3169 26.0113 69.0656 26.5638 69.5963ZM32.1667 65.5664L37.5836 52.1978L38.1125 52.7059L32.6956 66.0744L32.1667 65.5664ZM33.2245 66.5825L38.6415 53.214L40.7573 55.2463L35.3403 68.6149L33.2245 66.5825ZM36.3982 69.6311L41.8152 56.2625L42.3441 56.7706L36.9272 70.1392L36.3982 69.6311ZM32.1103 75.6796C31.6049 75.194 31.2643 74.5837 31.0887 73.8484L31.5827 73.5359L31.6547 73.4792L31.6893 73.5753C31.6831 73.5904 31.6739 73.6131 31.6617 73.6433C31.6551 73.6999 31.6516 73.7489 31.6511 73.7904C31.6562 73.8583 31.6614 73.9262 31.6665 73.9941C31.7233 74.2166 31.8011 74.4277 31.8998 74.6274C32.0046 74.8121 32.151 74.9947 32.3391 75.1753C32.5742 75.4012 32.7837 75.5289 32.9676 75.5587C33.1397 75.5772 33.2656 75.4882 33.3451 75.2918C33.4125 75.1257 33.4147 74.9389 33.3517 74.7315C33.2888 74.5242 33.1318 74.2265 32.8808 73.8385C32.2448 72.8289 32.0309 72.0673 32.239 71.5537C32.3614 71.2516 32.5562 71.1134 32.8233 71.1392C33.0849 71.1386 33.3919 71.3076 33.7446 71.6463C34.0149 71.906 34.2227 72.1791 34.3679 72.4655C34.5193 72.7367 34.6285 73.0515 34.6956 73.4098L34.2482 73.5467L34.1854 73.5808L34.1685 73.5016C34.193 73.4411 34.1996 73.3845 34.1884 73.3317C34.195 73.2751 34.1839 73.2016 34.1553 73.1111C34.0923 72.9038 34.0113 72.721 33.9121 72.5627C33.8073 72.3781 33.6961 72.2293 33.5786 72.1164C33.3905 71.9358 33.2135 71.8287 33.0474 71.7951C32.8993 71.7577 32.7946 71.8146 32.7334 71.9656C32.6722 72.1167 32.6848 72.3072 32.7713 72.5371C32.8398 72.7709 33.0083 73.1006 33.2767 73.5263C33.5917 74.0387 33.7919 74.4513 33.8773 74.7643C33.9746 75.0885 33.965 75.3941 33.8487 75.6811C33.708 76.0286 33.4859 76.2139 33.1825 76.2373C32.8791 76.2606 32.5217 76.0747 32.1103 75.6796Z" fill="white"/>
</g>
<path d="M8.69287 24.4855L9.35258 24.1492L44.6493 58.2897L44.0039 58.6528L8.69287 24.4855Z" fill="white"/>
<path d="M13.8501 21.6923L14.5099 21.343L49.8065 55.4965L49.1612 55.8595L13.8501 21.6923Z" fill="white"/>
<path d="M15.7905 20.6315L16.4502 20.2952L51.7469 54.4487L51.1015 54.7988L15.7905 20.6315Z" fill="white"/>
<path d="M17.7218 19.5959L18.3815 19.2337L53.6782 53.3872L53.0329 53.7632L17.7218 19.5959Z" fill="white"/>
<path d="M22.8572 16.7889L23.5169 16.4526L58.8136 50.6061L58.1682 50.9562L22.8572 16.7889Z" fill="white"/>
<path d="M24.8051 15.7411L25.4648 15.4048L60.7615 49.5583L60.1161 49.9084L24.8051 15.7411Z" fill="white"/>
<path d="M24.8051 15.7411L25.4648 15.4048L60.7615 49.5583L60.1161 49.9084L24.8051 15.7411Z" fill="white"/>
<path d="M29.9534 12.9471L30.6131 12.6107L65.9227 46.7513L65.2644 47.1143L29.9534 12.9471Z" fill="white"/>
<path d="M33.226 11.2137L33.8469 10.8386L69.1436 44.9921L68.5371 45.381L33.226 11.2137Z" fill="white"/>
<path d="M37.0603 9.11815L37.72 8.74302L73.0167 42.8965L72.3714 43.2854L37.0603 9.11815Z" fill="white"/>
<path d="M42.242 6.31118L42.8629 5.94898L78.1596 40.1025L77.5531 40.4785L42.242 6.31118Z" fill="white"/>
<path d="M38.9489 8.09625L41.5619 6.68629L76.8586 40.8398L74.26 42.2635L38.9489 8.09625Z" fill="white"/>
<path d="M42.242 6.31118L42.8629 5.94898L78.1596 40.1025L77.5531 40.4785L42.242 6.31118Z" fill="white"/>
<path d="M19.6621 18.5222L22.2492 17.1381L57.5459 51.2916L54.9732 52.6895L19.6621 18.5222Z" fill="white"/>
<path d="M10.6332 23.4377L13.3367 22.0019L48.504 56.1942L45.9442 57.605L10.6332 23.4377Z" fill="white"/>
<path d="M26.0652 15.0555L27.4065 14.3708L62.6903 48.4984L61.3762 49.2357L26.0652 15.0555Z" fill="white"/>
<path d="M34.4862 10.4893L35.7757 9.79167L71.0724 43.9451L69.7972 44.6566L34.4862 10.4893Z" fill="white"/>
<path d="M44.1565 5.26341L44.8162 4.92708L80.1129 39.0806L79.4675 39.4307L44.1565 5.26341Z" fill="white"/>
<path d="M44.1565 5.26341L44.8162 4.92708L80.1129 39.0806L79.4675 39.4307L44.1565 5.26341Z" fill="white"/>
<path d="M47.0279 3.93735L49.5008 2.76504L84.5716 36.6952L82.0982 38.1104L47.0279 3.93735Z" fill="white"/>
<path d="M47.0279 3.93735L49.5008 2.76504L84.5716 36.6952L82.0982 38.1104L47.0279 3.93735Z" fill="white"/>
<path d="M50.2215 2.47677L50.9422 2.04436L85.9231 36.0164L85.2778 36.3665L50.2215 2.47677Z" fill="white"/>
<path d="M50.2215 2.47677L50.9422 2.04436L85.9231 36.0164L85.2778 36.3665L50.2215 2.47677Z" fill="white"/>
</g>
<defs>
<clipPath id="clip0_5_221">
<rect width="86" height="86" fill="white"/>
</clipPath>
<clipPath id="clip1_5_221">
<rect width="48.508" height="29.3717" fill="white" transform="matrix(0.721182 0.692746 -0.375542 0.926805 9.03027 22.9)"/>
</clipPath>
</defs>
</svg>
