<svg width="86" height="42" viewBox="0 0 86 42" fill="none" xmlns="http://www.w3.org/2000/svg">
<g clip-path="url(#clip0_2959_6644)">
<mask id="mask0_2959_6644" style="mask-type:alpha" maskUnits="userSpaceOnUse" x="0" y="-25" width="86" height="86">
<path d="M29.9973 41.8944C28.6473 41.8944 27.3536 41.7069 26.1161 41.3319C24.8786 40.9569 23.7536 40.4507 22.7411 39.8132C21.7661 39.1757 20.9411 38.4444 20.2661 37.6194C19.6286 36.7569 19.1973 35.8757 18.9723 34.9757L20.9411 34.3007L20.4348 41.2194H12.0536V-0.349348H21.1098V18.5507L19.2536 17.8757C19.4786 16.9007 19.9098 16.0007 20.5473 15.1757C21.1848 14.3132 21.9911 13.5632 22.9661 12.9257C23.9411 12.2507 25.0098 11.7257 26.1723 11.3507C27.3348 10.9756 28.5348 10.7881 29.7723 10.7881C32.3598 10.7881 34.6473 11.4631 36.6348 12.8131C38.6598 14.1257 40.2536 15.9632 41.4161 18.3257C42.5786 20.6507 43.1598 23.3132 43.1598 26.3132C43.1598 29.3507 42.5786 32.0507 41.4161 34.4131C40.2911 36.7382 38.7348 38.5757 36.7473 39.9257C34.7598 41.2382 32.5098 41.8944 29.9973 41.8944ZM27.6348 34.3007C28.9848 34.3007 30.1661 33.9632 31.1786 33.2882C32.1911 32.6132 32.9598 31.6944 33.4848 30.5319C34.0473 29.3319 34.3286 27.9257 34.3286 26.3132C34.3286 24.7382 34.0473 23.3507 33.4848 22.1507C32.9598 20.9507 32.1911 20.0319 31.1786 19.3944C30.1661 18.7569 28.9848 18.4382 27.6348 18.4382C26.2473 18.4382 25.0473 18.7569 24.0348 19.3944C23.0223 20.0319 22.2348 20.9507 21.6723 22.1507C21.1098 23.3507 20.8286 24.7382 20.8286 26.3132C20.8286 27.9257 21.1098 29.3319 21.6723 30.5319C22.2348 31.6944 23.0223 32.6132 24.0348 33.2882C25.0473 33.9632 26.2473 34.3007 27.6348 34.3007ZM63.3087 41.8382C60.0087 41.8382 57.14 41.1819 54.7025 39.8694C52.265 38.5194 50.3712 36.7007 49.0212 34.4131C47.6712 32.0881 46.9962 29.4444 46.9962 26.4819C46.9962 24.1944 47.3712 22.0944 48.1212 20.1819C48.8712 18.2694 49.9212 16.6194 51.2712 15.2319C52.6212 13.8069 54.215 12.7194 56.0525 11.9694C57.9275 11.1819 59.9712 10.7881 62.1837 10.7881C64.2837 10.7881 66.1962 11.1631 67.9212 11.9132C69.6837 12.6632 71.2025 13.7132 72.4775 15.0632C73.7525 16.4132 74.7275 18.0069 75.4025 19.8444C76.0775 21.6819 76.3775 23.6882 76.3025 25.8632L76.2462 28.2819H52.4525L51.1587 23.2194H68.9337L67.9775 24.2882V23.1631C67.9025 22.2257 67.6025 21.4007 67.0775 20.6881C66.59 19.9382 65.9337 19.3569 65.1087 18.9444C64.2837 18.5319 63.3462 18.3257 62.2962 18.3257C60.8337 18.3257 59.5775 18.6257 58.5275 19.2257C57.515 19.7882 56.7462 20.6319 56.2212 21.7569C55.6962 22.8444 55.4337 24.1944 55.4337 25.8069C55.4337 27.4569 55.7712 28.9007 56.4462 30.1382C57.1587 31.3382 58.1712 32.2757 59.4837 32.9507C60.8337 33.6257 62.4275 33.9631 64.265 33.9631C65.54 33.9631 66.665 33.7757 67.64 33.4007C68.6525 33.0257 69.74 32.3882 70.9025 31.4882L75.1212 37.4507C73.9587 38.4632 72.7212 39.2882 71.4087 39.9257C70.0962 40.5632 68.7462 41.0319 67.3587 41.3319C66.0087 41.6694 64.6587 41.8382 63.3087 41.8382Z" fill="white"/>
</mask>
<g mask="url(#mask0_2959_6644)">
<rect width="83" height="86" transform="translate(0 -25)" fill="#0078CC"/>
</g>
</g>
<defs>
<clipPath id="clip0_2959_6644">
<rect width="86" height="42" fill="white"/>
</clipPath>
</defs>
</svg>
