<svg width="90" height="86" viewBox="0 0 90 86" fill="none" xmlns="http://www.w3.org/2000/svg">
<mask id="mask0_5_427" style="mask-type:alpha" maskUnits="userSpaceOnUse" x="0" y="0" width="90" height="86">
<path d="M41.6167 72.5999L47.0425 59.0277L47.6956 58.673L42.2699 72.2453L41.6167 72.5999ZM43.5762 71.536L49.0019 57.9638L51.6145 56.5452L46.1888 70.1175L43.5762 71.536ZM46.8419 69.7628L52.2677 56.1906L52.9208 55.836L47.4951 69.4082L46.8419 69.7628ZM43.9902 76.7684C43.5253 77.249 43.0752 77.6074 42.6398 77.8439C42.2334 78.0645 41.9952 78.0918 41.9252 77.9256C41.8614 77.7442 41.946 77.362 42.179 76.7793C42.2219 76.6719 42.2966 76.4993 42.4031 76.2614L43.0051 74.9259L42.1778 75.3751L42.3801 74.869L43.2292 74.408L43.7084 73.3373L44.3857 72.8795L44.4728 72.8322L44.4544 72.8782C44.407 72.94 44.3668 72.9978 44.3339 73.0517C44.2865 73.1135 44.2475 73.1827 44.2168 73.2594L43.8171 74.0888L45.0363 73.4268L44.834 73.9329L43.5712 74.6185L42.9725 75.9882C42.866 76.2261 42.8005 76.3758 42.776 76.4371C42.5921 76.8972 42.5172 77.184 42.5514 77.2975C42.5916 77.3957 42.7207 77.3857 42.9384 77.2675C43.098 77.1808 43.2627 77.0674 43.4324 76.9272C43.5875 76.795 43.7798 76.6125 44.0091 76.3799L43.9902 76.7684ZM48.8031 68.698L54.2288 55.1258L54.882 54.7711L49.4562 68.3434L48.8031 68.698ZM50.7625 67.6341L56.1883 54.0619L56.8415 53.7072L51.4157 67.2795L50.7625 67.6341ZM52.722 66.5702L58.1478 52.998L60.7604 51.5795L55.3346 65.1517L52.722 66.5702ZM51.7587 69.7048C52.1506 69.492 52.4189 69.4604 52.5637 69.6099L52.1185 70.2119L52.0599 70.3157L52.013 70.3052C52.023 70.2517 52.0269 70.2136 52.0246 70.1908C52.014 70.1605 51.9816 70.1421 51.9274 70.1355C51.8336 70.1144 51.6923 70.1551 51.5036 70.2575C51.3149 70.36 51.112 70.5122 50.8949 70.7141C50.684 70.9007 50.4848 71.1289 50.2974 71.3988C50.0954 71.6765 49.9331 71.9688 49.8105 72.2755L48.9829 74.3458L48.395 74.665L49.9584 70.7543L50.568 70.4233L50.2611 71.1483C50.4608 70.8477 50.7002 70.5617 50.9792 70.2901C51.2521 70.0339 51.5119 69.8388 51.7587 69.7048ZM55.9895 64.7961L61.4152 51.2239L62.0684 50.8693L56.6426 64.4415L55.9895 64.7961ZM57.9489 63.7322L63.3747 50.16L64.0278 49.8054L58.6021 63.3776L57.9489 63.7322ZM59.2552 63.023L64.681 49.4507L65.9873 48.7415L60.5615 62.3137L59.2552 63.023ZM58.2048 66.2049C58.7273 65.9211 59.0682 65.8501 59.2275 65.9918C59.3868 66.1334 59.3254 66.557 59.0434 67.2624L58.2158 69.3328L57.5844 69.6756L57.8235 69.0775C57.4218 69.6558 56.909 70.1143 56.2848 70.4532C55.8784 70.6739 55.599 70.7476 55.4464 70.6743C55.2939 70.601 55.282 70.4033 55.4108 70.0813C55.5211 69.8052 55.7032 69.5203 55.9571 69.2263C56.1965 68.9403 56.4858 68.6571 56.8251 68.3768C57.1438 68.1197 57.4773 67.8966 57.8257 67.7075C58.1305 67.542 58.4001 67.4076 58.6346 67.3043C58.7773 66.8906 58.791 66.643 58.6759 66.5614C58.5608 66.4798 58.3218 66.5376 57.9589 66.7346C57.7702 66.837 57.5807 66.9699 57.3904 67.1333C57.1856 67.3046 56.983 67.4986 56.7827 67.7154L56.656 67.478C57.1515 66.9208 57.6678 66.4964 58.2048 66.2049ZM56.5341 69.9577C56.9405 69.737 57.3119 69.4333 57.6484 69.0465C57.9787 68.675 58.2431 68.2553 58.4415 67.7873C58.2132 67.8753 57.9611 67.9942 57.6853 68.1439C57.2789 68.3645 56.9217 68.6185 56.6136 68.9059C56.3262 69.17 56.1243 69.4477 56.0078 69.7391C55.8361 70.1685 56.0116 70.2414 56.5341 69.9577ZM63.1758 60.8943L68.6016 47.322L69.2547 46.9674L63.829 60.5396L63.1758 60.8943ZM66.4416 59.1211L71.8673 45.5489L72.5205 45.1942L67.0947 58.7665L66.4416 59.1211ZM67.7479 58.4118L73.1736 44.8396L74.4799 44.1303L69.0542 57.7026L67.7479 58.4118ZM64.0808 66.2203C63.7179 66.4174 63.4323 66.5064 63.224 66.4874C63.0218 66.4531 62.9022 66.326 62.8651 66.1059C62.8281 65.8859 62.8893 65.5765 63.0487 65.1778C63.2019 64.7944 63.4197 64.406 63.702 64.0126C63.9843 63.6192 64.3001 63.2556 64.6494 62.9218C64.9926 62.6034 65.3457 62.3457 65.7085 62.1487C65.9988 61.9911 66.2428 61.9066 66.4405 61.8953C66.6237 61.8919 66.7491 61.9619 66.8168 62.1052L66.2904 62.6973L66.2284 62.7669L66.2033 62.7445C66.2217 62.6985 66.2256 62.6604 66.2149 62.6302C66.2127 62.6074 66.1948 62.5811 66.1612 62.5512C66.088 62.5069 65.9953 62.4972 65.8831 62.5222C65.7625 62.5396 65.6151 62.5956 65.4409 62.6902C65.2232 62.8084 65.0027 62.9762 64.7795 63.1934C64.5418 63.4185 64.3261 63.6737 64.1325 63.9589C63.9306 64.2367 63.7714 64.5212 63.6549 64.8126C63.5384 65.104 63.4892 65.3408 63.5072 65.5232C63.5314 65.6902 63.6133 65.7838 63.7529 65.804C63.9009 65.8317 64.0911 65.7825 64.3233 65.6564C64.7007 65.4515 65.0916 65.1132 65.4961 64.6414L65.6572 64.8781C65.1288 65.4892 64.6033 65.9366 64.0808 66.2203ZM70.3622 56.9924L75.7879 43.4201L76.4411 43.0655L71.0153 56.6378L70.3622 56.9924ZM72.3216 55.9285L77.7474 42.3563L80.36 40.9377L74.9342 54.51L72.3216 55.9285ZM75.5874 54.1553L81.0131 40.5831L81.6663 40.2285L76.2405 53.8007L75.5874 54.1553ZM72.7356 61.1609C72.2708 61.6415 71.8207 61.9999 71.3852 62.2364C70.9788 62.457 70.7406 62.4843 70.6707 62.3181C70.6069 62.1367 70.6914 61.7545 70.9244 61.1718C70.9673 61.0644 71.042 60.8918 71.1485 60.6539L71.7506 59.3184L70.9232 59.7676L71.1256 59.2615L71.9747 58.8005L72.4538 57.7298L73.1312 57.272L73.2183 57.2247L73.1999 57.2707C73.1524 57.3325 73.1123 57.3903 73.0794 57.4442C73.0319 57.506 72.9929 57.5752 72.9623 57.6519L72.5625 58.4813L73.7817 57.8193L73.5794 58.3254L72.3166 59.011L71.7179 60.3807C71.6115 60.6186 71.546 60.7683 71.5214 60.8296C71.3375 61.2897 71.2626 61.5765 71.2968 61.69C71.3371 61.7882 71.4661 61.7782 71.6838 61.66C71.8435 61.5733 72.0081 61.4599 72.1778 61.3197C72.333 61.1875 72.5252 61.005 72.7546 60.7724L72.7356 61.1609ZM77.5485 53.0905L82.9743 39.5183L83.6274 39.1636L78.2017 52.7359L77.5485 53.0905ZM80.1611 51.672L85.5869 38.0997L88.1995 36.6812L82.7737 50.2535L80.1611 51.672ZM83.4269 49.8988L88.8527 36.3266L89.5058 35.972L84.08 49.5442L83.4269 49.8988ZM78.1797 58.5473C77.8459 58.7285 77.582 58.8057 77.3882 58.7789C77.2089 58.7442 77.108 58.6128 77.0855 58.3849C77.0484 58.1649 77.1096 57.8555 77.269 57.4568C77.4284 57.0581 77.6492 56.662 77.9315 56.2686C78.1993 55.8831 78.4902 55.539 78.8044 55.2363C79.1393 54.9104 79.4736 54.6568 79.8074 54.4756C80.1412 54.2943 80.3948 54.2287 80.5679 54.2788C80.7617 54.3056 80.8699 54.433 80.8925 54.6609C80.915 54.8888 80.8465 55.2021 80.6871 55.6009C80.5277 55.9996 80.3142 56.3917 80.0464 56.7773C79.7786 57.1628 79.4804 57.5108 79.1517 57.8214C78.8375 58.124 78.5135 58.366 78.1797 58.5473ZM78.382 58.0412C78.5852 57.9308 78.8015 57.7594 79.0308 57.5268C79.2395 57.3174 79.4407 57.0701 79.6342 56.7849C79.8194 56.4923 79.9702 56.2002 80.0867 55.9089C80.2645 55.4641 80.307 55.1589 80.2142 54.9932C80.1213 54.8275 79.9152 54.8313 79.5959 55.0047C79.2766 55.178 78.9601 55.4579 78.6466 55.8443C78.333 56.2307 78.0874 56.6462 77.9096 57.091C77.7931 57.3824 77.7293 57.6271 77.7183 57.8252C77.728 58.0001 77.7881 58.1055 77.8987 58.1415C78.0032 58.1928 78.1643 58.1594 78.382 58.0412Z" fill="white"/>
<g clip-path="url(#clip0_5_427)">
<path d="M5.32975 38.2986L10.8189 24.7518L11.3549 25.2667L5.86575 38.8134L5.32975 38.2986ZM6.93774 39.8431L12.4269 26.2964L12.9629 26.8113L7.47373 40.358L6.93774 39.8431ZM9.61771 42.4174L15.1069 28.8707L16.1788 29.9004L10.6897 43.4472L9.61771 42.4174ZM5.37984 48.6495C5.20118 48.4779 5.05613 48.2641 4.94471 48.0083C4.83328 47.7524 4.76119 47.4811 4.72842 47.1944L4.34507 47.528L4.04134 47.2362L6.33934 41.5649L6.8932 42.097L6.87459 42.1429C6.83216 42.1659 6.79879 42.187 6.77448 42.2062C6.74396 42.2407 6.71009 42.3038 6.67288 42.3957L5.86346 44.3933C6.05749 44.2819 6.2627 44.2451 6.47907 44.2829C6.69544 44.3206 6.887 44.4195 7.05376 44.5797C7.43491 44.9458 7.67041 45.406 7.76027 45.9601C7.84392 46.5295 7.7555 47.1357 7.49499 47.7786C7.31512 48.2225 7.10051 48.548 6.85115 48.755C6.60179 48.9621 6.34485 49.0449 6.08034 49.0034C5.82774 48.9734 5.59424 48.8555 5.37984 48.6495ZM5.54953 48.047C5.78775 48.2758 6.0339 48.3421 6.28798 48.246C6.53586 48.1651 6.76524 47.8644 6.97613 47.344C7.18081 46.8389 7.2613 46.3952 7.21761 46.013C7.16821 45.604 7.01844 45.2794 6.76831 45.0391C6.51818 44.7989 6.25677 44.7498 5.98408 44.8919C5.71759 45.0187 5.49131 45.3117 5.30524 45.7709C4.90829 46.7505 4.98972 47.5092 5.54953 48.047ZM11.2271 43.9634L16.7162 30.4166L17.2522 30.9315L11.7631 44.4782L11.2271 43.9634ZM12.2991 44.9931L17.7882 31.4464L18.8602 32.4761L13.3711 46.0228L12.2991 44.9931ZM14.443 47.0525L19.9322 33.5058L20.4682 34.0207L14.979 47.5674L14.443 47.0525ZM11.3129 54.3486C10.8603 53.9139 10.5743 53.3946 10.4549 52.7908C10.3236 52.1756 10.3882 51.5466 10.6487 50.9037C10.8224 50.4751 11.0398 50.163 11.3011 49.9674C11.5443 49.7757 11.8041 49.7062 12.0805 49.7591C12.3512 49.7852 12.6176 49.9241 12.8796 50.1759C13.2489 50.5305 13.4846 50.9696 13.5869 51.4932C13.6829 52.032 13.6069 52.6076 13.3588 53.2198C13.334 53.2811 13.2968 53.3729 13.2472 53.4954L11.0853 51.4188C10.905 51.9047 10.8604 52.3617 10.9518 52.7897C11.0431 53.2176 11.2377 53.5746 11.5355 53.8607C11.857 54.1696 12.178 54.2759 12.4983 54.1795L12.6268 54.7814C12.2035 54.9277 11.7655 54.7834 11.3129 54.3486ZM12.9602 52.5498C13.109 52.1824 13.1554 51.823 13.0993 51.4714C13.0432 51.1198 12.896 50.8296 12.6578 50.6007C12.4434 50.3948 12.2125 50.3112 11.9651 50.35C11.7178 50.3889 11.4956 50.5901 11.2986 50.9538L12.9602 52.5498ZM17.1244 49.6282L22.6136 36.0814L23.6855 37.1112L18.1964 50.6579L17.1244 49.6282ZM18.7324 51.1727L24.2215 37.626L25.2935 38.6557L19.8044 52.2025L18.7324 51.1727ZM20.8764 53.2322L26.3655 39.6854L27.4375 40.7152L21.9484 54.2619L20.8764 53.2322ZM23.0217 55.293L28.5109 41.7462L29.0469 42.2611L23.5577 55.8078L23.0217 55.293ZM24.6297 56.8375L30.1189 43.2908L30.6549 43.8057L25.1657 57.3524L24.6297 56.8375ZM25.7017 57.8673L31.1909 44.3205L32.2629 45.3502L26.7737 58.897L25.7017 57.8673ZM24.585 61.4196C25.0137 61.8315 25.2824 62.2916 25.3908 62.7998C25.4993 63.308 25.4109 63.9142 25.1256 64.6183L24.2882 66.6848L23.7701 66.1871L24.012 65.5901C23.6473 65.8777 23.2088 65.7755 22.6966 65.2835C22.3631 64.9632 22.1414 64.6119 22.0315 64.2299C21.9215 63.8478 21.9317 63.4961 22.0619 63.1746C22.1736 62.8991 22.3412 62.7305 22.5647 62.6688C22.7764 62.5957 23.0261 62.6123 23.314 62.7187C23.5837 62.8289 23.8615 63.0213 24.1474 63.2959C24.3975 63.5362 24.6176 63.7689 24.8077 63.994C24.9575 63.5425 24.9922 63.1506 24.9118 62.8181C24.8314 62.4857 24.6423 62.1765 24.3445 61.8904C24.1897 61.7417 24.0313 61.6427 23.8692 61.5934C23.6953 61.5326 23.5208 61.5139 23.3459 61.5372L23.2718 60.9238C23.7065 60.831 24.1442 60.9963 24.585 61.4196ZM22.9363 64.8758C23.2698 65.1961 23.5846 65.3177 23.8806 65.2406C24.1704 65.1787 24.4143 64.9239 24.6123 64.4762C24.4284 64.2357 24.2233 64.0068 23.997 63.7894C23.6635 63.4691 23.3645 63.2882 23.1 63.2468C22.8536 63.2015 22.6715 63.3242 22.5536 63.6151C22.38 64.0437 22.5075 64.4639 22.9363 64.8758ZM28.9191 60.9578L34.4082 47.411L34.9442 47.9259L29.4551 61.4726L28.9191 60.9578ZM30.5271 62.5023L36.0162 48.9556L36.5522 49.4705L31.0631 63.0172L30.5271 62.5023ZM33.207 65.0766L38.6962 51.5299L39.7682 52.5596L34.279 66.1063L33.207 65.0766ZM28.9692 71.3087C28.7905 71.1371 28.6455 70.9233 28.534 70.6674C28.4226 70.4116 28.3505 70.1403 28.3177 69.8536L27.9344 70.1871L27.6307 69.8954L29.9287 64.2241L30.4825 64.7562L30.4639 64.8021C30.4215 64.8251 30.3881 64.8462 30.3638 64.8654C30.3333 64.8999 30.2994 64.963 30.2622 65.0549L29.4528 67.0524C29.6468 66.9411 29.852 66.9043 30.0684 66.942C30.2848 66.9798 30.4763 67.0787 30.6431 67.2389C31.0242 67.605 31.2597 68.0651 31.3496 68.6193C31.4332 69.1887 31.3448 69.7949 31.0843 70.4378C30.9044 70.8817 30.6898 71.2072 30.4405 71.4142C30.1911 71.6212 29.9342 71.704 29.6697 71.6626C29.4171 71.6326 29.1836 71.5147 28.9692 71.3087ZM29.1389 70.7062C29.3771 70.935 29.6232 71.0013 29.8773 70.9051C30.1252 70.8243 30.3546 70.5236 30.5654 70.0032C30.7701 69.4981 30.8506 69.0544 30.8069 68.6722C30.7575 68.2632 30.6078 67.9386 30.3576 67.6983C30.1075 67.4581 29.8461 67.409 29.5734 67.5511C29.3069 67.6779 29.0806 67.9709 28.8946 68.4301C28.4976 69.4097 28.579 70.1684 29.1389 70.7062ZM34.8164 66.6225L40.3056 53.0758L40.8415 53.5907L35.3524 67.1374L34.8164 66.6225ZM35.8884 67.6523L41.3775 54.1055L43.5215 56.165L38.0324 69.7117L35.8884 67.6523ZM39.1044 70.7414L44.5935 57.1947L45.1295 57.7096L39.6403 71.2563L39.1044 70.7414ZM34.7593 76.8705C34.2471 76.3786 33.9021 75.76 33.7241 75.0149L34.2247 74.6984L34.2976 74.6408L34.3326 74.7382C34.3264 74.7535 34.3171 74.7765 34.3047 74.8071C34.298 74.8645 34.2944 74.9142 34.2939 74.9562C34.2992 75.0251 34.3044 75.0939 34.3096 75.1627C34.3672 75.3881 34.446 75.602 34.546 75.8044C34.6522 75.9915 34.8006 76.1765 34.9911 76.3596C35.2294 76.5884 35.4416 76.7179 35.628 76.7481C35.8024 76.7668 35.93 76.6766 36.0106 76.4776C36.0788 76.3093 36.0811 76.12 36.0173 75.9099C35.9535 75.6998 35.7944 75.3981 35.5401 75.0049C34.8956 73.9819 34.6788 73.2101 34.8897 72.6897C35.0137 72.3835 35.2111 72.2435 35.4818 72.2696C35.7468 72.269 36.058 72.4403 36.4153 72.7836C36.6893 73.0467 36.8999 73.3234 37.047 73.6136C37.2004 73.8885 37.3111 74.2075 37.3791 74.5705L36.9257 74.7092L36.8621 74.7438L36.845 74.6635C36.8698 74.6023 36.8765 74.5449 36.8651 74.4914C36.8718 74.4341 36.8606 74.3595 36.8315 74.2679C36.7678 74.0577 36.6856 73.8725 36.5851 73.7122C36.4789 73.5251 36.3662 73.3743 36.2471 73.2599C36.0566 73.0769 35.8772 72.9683 35.7089 72.9343C35.5588 72.8964 35.4527 72.954 35.3907 73.1071C35.3287 73.2602 35.3415 73.4532 35.4291 73.6862C35.4986 73.9231 35.6693 74.2572 35.9413 74.6886C36.2604 75.2078 36.4633 75.6259 36.5499 75.943C36.6484 76.2716 36.6388 76.5813 36.5209 76.8721C36.3783 77.2242 36.1532 77.412 35.8458 77.4357C35.5383 77.4594 35.1762 77.271 34.7593 76.8705Z" fill="white"/>
</g>
<path d="M11.3352 24.2402L12.0037 23.8994L47.7709 58.495L47.1169 58.8629L11.3352 24.2402Z" fill="white"/>
<path d="M16.5612 21.4098L17.2297 21.0559L52.9969 55.6646L52.3429 56.0325L16.5612 21.4098Z" fill="white"/>
<path d="M18.5274 20.3349L19.1959 19.9941L54.963 54.6028L54.3091 54.9576L18.5274 20.3349Z" fill="white"/>
<path d="M20.4845 19.2855L21.153 18.9184L56.9201 53.5271L56.2662 53.9081L20.4845 19.2855Z" fill="white"/>
<path d="M25.6883 16.4411L26.3568 16.1003L62.124 50.709L61.47 51.0637L25.6883 16.4411Z" fill="white"/>
<path d="M27.6621 15.3793L28.3306 15.0385L64.0978 49.6472L63.4438 50.002L27.6621 15.3793Z" fill="white"/>
<path d="M27.6621 15.3793L28.3306 15.0385L64.0978 49.6472L63.4438 50.002L27.6621 15.3793Z" fill="white"/>
<path d="M32.8791 12.548L33.5476 12.2072L69.3278 46.8028L68.6608 47.1707L32.8791 12.548Z" fill="white"/>
<path d="M36.1954 10.7916L36.8245 10.4115L72.5917 45.0202L71.977 45.4142L36.1954 10.7916Z" fill="white"/>
<path d="M40.0808 8.66809L40.7493 8.28796L76.5164 42.8967L75.8624 43.2908L40.0808 8.66809Z" fill="white"/>
<path d="M45.3315 5.8237L45.9607 5.45668L81.7279 40.0654L81.1132 40.4464L45.3315 5.8237Z" fill="white"/>
<path d="M41.9945 7.63257L44.6423 6.20381L80.4094 40.8125L77.7762 42.2552L41.9945 7.63257Z" fill="white"/>
<path d="M45.3315 5.8237L45.9607 5.45668L81.7279 40.0654L81.1132 40.4464L45.3315 5.8237Z" fill="white"/>
<path d="M22.4507 18.1975L25.0723 16.795L60.8394 51.4037L58.2324 52.8202L22.4507 18.1975Z" fill="white"/>
<path d="M13.3014 23.1785L16.0409 21.7235L51.677 56.3715L49.0831 57.8012L13.3014 23.1785Z" fill="white"/>
<path d="M28.9391 14.6846L30.2983 13.9908L66.0523 48.5732L64.7208 49.3204L28.9391 14.6846Z" fill="white"/>
<path d="M37.4723 10.0575L38.779 9.35059L74.5462 43.9593L73.254 44.6802L37.4723 10.0575Z" fill="white"/>
<path d="M47.2715 4.76197L47.94 4.42116L83.7071 39.0299L83.0532 39.3847L47.2715 4.76197Z" fill="white"/>
<path d="M47.2715 4.76197L47.94 4.42116L83.7071 39.0299L83.0532 39.3847L47.2715 4.76197Z" fill="white"/>
<path d="M50.1811 3.41824L52.687 2.2303L88.2252 36.6126L85.7189 38.0468L50.1811 3.41824Z" fill="white"/>
<path d="M50.1811 3.41824L52.687 2.2303L88.2252 36.6126L85.7189 38.0468L50.1811 3.41824Z" fill="white"/>
<path d="M53.4173 1.93819L54.1476 1.50002L89.5948 35.9248L88.9409 36.2796L53.4173 1.93819Z" fill="white"/>
<path d="M53.4173 1.93819L54.1476 1.50002L89.5948 35.9248L88.9409 36.2796L53.4173 1.93819Z" fill="white"/>
</mask>
<g mask="url(#mask0_5_427)">
<g style="mix-blend-mode:darken">
<rect width="16.2592" height="50" transform="matrix(0.882948 -0.469472 0.71934 0.694658 -3.3999 31.5829)" fill="white"/>
<rect width="16.2592" height="50.3107" transform="matrix(0.882948 -0.469472 0.71934 0.694658 10.9561 23.9497)" fill="#672F93"/>
<rect width="16.2592" height="50.1843" transform="matrix(0.882948 -0.469472 0.71934 0.694658 25.312 16.3164)" fill="#2F9293"/>
<rect width="16.2592" height="50" transform="matrix(0.882948 -0.469472 0.71934 0.694658 39.6682 8.68323)" fill="#FFBE28"/>
</g>
<g style="mix-blend-mode:darken">
<rect width="23.3456" height="54" transform="matrix(0.358368 -0.93358 0.71934 0.694658 -0.884521 42.9238)" fill="#B63637"/>
</g>
<g style="mix-blend-mode:darken" clip-path="url(#clip1_5_427)">
<rect width="16.2056" height="48" transform="matrix(0.882948 -0.469472 -0.406737 0.913545 47 58.6)" fill="#672F93"/>
<rect width="15.6851" height="48" transform="matrix(0.882948 -0.469472 -0.406737 0.913545 61.3086 50.9919)" fill="#2F9293"/>
<rect width="21.5" height="48" transform="matrix(0.882948 -0.469472 -0.406737 0.913545 75.1577 43.6282)" fill="#FFBE28"/>
</g>
</g>
<defs>
<clipPath id="clip0_5_427">
<rect width="49.1545" height="29.7631" fill="white" transform="matrix(0.721182 0.692746 -0.375542 0.926805 11.6772 22.6336)"/>
</clipPath>
<clipPath id="clip1_5_427">
<rect width="53.3907" height="24.7658" fill="white" transform="matrix(0.882948 -0.469472 -0.406737 0.913545 47 58.6)"/>
</clipPath>
</defs>
</svg>
