<svg width="264" height="179" viewBox="0 0 264 179" fill="none" xmlns="http://www.w3.org/2000/svg">
<g opacity="0.8">
<g clip-path="url(#clip0_137_2361)">
<rect width="23.8329" height="99.3036" transform="translate(0 17.0688)" fill="#672F93"/>
<path d="M11 116.379H-4.62483V115.585H11V116.379ZM11 113.201H-4.62483V112.407H11V113.201ZM11 111.612H-4.62483V110.024H11V111.612ZM11 107.638H-4.62483V106.844H11V107.638ZM11 104.46H-4.62483V102.871H11V104.46ZM11 102.077H-4.62483V101.282H11L11 102.077ZM11 98.8966H-4.62483V98.1022H11V98.8966ZM11 97.3077H-4.62483V96.5132H11V97.3077ZM11 94.1297H-4.62483V92.5408H11V94.1297ZM11 90.1553H-4.62483V89.3608H11V90.1553ZM11 86.9773H-4.62483V86.1828H11V86.9773ZM11 85.3884H-4.62483V83.7994H11V85.3884ZM11 81.4139H-4.62483L-4.62483 79.8249H11V81.4139ZM11 79.0304H-4.62483V76.647H11V79.0304ZM11 75.8525H-4.62483V75.058H11V75.8525ZM11 72.6725H-4.62483V71.0835H11V72.6725ZM11 70.2891H-4.62483V67.9056H11V70.2891ZM11 65.5222H-4.62483V64.7277H11V65.5222ZM11 63.9311H-4.62483V62.3422H11V63.9311ZM11 59.9587H-4.62483V59.1642H11V59.9587ZM11 58.3697H-4.62483V55.9863H11V58.3697ZM11 55.1897H-4.62483V54.3953H11V55.1897ZM11 53.6008H-4.62483V52.8063H11V53.6008ZM11 50.4228H-4.62483V48.8339H11V50.4228ZM11 46.4484H-4.62483V45.6539H11V46.4484ZM11 43.2704H-4.62483V42.476H11V43.2704ZM11 40.0925H-4.62483V38.5035H11V40.0925ZM11 37.707H-4.62483L-4.62483 36.118H11V37.707ZM11 35.3235H-4.62483V32.9401H11V35.3235ZM11 30.5566H-4.62483V29.7622H11V30.5566ZM11 28.9656H-4.62483V28.1711H11V28.9656ZM11 25.7877H-4.62483V23.4042H11V25.7877ZM11 22.6097H-4.62483L-4.62483 21.0208H11V22.6097Z" fill="#F2F2F2"/>
<path d="M26.4492 116.379H10.8244V115.585H26.4492V116.379ZM26.4492 113.201H10.8244V112.407H26.4492V113.201ZM26.4492 111.612H10.8244V110.024H26.4492V111.612ZM26.4492 107.638H10.8244V106.844H26.4492V107.638ZM26.4492 104.46H10.8244V102.871H26.4492V104.46ZM26.4492 102.077H10.8244V101.282H26.4492V102.077ZM26.4492 98.8966H10.8244V98.1022H26.4492V98.8966ZM26.4492 97.3077H10.8244V96.5132H26.4492V97.3077ZM26.4492 94.1297H10.8244V92.5408H26.4492V94.1297ZM26.4492 90.1553H10.8244V89.3608H26.4492V90.1553ZM26.4492 86.9773H10.8244V86.1828H26.4492V86.9773ZM26.4492 85.3884H10.8244V83.7994H26.4492V85.3884ZM26.4492 81.4139H10.8244L10.8244 79.8249H26.4492V81.4139ZM26.4492 79.0304H10.8244V76.647H26.4492V79.0304ZM26.4492 75.8525H10.8244V75.058H26.4492V75.8525ZM26.4492 72.6725H10.8244V71.0835H26.4492V72.6725ZM26.4492 70.2891H10.8244V67.9056H26.4492V70.2891ZM26.4492 65.5222H10.8244V64.7277H26.4492V65.5222ZM26.4492 63.9311H10.8244V62.3422H26.4492V63.9311ZM26.4492 59.9587H10.8244V59.1642H26.4492V59.9587ZM26.4492 58.3697H10.8244V55.9863H26.4492V58.3697ZM26.4492 55.1897H10.8244V54.3953H26.4492V55.1897ZM26.4492 53.6008H10.8244V52.8063H26.4492V53.6008ZM26.4492 50.4228H10.8244V48.8339H26.4492V50.4228ZM26.4492 46.4484H10.8244V45.6539H26.4492V46.4484ZM26.4492 43.2704H10.8244V42.476H26.4492V43.2704ZM26.4492 40.0925H10.8244V38.5035H26.4492V40.0925ZM26.4492 37.707H10.8244L10.8244 36.118H26.4492V37.707ZM26.4492 35.3235H10.8244V32.9401H26.4492V35.3235ZM26.4492 30.5566H10.8244V29.7622H26.4492V30.5566ZM26.4492 28.9656H10.8244V28.1711H26.4492V28.9656ZM26.4492 25.7877H10.8244V23.4042H26.4492V25.7877ZM26.4492 22.6097H10.8244L10.8244 21.0208H26.4492V22.6097Z" fill="#F2F2F2"/>
</g>
<g clip-path="url(#clip1_137_2361)">
<rect width="24.2759" height="133.517" transform="translate(47.4473 34.7241)" fill="#B63637"/>
<path d="M58.4473 129.621H42.8224V128.826H58.4473V129.621ZM58.4473 126.443H42.8224V125.648H58.4473V126.443ZM58.4473 124.854H42.8224V123.265H58.4473V124.854ZM58.4473 120.879H42.8224V120.085H58.4473V120.879ZM58.4473 117.701H42.8224V116.112H58.4473V117.701ZM58.4473 115.318H42.8224V114.523H58.4473V115.318ZM58.4473 112.138H42.8224V111.343H58.4473V112.138ZM58.4473 110.549H42.8224V109.754H58.4473V110.549ZM58.4473 107.371H42.8224V105.782H58.4473V107.371ZM58.4473 103.396H42.8224V102.602H58.4473V103.396ZM58.4473 100.219H42.8224V99.4241H58.4473V100.219ZM58.4473 98.6296H42.8224V97.0406H58.4473V98.6296ZM58.4473 94.6551H42.8224V93.0661H58.4473V94.6551ZM58.4473 92.2716H42.8224V89.8882H58.4473V92.2716ZM58.4473 89.0937H42.8224V88.2992H58.4473V89.0937ZM58.4473 85.9137H42.8224V84.3247H58.4473V85.9137ZM58.4473 83.5303H42.8224V81.1468H58.4473V83.5303ZM58.4473 78.7634H42.8224V77.9689H58.4473V78.7634ZM58.4473 77.1723H42.8224V75.5834H58.4473V77.1723ZM58.4473 73.1999H42.8224V72.4054H58.4473V73.1999ZM58.4473 71.611H42.8224V69.2275H58.4473V71.611ZM58.4473 68.431H42.8224V67.6365H58.4473V68.431ZM58.4473 66.842H42.8224V66.0475H58.4473V66.842ZM58.4473 63.6641H42.8224V62.0751H58.4473V63.6641ZM58.4473 59.6896H42.8224V58.8951H58.4473V59.6896ZM58.4473 56.5116H42.8224V55.7172H58.4473V56.5116ZM58.4473 53.3337H42.8224V51.7447H58.4473V53.3337ZM58.4473 50.9482H42.8224V49.3592H58.4473V50.9482ZM58.4473 48.5647H42.8224V46.1813H58.4473V48.5647ZM58.4473 43.7979H42.8224V43.0034H58.4473V43.7979ZM58.4473 42.2068H42.8224V41.4123H58.4473V42.2068ZM58.4473 39.0289H42.8224V36.6454H58.4473V39.0289ZM58.4473 35.851H42.8224V34.262H58.4473V35.851Z" fill="#F2F2F2"/>
<path d="M73.8945 129.621H58.2697V128.826H73.8945V129.621ZM73.8945 126.443H58.2697V125.648H73.8945V126.443ZM73.8945 124.854H58.2697V123.265H73.8945V124.854ZM73.8945 120.879H58.2697V120.085H73.8945V120.879ZM73.8945 117.701H58.2697V116.112H73.8945V117.701ZM73.8945 115.318H58.2697V114.523H73.8945V115.318ZM73.8945 112.138H58.2697V111.343H73.8945V112.138ZM73.8945 110.549H58.2697V109.754H73.8945V110.549ZM73.8945 107.371H58.2697V105.782H73.8945V107.371ZM73.8945 103.396H58.2697V102.602H73.8945V103.396ZM73.8945 100.219H58.2697V99.4241H73.8945V100.219ZM73.8945 98.6296H58.2697V97.0406H73.8945V98.6296ZM73.8945 94.6551H58.2697V93.0661H73.8945V94.6551ZM73.8945 92.2716H58.2697V89.8882H73.8945V92.2716ZM73.8945 89.0937H58.2697V88.2992H73.8945V89.0937ZM73.8945 85.9137H58.2697V84.3247H73.8945V85.9137ZM73.8945 83.5303H58.2697V81.1468H73.8945V83.5303ZM73.8945 78.7634H58.2697V77.9689H73.8945V78.7634ZM73.8945 77.1723H58.2697V75.5834H73.8945V77.1723ZM73.8945 73.1999H58.2697V72.4054H73.8945V73.1999ZM73.8945 71.611H58.2697V69.2275H73.8945V71.611ZM73.8945 68.431H58.2697V67.6365H73.8945V68.431ZM73.8945 66.842H58.2697V66.0475H73.8945V66.842ZM73.8945 63.6641H58.2697V62.0751H73.8945V63.6641ZM73.8945 59.6896H58.2697V58.8951H73.8945V59.6896ZM73.8945 56.5116H58.2697V55.7172H73.8945V56.5116ZM73.8945 53.3337H58.2697V51.7447H73.8945V53.3337ZM73.8945 50.9482H58.2697V49.3592H73.8945V50.9482ZM73.8945 48.5647H58.2697V46.1813H73.8945V48.5647ZM73.8945 43.7979H58.2697V43.0034H73.8945V43.7979ZM73.8945 42.2068H58.2697V41.4123H73.8945V42.2068ZM73.8945 39.0289H58.2697V36.6454H73.8945V39.0289ZM73.8945 35.851H58.2697V34.262H73.8945V35.851Z" fill="#F2F2F2"/>
<path d="M58.4473 226.724H42.8224V225.93H58.4473V226.724ZM58.4473 223.546H42.8224V222.752H58.4473V223.546ZM58.4473 221.957H42.8224V220.368H58.4473V221.957ZM58.4473 217.983H42.8224V217.188H58.4473V217.983ZM58.4473 214.805H42.8224V213.216H58.4473V214.805ZM58.4473 212.421H42.8224V211.627H58.4473V212.421ZM58.4473 209.241H42.8224V208.447H58.4473V209.241ZM58.4473 207.652H42.8224V206.858H58.4473V207.652ZM58.4473 204.474H42.8224V202.886H58.4473V204.474ZM58.4473 200.5H42.8224V199.706H58.4473V200.5ZM58.4473 197.322H42.8224V196.528H58.4473V197.322ZM58.4473 195.733H42.8224V194.144H58.4473V195.733ZM58.4473 191.759H42.8224V190.17H58.4473V191.759ZM58.4473 189.375H42.8224V186.992H58.4473V189.375ZM58.4473 186.197H42.8224V185.403H58.4473V186.197ZM58.4473 183.017H42.8224V181.428H58.4473V183.017ZM58.4473 180.634H42.8224V178.25H58.4473V180.634ZM58.4473 175.867H42.8224V175.072H58.4473V175.867ZM58.4473 174.276H42.8224V172.687H58.4473V174.276ZM58.4473 170.303H42.8224V169.509H58.4473V170.303ZM58.4473 168.714H42.8224V166.331H58.4473V168.714ZM58.4473 165.534H42.8224V164.74H58.4473V165.534ZM58.4473 163.946H42.8224V163.151H58.4473V163.946ZM58.4473 160.768H42.8224V159.179H58.4473V160.768ZM58.4473 156.793H42.8224V155.999H58.4473V156.793ZM58.4473 153.615H42.8224V152.821H58.4473V153.615ZM58.4473 150.437H42.8224V148.848H58.4473V150.437ZM58.4473 148.052H42.8224V146.463H58.4473V148.052ZM58.4473 145.668H42.8224V143.285H58.4473V145.668ZM58.4473 140.901H42.8224V140.107H58.4473V140.901ZM58.4473 139.31H42.8224V138.516H58.4473V139.31ZM58.4473 136.132H42.8224V133.749H58.4473V136.132ZM58.4473 132.954H42.8224V131.366H58.4473V132.954Z" fill="#F2F2F2"/>
<path d="M73.8945 226.724H58.2697V225.93H73.8945V226.724ZM73.8945 223.546H58.2697V222.752H73.8945V223.546ZM73.8945 221.957H58.2697V220.368H73.8945V221.957ZM73.8945 217.983H58.2697V217.188H73.8945V217.983ZM73.8945 214.805H58.2697V213.216H73.8945V214.805ZM73.8945 212.421H58.2697V211.627H73.8945V212.421ZM73.8945 209.241H58.2697V208.447H73.8945V209.241ZM73.8945 207.652H58.2697V206.858H73.8945V207.652ZM73.8945 204.474H58.2697V202.886H73.8945V204.474ZM73.8945 200.5H58.2697V199.706H73.8945V200.5ZM73.8945 197.322H58.2697V196.528H73.8945V197.322ZM73.8945 195.733H58.2697V194.144H73.8945V195.733ZM73.8945 191.759H58.2697V190.17H73.8945V191.759ZM73.8945 189.375H58.2697V186.992H73.8945V189.375ZM73.8945 186.197H58.2697V185.403H73.8945V186.197ZM73.8945 183.017H58.2697V181.428H73.8945V183.017ZM73.8945 180.634H58.2697V178.25H73.8945V180.634ZM73.8945 175.867H58.2697V175.072H73.8945V175.867ZM73.8945 174.276H58.2697V172.687H73.8945V174.276ZM73.8945 170.303H58.2697V169.509H73.8945V170.303ZM73.8945 168.714H58.2697V166.331H73.8945V168.714ZM73.8945 165.534H58.2697V164.74H73.8945V165.534ZM73.8945 163.946H58.2697V163.151H73.8945V163.946ZM73.8945 160.768H58.2697V159.179H73.8945V160.768ZM73.8945 156.793H58.2697V155.999H73.8945V156.793ZM73.8945 153.615H58.2697V152.821H73.8945V153.615ZM73.8945 150.437H58.2697V148.848H73.8945V150.437ZM73.8945 148.052H58.2697V146.463H73.8945V148.052ZM73.8945 145.668H58.2697V143.285H73.8945V145.668ZM73.8945 140.901H58.2697V140.107H73.8945V140.901ZM73.8945 139.31H58.2697V138.516H73.8945V139.31ZM73.8945 136.132H58.2697V133.749H73.8945V136.132ZM73.8945 132.954H58.2697V131.366H73.8945V132.954Z" fill="#F2F2F2"/>
</g>
<g clip-path="url(#clip2_137_2361)">
<rect width="23.9497" height="99.3036" transform="translate(23.832 25.8965)" fill="#2F9293"/>
<path d="M35.2754 124.986H19.6506V124.191H35.2754V124.986ZM35.2754 121.808H19.6506V121.013H35.2754V121.808ZM35.2754 120.219H19.6506V118.63H35.2754V120.219ZM35.2754 116.244H19.6506V115.45H35.2754V116.244ZM35.2754 113.067H19.6506V111.478H35.2754V113.067ZM35.2754 110.683H19.6506V109.889H35.2754V110.683ZM35.2754 107.503H19.6506V106.709H35.2754V107.503ZM35.2754 105.914H19.6506V105.12H35.2754V105.914ZM35.2754 102.736H19.6506V101.147H35.2754V102.736ZM35.2754 98.7617H19.6506V97.9672H35.2754V98.7617ZM35.2754 95.5838H19.6506V94.7893H35.2754V95.5838ZM35.2754 93.9948H19.6506V92.4058H35.2754V93.9948ZM35.2754 90.0203H19.6506L19.6506 88.4314H35.2754V90.0203ZM35.2754 87.6369H19.6506V85.2534H35.2754V87.6369ZM35.2754 84.4589H19.6506V83.6645H35.2754V84.4589ZM35.2754 81.2789H19.6506V79.69H35.2754V81.2789ZM35.2754 78.8955H19.6506V76.512H35.2754V78.8955ZM35.2754 74.1286H19.6506V73.3341H35.2754V74.1286ZM35.2754 72.5376H19.6506V70.9486H35.2754V72.5376ZM35.2754 68.5652H19.6506V67.7707H35.2754V68.5652ZM35.2754 66.9762H19.6506V64.5927H35.2754V66.9762ZM35.2754 63.7962H19.6506V63.0017H35.2754V63.7962ZM35.2754 62.2072H19.6506V61.4127H35.2754V62.2072ZM35.2754 59.0293H19.6506V57.4403H35.2754V59.0293ZM35.2754 55.0548H19.6506V54.2603H35.2754V55.0548ZM35.2754 51.8769H19.6506V51.0824H35.2754V51.8769ZM35.2754 48.6989H19.6506V47.11H35.2754V48.6989ZM35.2754 46.3134H19.6506L19.6506 44.7245H35.2754V46.3134ZM35.2754 43.93H19.6506V41.5465H35.2754V43.93ZM35.2754 39.1631H19.6506V38.3686H35.2754V39.1631ZM35.2754 37.5721H19.6506V36.7776H35.2754V37.5721ZM35.2754 34.3941H19.6506V32.0107H35.2754V34.3941ZM35.2754 31.2162H19.6506V29.6272H35.2754V31.2162Z" fill="#F2F2F2"/>
<path d="M50.7227 124.986H35.0978V124.191H50.7227V124.986ZM50.7227 121.808H35.0978V121.013H50.7227V121.808ZM50.7227 120.219H35.0978V118.63H50.7227V120.219ZM50.7227 116.244H35.0978V115.45H50.7227V116.244ZM50.7227 113.067H35.0978V111.478H50.7227V113.067ZM50.7227 110.683H35.0978V109.889H50.7227V110.683ZM50.7227 107.503H35.0978V106.709H50.7227V107.503ZM50.7227 105.914H35.0978V105.12H50.7227V105.914ZM50.7227 102.736H35.0978V101.147H50.7227V102.736ZM50.7227 98.7617H35.0978V97.9672H50.7227V98.7617ZM50.7227 95.5838H35.0978V94.7893H50.7227V95.5838ZM50.7227 93.9948H35.0978V92.4058H50.7227V93.9948ZM50.7227 90.0203H35.0978V88.4314H50.7227V90.0203ZM50.7227 87.6369H35.0978V85.2534H50.7227V87.6369ZM50.7227 84.4589H35.0978V83.6645H50.7227V84.4589ZM50.7227 81.2789H35.0978V79.69H50.7227V81.2789ZM50.7227 78.8955H35.0978V76.512H50.7227V78.8955ZM50.7227 74.1286H35.0978V73.3341H50.7227V74.1286ZM50.7227 72.5376H35.0978V70.9486H50.7227V72.5376ZM50.7227 68.5652H35.0978V67.7707H50.7227V68.5652ZM50.7227 66.9762H35.0978V64.5927H50.7227V66.9762ZM50.7227 63.7962H35.0978V63.0017H50.7227V63.7962ZM50.7227 62.2072H35.0978V61.4127H50.7227V62.2072ZM50.7227 59.0293H35.0978V57.4403H50.7227V59.0293ZM50.7227 55.0548H35.0978V54.2603H50.7227V55.0548ZM50.7227 51.8769H35.0978V51.0824H50.7227V51.8769ZM50.7227 48.6989H35.0978V47.11H50.7227V48.6989ZM50.7227 46.3134H35.0978V44.7245H50.7227V46.3134ZM50.7227 43.93H35.0978V41.5465H50.7227V43.93ZM50.7227 39.1631H35.0978V38.3686H50.7227V39.1631ZM50.7227 37.5721H35.0978V36.7776H50.7227V37.5721ZM50.7227 34.3941H35.0978V32.0107H50.7227V34.3941ZM50.7227 31.2162H35.0978V29.6272H50.7227V31.2162Z" fill="#F2F2F2"/>
</g>
<g clip-path="url(#clip3_137_2361)">
<rect width="23.8329" height="71.3409" transform="translate(71.6152 17.0688)" fill="#B68617"/>
<path d="M82.7246 111.965H67.0998V111.171H82.7246V111.965ZM82.7246 108.787H67.0998V107.993H82.7246V108.787ZM82.7246 107.198H67.0998V105.609H82.7246V107.198ZM82.7246 103.224H67.0998V102.429H82.7246V103.224ZM82.7246 100.046H67.0998V98.4571H82.7246V100.046ZM82.7246 97.6626H67.0998V96.8681H82.7246V97.6626ZM82.7246 94.4826H67.0998V93.6881H82.7246V94.4826ZM82.7246 92.8936H67.0998V92.0991H82.7246V92.8936ZM82.7246 89.7157H67.0998V88.1267H82.7246V89.7157ZM82.7246 85.7412H67.0998V84.9467H82.7246V85.7412ZM82.7246 82.5633H67.0998V81.7688H82.7246V82.5633ZM82.7246 80.9743H67.0998V79.3853H82.7246V80.9743ZM82.7246 76.9998H67.0998V75.4109H82.7246V76.9998ZM82.7246 74.6164H67.0998V72.2329H82.7246V74.6164ZM82.7246 71.4384H67.0998V70.644H82.7246V71.4384ZM82.7246 68.2584H67.0998V66.6695H82.7246V68.2584ZM82.7246 65.875H67.0998V63.4915H82.7246V65.875ZM82.7246 61.1081H67.0998V60.3136H82.7246V61.1081ZM82.7246 59.5171H67.0998V57.9281H82.7246V59.5171ZM82.7246 55.5446H67.0998V54.7502H82.7246V55.5446ZM82.7246 53.9557H67.0998V51.5722H82.7246V53.9557ZM82.7246 50.7757H67.0998V49.9812H82.7246V50.7757ZM82.7246 49.1867H67.0998V48.3922H82.7246V49.1867ZM82.7246 46.0088H67.0998V44.4198H82.7246V46.0088ZM82.7246 42.0343H67.0998V41.2398H82.7246V42.0343ZM82.7246 38.8564H67.0998V38.0619H82.7246V38.8564ZM82.7246 35.6784H67.0998V34.0895H82.7246V35.6784ZM82.7246 33.2929H67.0998V31.704H82.7246V33.2929ZM82.7246 30.9095H67.0998V28.526H82.7246V30.9095ZM82.7246 26.1426H67.0998V25.3481H82.7246V26.1426ZM82.7246 24.5515H67.0998V23.7571H82.7246V24.5515ZM82.7246 21.3736H67.0998V18.9902H82.7246V21.3736ZM82.7246 18.1957H67.0998V16.6067H82.7246V18.1957Z" fill="#F2F2F2"/>
<path d="M98.1719 111.965H82.547V111.171H98.1719V111.965ZM98.1719 108.787H82.547V107.993H98.1719V108.787ZM98.1719 107.198H82.547V105.609H98.1719V107.198ZM98.1719 103.224H82.547V102.429H98.1719V103.224ZM98.1719 100.046H82.547V98.4571H98.1719V100.046ZM98.1719 97.6626H82.547V96.8681H98.1719V97.6626ZM98.1719 94.4826H82.547V93.6881H98.1719V94.4826ZM98.1719 92.8936H82.547V92.0991H98.1719V92.8936ZM98.1719 89.7157H82.547V88.1267H98.1719V89.7157ZM98.1719 85.7412H82.547V84.9467H98.1719V85.7412ZM98.1719 82.5633H82.547V81.7688H98.1719V82.5633ZM98.1719 80.9743H82.547V79.3853H98.1719V80.9743ZM98.1719 76.9998H82.547V75.4109H98.1719V76.9998ZM98.1719 74.6164H82.547V72.2329H98.1719V74.6164ZM98.1719 71.4384H82.547V70.644H98.1719V71.4384ZM98.1719 68.2584H82.547V66.6695H98.1719V68.2584ZM98.1719 65.875H82.547V63.4915H98.1719V65.875ZM98.1719 61.1081H82.547V60.3136H98.1719V61.1081ZM98.1719 59.5171H82.547V57.9281H98.1719V59.5171ZM98.1719 55.5446H82.547V54.7502H98.1719V55.5446ZM98.1719 53.9557H82.547V51.5722H98.1719V53.9557ZM98.1719 50.7757H82.547V49.9812H98.1719V50.7757ZM98.1719 49.1867H82.547V48.3922H98.1719V49.1867ZM98.1719 46.0088H82.547V44.4198H98.1719V46.0088ZM98.1719 42.0343H82.547V41.2398H98.1719V42.0343ZM98.1719 38.8564H82.547V38.0619H98.1719V38.8564ZM98.1719 35.6784H82.547V34.0895H98.1719V35.6784ZM98.1719 33.2929H82.547V31.704H98.1719V33.2929ZM98.1719 30.9095H82.547V28.526H98.1719V30.9095ZM98.1719 26.1426H82.547V25.3481H98.1719V26.1426ZM98.1719 24.5515H82.547V23.7571H98.1719V24.5515ZM98.1719 21.3736H82.547V18.9902H98.1719V21.3736ZM98.1719 18.1957H82.547V16.6067H98.1719V18.1957Z" fill="#F2F2F2"/>
</g>
<g clip-path="url(#clip4_137_2361)">
<rect width="23.8329" height="99.3036" transform="translate(190.896 17.0688)" fill="#672F93"/>
<path d="M201.896 116.379H186.272V115.585H201.896V116.379ZM201.896 113.201H186.272V112.407H201.896V113.201ZM201.896 111.612H186.272V110.024H201.896V111.612ZM201.896 107.638H186.272V106.844H201.896V107.638ZM201.896 104.46H186.272V102.871H201.896V104.46ZM201.896 102.077H186.272V101.282H201.896V102.077ZM201.896 98.8966H186.272V98.1022H201.896V98.8966ZM201.896 97.3077H186.272V96.5132H201.896V97.3077ZM201.896 94.1297H186.272V92.5408H201.896V94.1297ZM201.896 90.1553H186.272V89.3608H201.896V90.1553ZM201.896 86.9773H186.272V86.1828H201.896V86.9773ZM201.896 85.3884H186.272V83.7994H201.896V85.3884ZM201.896 81.4139H186.272V79.8249H201.896V81.4139ZM201.896 79.0304H186.272V76.647H201.896V79.0304ZM201.896 75.8525H186.272V75.058H201.896V75.8525ZM201.896 72.6725H186.272V71.0835H201.896V72.6725ZM201.896 70.2891H186.272V67.9056H201.896V70.2891ZM201.896 65.5222H186.272V64.7277H201.896V65.5222ZM201.896 63.9311H186.272V62.3422H201.896V63.9311ZM201.896 59.9587H186.272V59.1642H201.896V59.9587ZM201.896 58.3697H186.272V55.9863H201.896V58.3697ZM201.896 55.1897H186.272V54.3953H201.896V55.1897ZM201.896 53.6008H186.272V52.8063H201.896V53.6008ZM201.896 50.4228H186.272V48.8339H201.896V50.4228ZM201.896 46.4484H186.272V45.6539H201.896V46.4484ZM201.896 43.2704H186.272V42.476H201.896V43.2704ZM201.896 40.0925H186.272V38.5035H201.896V40.0925ZM201.896 37.707H186.272V36.118H201.896V37.707ZM201.896 35.3235H186.272V32.9401H201.896V35.3235ZM201.896 30.5566H186.272V29.7622H201.896V30.5566ZM201.896 28.9656H186.272V28.1711H201.896V28.9656ZM201.896 25.7877H186.272V23.4042H201.896V25.7877ZM201.896 22.6097H186.272V21.0208H201.896V22.6097Z" fill="#F2F2F2"/>
<path d="M217.346 116.379H201.721V115.585H217.346V116.379ZM217.346 113.201H201.721V112.407H217.346V113.201ZM217.346 111.612H201.721V110.024H217.346V111.612ZM217.346 107.638H201.721V106.844H217.346V107.638ZM217.346 104.46H201.721V102.871H217.346V104.46ZM217.346 102.077H201.721V101.282H217.346V102.077ZM217.346 98.8966H201.721V98.1022H217.346V98.8966ZM217.346 97.3077H201.721V96.5132H217.346V97.3077ZM217.346 94.1297H201.721V92.5408H217.346V94.1297ZM217.346 90.1553H201.721V89.3608H217.346V90.1553ZM217.346 86.9773H201.721V86.1828H217.346V86.9773ZM217.346 85.3884H201.721V83.7994H217.346V85.3884ZM217.346 81.4139H201.721V79.8249H217.346V81.4139ZM217.346 79.0304H201.721V76.647H217.346V79.0304ZM217.346 75.8525H201.721V75.058H217.346V75.8525ZM217.346 72.6725H201.721V71.0835H217.346V72.6725ZM217.346 70.2891H201.721V67.9056H217.346V70.2891ZM217.346 65.5222H201.721V64.7277H217.346V65.5222ZM217.346 63.9311H201.721V62.3422H217.346V63.9311ZM217.346 59.9587H201.721V59.1642H217.346V59.9587ZM217.346 58.3697H201.721V55.9863H217.346V58.3697ZM217.346 55.1897H201.721V54.3953H217.346V55.1897ZM217.346 53.6008H201.721V52.8063H217.346V53.6008ZM217.346 50.4228H201.721V48.8339H217.346V50.4228ZM217.346 46.4484H201.721V45.6539H217.346V46.4484ZM217.346 43.2704H201.721V42.476H217.346V43.2704ZM217.346 40.0925H201.721V38.5035H217.346V40.0925ZM217.346 37.707H201.721V36.118H217.346V37.707ZM217.346 35.3235H201.721V32.9401H217.346V35.3235ZM217.346 30.5566H201.721V29.7622H217.346V30.5566ZM217.346 28.9656H201.721V28.1711H217.346V28.9656ZM217.346 25.7877H201.721V23.4042H217.346V25.7877ZM217.346 22.6097H201.721V21.0208H217.346V22.6097Z" fill="#F2F2F2"/>
</g>
<g clip-path="url(#clip5_137_2361)">
<rect width="24.2759" height="133.517" transform="translate(238.787 34.7241)" fill="#B63637"/>
<path d="M249.787 129.621H234.162V128.826H249.787V129.621ZM249.787 126.443H234.162V125.648H249.787V126.443ZM249.787 124.854H234.162V123.265H249.787V124.854ZM249.787 120.879H234.162V120.085H249.787V120.879ZM249.787 117.701H234.162V116.112H249.787V117.701ZM249.787 115.318H234.162V114.523H249.787V115.318ZM249.787 112.138H234.162V111.343H249.787V112.138ZM249.787 110.549H234.162V109.754H249.787V110.549ZM249.787 107.371H234.162V105.782H249.787V107.371ZM249.787 103.396H234.162V102.602H249.787V103.396ZM249.787 100.219H234.162V99.4241H249.787V100.219ZM249.787 98.6296H234.162V97.0406H249.787V98.6296ZM249.787 94.6551H234.162V93.0661H249.787V94.6551ZM249.787 92.2716H234.162V89.8882H249.787V92.2716ZM249.787 89.0937H234.162V88.2992H249.787V89.0937ZM249.787 85.9137H234.162V84.3247H249.787V85.9137ZM249.787 83.5303H234.162V81.1468H249.787V83.5303ZM249.787 78.7634H234.162V77.9689H249.787V78.7634ZM249.787 77.1723H234.162V75.5834H249.787V77.1723ZM249.787 73.1999H234.162V72.4054H249.787V73.1999ZM249.787 71.611H234.162V69.2275H249.787V71.611ZM249.787 68.431H234.162V67.6365H249.787V68.431ZM249.787 66.842H234.162V66.0475H249.787V66.842ZM249.787 63.6641H234.162V62.0751H249.787V63.6641ZM249.787 59.6896H234.162V58.8951H249.787V59.6896ZM249.787 56.5116H234.162V55.7172H249.787V56.5116ZM249.787 53.3337H234.162V51.7447H249.787V53.3337ZM249.787 50.9482H234.162V49.3592H249.787V50.9482ZM249.787 48.5647H234.162V46.1813H249.787V48.5647ZM249.787 43.7979H234.162V43.0034H249.787V43.7979ZM249.787 42.2068H234.162V41.4123H249.787V42.2068ZM249.787 39.0289H234.162V36.6454H249.787V39.0289ZM249.787 35.851H234.162V34.262H249.787V35.851Z" fill="#F2F2F2"/>
<path d="M265.236 129.621H249.612V128.826H265.236V129.621ZM265.236 126.443H249.612V125.648H265.236V126.443ZM265.236 124.854H249.612V123.265H265.236V124.854ZM265.236 120.879H249.612V120.085H265.236V120.879ZM265.236 117.701H249.612V116.112H265.236V117.701ZM265.236 115.318H249.612V114.523H265.236V115.318ZM265.236 112.138H249.612V111.343H265.236V112.138ZM265.236 110.549H249.612V109.754H265.236V110.549ZM265.236 107.371H249.612V105.782H265.236V107.371ZM265.236 103.396H249.612V102.602H265.236V103.396ZM265.236 100.219H249.612V99.4241H265.236V100.219ZM265.236 98.6296H249.612V97.0406H265.236V98.6296ZM265.236 94.6551H249.612V93.0661H265.236V94.6551ZM265.236 92.2716H249.612V89.8882H265.236V92.2716ZM265.236 89.0937H249.612V88.2992H265.236V89.0937ZM265.236 85.9137H249.612V84.3247H265.236V85.9137ZM265.236 83.5303H249.612V81.1468H265.236V83.5303ZM265.236 78.7634H249.612V77.9689H265.236V78.7634ZM265.236 77.1723H249.612V75.5834H265.236V77.1723ZM265.236 73.1999H249.612V72.4054H265.236V73.1999ZM265.236 71.611H249.612V69.2275H265.236V71.611ZM265.236 68.431H249.612V67.6365H265.236V68.431ZM265.236 66.842H249.612V66.0475H265.236V66.842ZM265.236 63.6641H249.612V62.0751H265.236V63.6641ZM265.236 59.6896H249.612V58.8951H265.236V59.6896ZM265.236 56.5116H249.612V55.7172H265.236V56.5116ZM265.236 53.3337H249.612V51.7447H265.236V53.3337ZM265.236 50.9482H249.612V49.3592H265.236V50.9482ZM265.236 48.5647H249.612V46.1813H265.236V48.5647ZM265.236 43.7979H249.612V43.0034H265.236V43.7979ZM265.236 42.2068H249.612V41.4123H265.236V42.2068ZM265.236 39.0289H249.612V36.6454H265.236V39.0289ZM265.236 35.851H249.612V34.262H265.236V35.851Z" fill="#F2F2F2"/>
<path d="M249.787 226.724H234.162V225.93H249.787V226.724ZM249.787 223.546H234.162V222.752H249.787V223.546ZM249.787 221.957H234.162V220.368H249.787V221.957ZM249.787 217.983H234.162V217.188H249.787V217.983ZM249.787 214.805H234.162V213.216H249.787V214.805ZM249.787 212.421H234.162V211.627H249.787V212.421ZM249.787 209.241H234.162V208.447H249.787V209.241ZM249.787 207.652H234.162V206.858H249.787V207.652ZM249.787 204.474H234.162V202.886H249.787V204.474ZM249.787 200.5H234.162V199.706H249.787V200.5ZM249.787 197.322H234.162V196.528H249.787V197.322ZM249.787 195.733H234.162V194.144H249.787V195.733ZM249.787 191.759H234.162V190.17H249.787V191.759ZM249.787 189.375H234.162V186.992H249.787V189.375ZM249.787 186.197H234.162V185.403H249.787V186.197ZM249.787 183.017H234.162V181.428H249.787V183.017ZM249.787 180.634H234.162V178.25H249.787V180.634ZM249.787 175.867H234.162V175.072H249.787V175.867ZM249.787 174.276H234.162V172.687H249.787V174.276ZM249.787 170.303H234.162V169.509H249.787V170.303ZM249.787 168.714H234.162V166.331H249.787V168.714ZM249.787 165.534H234.162V164.74H249.787V165.534ZM249.787 163.946H234.162V163.151H249.787V163.946ZM249.787 160.768H234.162V159.179H249.787V160.768ZM249.787 156.793H234.162V155.999H249.787V156.793ZM249.787 153.615H234.162V152.821H249.787V153.615ZM249.787 150.437H234.162V148.848H249.787V150.437ZM249.787 148.052H234.162V146.463H249.787V148.052ZM249.787 145.668H234.162V143.285H249.787V145.668ZM249.787 140.901H234.162V140.107H249.787V140.901ZM249.787 139.31H234.162V138.516H249.787V139.31ZM249.787 136.132H234.162V133.749H249.787V136.132ZM249.787 132.954H234.162V131.366H249.787V132.954Z" fill="#F2F2F2"/>
<path d="M265.236 226.724H249.612V225.93H265.236V226.724ZM265.236 223.546H249.612V222.752H265.236V223.546ZM265.236 221.957H249.612V220.368H265.236V221.957ZM265.236 217.983H249.612V217.188H265.236V217.983ZM265.236 214.805H249.612V213.216H265.236V214.805ZM265.236 212.421H249.612V211.627H265.236V212.421ZM265.236 209.241H249.612V208.447H265.236V209.241ZM265.236 207.652H249.612V206.858H265.236V207.652ZM265.236 204.474H249.612V202.886H265.236V204.474ZM265.236 200.5H249.612V199.706H265.236V200.5ZM265.236 197.322H249.612V196.528H265.236V197.322ZM265.236 195.733H249.612V194.144H265.236V195.733ZM265.236 191.759H249.612V190.17H265.236V191.759ZM265.236 189.375H249.612V186.992H265.236V189.375ZM265.236 186.197H249.612V185.403H265.236V186.197ZM265.236 183.017H249.612V181.428H265.236V183.017ZM265.236 180.634H249.612V178.25H265.236V180.634ZM265.236 175.867H249.612V175.072H265.236V175.867ZM265.236 174.276H249.612V172.687H265.236V174.276ZM265.236 170.303H249.612V169.509H265.236V170.303ZM265.236 168.714H249.612V166.331H265.236V168.714ZM265.236 165.534H249.612V164.74H265.236V165.534ZM265.236 163.946H249.612V163.151H265.236V163.946ZM265.236 160.768H249.612V159.179H265.236V160.768ZM265.236 156.793H249.612V155.999H265.236V156.793ZM265.236 153.615H249.612V152.821H265.236V153.615ZM265.236 150.437H249.612V148.848H265.236V150.437ZM265.236 148.052H249.612V146.463H265.236V148.052ZM265.236 145.668H249.612V143.285H265.236V145.668ZM265.236 140.901H249.612V140.107H265.236V140.901ZM265.236 139.31H249.612V138.516H265.236V139.31ZM265.236 136.132H249.612V133.749H265.236V136.132ZM265.236 132.954H249.612V131.366H265.236V132.954Z" fill="#F2F2F2"/>
</g>
<g clip-path="url(#clip6_137_2361)">
<rect width="23.9497" height="99.3036" transform="translate(214.73 25.8965)" fill="#2F9293"/>
<path d="M226.174 124.986H210.549V124.191H226.174V124.986ZM226.174 121.808H210.549V121.013H226.174V121.808ZM226.174 120.219H210.549V118.63H226.174V120.219ZM226.174 116.244H210.549V115.45H226.174V116.244ZM226.174 113.067H210.549V111.478H226.174V113.067ZM226.174 110.683H210.549V109.889H226.174V110.683ZM226.174 107.503H210.549V106.709H226.174V107.503ZM226.174 105.914H210.549V105.12H226.174V105.914ZM226.174 102.736H210.549V101.147H226.174V102.736ZM226.174 98.7617H210.549V97.9672H226.174V98.7617ZM226.174 95.5838H210.549V94.7893H226.174V95.5838ZM226.174 93.9948H210.549V92.4058H226.174V93.9948ZM226.174 90.0203H210.549V88.4314H226.174V90.0203ZM226.174 87.6369H210.549V85.2534H226.174V87.6369ZM226.174 84.4589H210.549V83.6645H226.174V84.4589ZM226.174 81.2789H210.549V79.69H226.174V81.2789ZM226.174 78.8955H210.549V76.512H226.174V78.8955ZM226.174 74.1286H210.549V73.3341H226.174V74.1286ZM226.174 72.5376H210.549V70.9486H226.174V72.5376ZM226.174 68.5652H210.549V67.7707H226.174V68.5652ZM226.174 66.9762H210.549V64.5927H226.174V66.9762ZM226.174 63.7962H210.549V63.0017H226.174V63.7962ZM226.174 62.2072H210.549V61.4127H226.174V62.2072ZM226.174 59.0293H210.549V57.4403H226.174V59.0293ZM226.174 55.0548H210.549V54.2603H226.174V55.0548ZM226.174 51.8769H210.549V51.0824H226.174V51.8769ZM226.174 48.6989H210.549V47.11H226.174V48.6989ZM226.174 46.3134H210.549V44.7245H226.174V46.3134ZM226.174 43.93H210.549V41.5465H226.174V43.93ZM226.174 39.1631H210.549V38.3686H226.174V39.1631ZM226.174 37.5721H210.549V36.7776H226.174V37.5721ZM226.174 34.3941H210.549V32.0107H226.174V34.3941ZM226.174 31.2162H210.549V29.6272H226.174V31.2162Z" fill="#F2F2F2"/>
<path d="M241.621 124.986H225.996V124.191H241.621V124.986ZM241.621 121.808H225.996V121.013H241.621V121.808ZM241.621 120.219H225.996V118.63H241.621V120.219ZM241.621 116.244H225.996V115.45H241.621V116.244ZM241.621 113.067H225.996V111.478H241.621V113.067ZM241.621 110.683H225.996V109.889H241.621V110.683ZM241.621 107.503H225.996V106.709H241.621V107.503ZM241.621 105.914H225.996V105.12H241.621V105.914ZM241.621 102.736H225.996V101.147H241.621V102.736ZM241.621 98.7617H225.996V97.9672H241.621V98.7617ZM241.621 95.5838H225.996V94.7893H241.621V95.5838ZM241.621 93.9948H225.996V92.4058H241.621V93.9948ZM241.621 90.0203H225.996V88.4314H241.621V90.0203ZM241.621 87.6369H225.996V85.2534H241.621V87.6369ZM241.621 84.4589H225.996V83.6645H241.621V84.4589ZM241.621 81.2789H225.996V79.69H241.621V81.2789ZM241.621 78.8955H225.996V76.512H241.621V78.8955ZM241.621 74.1286H225.996V73.3341H241.621V74.1286ZM241.621 72.5376H225.996V70.9486H241.621V72.5376ZM241.621 68.5652H225.996V67.7707H241.621V68.5652ZM241.621 66.9762H225.996V64.5927H241.621V66.9762ZM241.621 63.7962H225.996V63.0017H241.621V63.7962ZM241.621 62.2072H225.996V61.4127H241.621V62.2072ZM241.621 59.0293H225.996V57.4403H241.621V59.0293ZM241.621 55.0548H225.996V54.2603H241.621V55.0548ZM241.621 51.8769H225.996V51.0824H241.621V51.8769ZM241.621 48.6989H225.996V47.11H241.621V48.6989ZM241.621 46.3134H225.996V44.7245H241.621V46.3134ZM241.621 43.93H225.996V41.5465H241.621V43.93ZM241.621 39.1631H225.996V38.3686H241.621V39.1631ZM241.621 37.5721H225.996V36.7776H241.621V37.5721ZM241.621 34.3941H225.996V32.0107H241.621V34.3941ZM241.621 31.2162H225.996V29.6272H241.621V31.2162Z" fill="#F2F2F2"/>
</g>
<g clip-path="url(#clip7_137_2361)">
<rect width="23.8329" height="99.3036" transform="translate(95.4473 53.4824)" fill="#672F93"/>
<path d="M106.447 152.793H90.8224V151.998H106.447V152.793ZM106.447 149.615H90.8224V148.821H106.447V149.615ZM106.447 148.026H90.8224V146.437H106.447V148.026ZM106.447 144.052H90.8224V143.257H106.447V144.052ZM106.447 140.874H90.8224V139.285H106.447V140.874ZM106.447 138.49H90.8224V137.696H106.447V138.49ZM106.447 135.31H90.8224V134.516H106.447V135.31ZM106.447 133.721H90.8224V132.927H106.447V133.721ZM106.447 130.543H90.8224V128.954H106.447V130.543ZM106.447 126.569H90.8224V125.774H106.447V126.569ZM106.447 123.391H90.8224V122.596H106.447V123.391ZM106.447 121.802H90.8224V120.213H106.447V121.802ZM106.447 117.827H90.8224V116.238H106.447V117.827ZM106.447 115.444H90.8224V113.061H106.447V115.444ZM106.447 112.266H90.8224V111.472H106.447V112.266ZM106.447 109.086H90.8224V107.497H106.447V109.086ZM106.447 106.703H90.8224V104.319H106.447V106.703ZM106.447 101.936H90.8224V101.141H106.447V101.936ZM106.447 100.345H90.8224V98.7557H106.447V100.345ZM106.447 96.3723H90.8224V95.5778H106.447V96.3723ZM106.447 94.7833H90.8224V92.3999H106.447V94.7833ZM106.447 91.6033H90.8224V90.8088H106.447V91.6033ZM106.447 90.0144H90.8224V89.2199H106.447V90.0144ZM106.447 86.8364H90.8224V85.2475H106.447V86.8364ZM106.447 82.8619H90.8224V82.0675H106.447V82.8619ZM106.447 79.684H90.8224V78.8895H106.447V79.684ZM106.447 76.5061H90.8224V74.9171H106.447V76.5061ZM106.447 74.1206H90.8224V72.5316H106.447V74.1206ZM106.447 71.7371H90.8224V69.3537H106.447V71.7371ZM106.447 66.9702H90.8224V66.1757H106.447V66.9702ZM106.447 65.3792H90.8224V64.5847H106.447V65.3792ZM106.447 62.2012H90.8224V59.8178H106.447V62.2012ZM106.447 59.0233H90.8224V57.4344H106.447V59.0233Z" fill="#F2F2F2"/>
<path d="M121.896 152.793H106.272V151.998H121.896V152.793ZM121.896 149.615H106.272V148.821H121.896V149.615ZM121.896 148.026H106.272V146.437H121.896V148.026ZM121.896 144.052H106.272V143.257H121.896V144.052ZM121.896 140.874H106.272V139.285H121.896V140.874ZM121.896 138.49H106.272V137.696H121.896V138.49ZM121.896 135.31H106.272V134.516H121.896V135.31ZM121.896 133.721H106.272V132.927H121.896V133.721ZM121.896 130.543H106.272V128.954H121.896V130.543ZM121.896 126.569H106.272V125.774H121.896V126.569ZM121.896 123.391H106.272V122.596H121.896V123.391ZM121.896 121.802H106.272V120.213H121.896V121.802ZM121.896 117.827H106.272V116.238H121.896V117.827ZM121.896 115.444H106.272V113.061H121.896V115.444ZM121.896 112.266H106.272V111.472H121.896V112.266ZM121.896 109.086H106.272V107.497H121.896V109.086ZM121.896 106.703H106.272V104.319H121.896V106.703ZM121.896 101.936H106.272V101.141H121.896V101.936ZM121.896 100.345H106.272V98.7557H121.896V100.345ZM121.896 96.3723H106.272V95.5778H121.896V96.3723ZM121.896 94.7833H106.272V92.3999H121.896V94.7833ZM121.896 91.6033H106.272V90.8088H121.896V91.6033ZM121.896 90.0144H106.272V89.2199H121.896V90.0144ZM121.896 86.8364H106.272V85.2475H121.896V86.8364ZM121.896 82.8619H106.272V82.0675H121.896V82.8619ZM121.896 79.684H106.272V78.8895H121.896V79.684ZM121.896 76.5061H106.272V74.9171H121.896V76.5061ZM121.896 74.1206H106.272V72.5316H121.896V74.1206ZM121.896 71.7371H106.272V69.3537H121.896V71.7371ZM121.896 66.9702H106.272V66.1757H121.896V66.9702ZM121.896 65.3792H106.272V64.5847H121.896V65.3792ZM121.896 62.2012H106.272V59.8178H121.896V62.2012ZM121.896 59.0233H106.272V57.4344H121.896V59.0233Z" fill="#F2F2F2"/>
</g>
<g clip-path="url(#clip8_137_2361)">
<rect width="24.2759" height="133.517" transform="translate(142.896 27)" fill="#B63637"/>
<path d="M153.896 121.896H138.272V121.102H153.896V121.896ZM153.896 118.719H138.272V117.924H153.896V118.719ZM153.896 117.13H138.272V115.541H153.896V117.13ZM153.896 113.155H138.272V112.361H153.896V113.155ZM153.896 109.977H138.272V108.388H153.896V109.977ZM153.896 107.594H138.272V106.799H153.896V107.594ZM153.896 104.414H138.272V103.619H153.896V104.414ZM153.896 102.825H138.272V102.03H153.896V102.825ZM153.896 99.6468H138.272V98.0579H153.896V99.6468ZM153.896 95.6723H138.272V94.8779H153.896V95.6723ZM153.896 92.4944H138.272V91.6999H153.896V92.4944ZM153.896 90.9055H138.272V89.3165H153.896V90.9055ZM153.896 86.931H138.272V85.342H153.896V86.931ZM153.896 84.5475H138.272V82.1641H153.896V84.5475ZM153.896 81.3696H138.272V80.5751H153.896V81.3696ZM153.896 78.1896H138.272V76.6006H153.896V78.1896ZM153.896 75.8061H138.272V73.4227H153.896V75.8061ZM153.896 71.0392H138.272V70.2448H153.896V71.0392ZM153.896 69.4482H138.272V67.8592H153.896V69.4482ZM153.896 65.4758H138.272V64.6813H153.896V65.4758ZM153.896 63.8868H138.272V61.5034H153.896V63.8868ZM153.896 60.7068H138.272V59.9124H153.896V60.7068ZM153.896 59.1179H138.272V58.3234H153.896V59.1179ZM153.896 55.9399H138.272V54.351H153.896V55.9399ZM153.896 51.9655H138.272V51.171H153.896V51.9655ZM153.896 48.7875H138.272V47.993H153.896V48.7875ZM153.896 45.6096H138.272V44.0206H153.896V45.6096ZM153.896 43.2241H138.272V41.6351H153.896V43.2241ZM153.896 40.8406H138.272V38.4572H153.896V40.8406ZM153.896 36.0737H138.272V35.2792H153.896V36.0737ZM153.896 34.4827H138.272V33.6882H153.896V34.4827ZM153.896 31.3048H138.272V28.9213H153.896V31.3048ZM153.896 28.1268H138.272V26.5379H153.896V28.1268Z" fill="#F2F2F2"/>
<path d="M169.344 121.896H153.719V121.102H169.344V121.896ZM169.344 118.719H153.719V117.924H169.344V118.719ZM169.344 117.13H153.719V115.541H169.344V117.13ZM169.344 113.155H153.719V112.361H169.344V113.155ZM169.344 109.977H153.719V108.388H169.344V109.977ZM169.344 107.594H153.719V106.799H169.344V107.594ZM169.344 104.414H153.719V103.619H169.344V104.414ZM169.344 102.825H153.719V102.03H169.344V102.825ZM169.344 99.6468H153.719V98.0579H169.344V99.6468ZM169.344 95.6723H153.719V94.8779H169.344V95.6723ZM169.344 92.4944H153.719V91.6999H169.344V92.4944ZM169.344 90.9055H153.719V89.3165H169.344V90.9055ZM169.344 86.931H153.719V85.342H169.344V86.931ZM169.344 84.5475H153.719V82.1641H169.344V84.5475ZM169.344 81.3696H153.719V80.5751H169.344V81.3696ZM169.344 78.1896H153.719V76.6006H169.344V78.1896ZM169.344 75.8061H153.719V73.4227H169.344V75.8061ZM169.344 71.0392H153.719V70.2448H169.344V71.0392ZM169.344 69.4482H153.719V67.8592H169.344V69.4482ZM169.344 65.4758H153.719V64.6813H169.344V65.4758ZM169.344 63.8868H153.719V61.5034H169.344V63.8868ZM169.344 60.7068H153.719V59.9124H169.344V60.7068ZM169.344 59.1179H153.719V58.3234H169.344V59.1179ZM169.344 55.9399H153.719V54.351H169.344V55.9399ZM169.344 51.9655H153.719V51.171H169.344V51.9655ZM169.344 48.7875H153.719V47.993H169.344V48.7875ZM169.344 45.6096H153.719V44.0206H169.344V45.6096ZM169.344 43.2241H153.719V41.6351H169.344V43.2241ZM169.344 40.8406H153.719V38.4572H169.344V40.8406ZM169.344 36.0737H153.719V35.2792H169.344V36.0737ZM169.344 34.4827H153.719V33.6882H169.344V34.4827ZM169.344 31.3048H153.719V28.9213H169.344V31.3048ZM169.344 28.1268H153.719V26.5379H169.344V28.1268Z" fill="#F2F2F2"/>
<path d="M153.896 219H138.272V218.206H153.896V219ZM153.896 215.822H138.272V215.028H153.896V215.822ZM153.896 214.233H138.272V212.644H153.896V214.233ZM153.896 210.259H138.272V209.464H153.896V210.259ZM153.896 207.081H138.272V205.492H153.896V207.081ZM153.896 204.697H138.272V203.903H153.896V204.697ZM153.896 201.517H138.272V200.723H153.896V201.517ZM153.896 199.928H138.272V199.134H153.896V199.928ZM153.896 196.75H138.272V195.161H153.896V196.75ZM153.896 192.776H138.272V191.981H153.896V192.776ZM153.896 189.598H138.272V188.803H153.896V189.598ZM153.896 188.009H138.272V186.42H153.896V188.009ZM153.896 184.034H138.272V182.446H153.896V184.034ZM153.896 181.651H138.272V179.268H153.896V181.651ZM153.896 178.473H138.272V177.679H153.896V178.473ZM153.896 175.293H138.272V173.704H153.896V175.293ZM153.896 172.91H138.272V170.526H153.896V172.91ZM153.896 168.143H138.272V167.348H153.896V168.143ZM153.896 166.552H138.272V164.963H153.896V166.552ZM153.896 162.579H138.272V161.785H153.896V162.579ZM153.896 160.99H138.272V158.607H153.896V160.99ZM153.896 157.81H138.272V157.016H153.896V157.81ZM153.896 156.221H138.272V155.427H153.896V156.221ZM153.896 153.043H138.272V151.454H153.896V153.043ZM153.896 149.069H138.272V148.274H153.896V149.069ZM153.896 145.891H138.272V145.097H153.896V145.891ZM153.896 142.713H138.272V141.124H153.896V142.713ZM153.896 140.328H138.272V138.739H153.896V140.328ZM153.896 137.944H138.272V135.561H153.896V137.944ZM153.896 133.177H138.272V132.383H153.896V133.177ZM153.896 131.586H138.272V130.792H153.896V131.586ZM153.896 128.408H138.272V126.025H153.896V128.408ZM153.896 125.23H138.272V123.641H153.896V125.23Z" fill="#F2F2F2"/>
<path d="M169.344 219H153.719V218.206H169.344V219ZM169.344 215.822H153.719V215.028H169.344V215.822ZM169.344 214.233H153.719V212.644H169.344V214.233ZM169.344 210.259H153.719V209.464H169.344V210.259ZM169.344 207.081H153.719V205.492H169.344V207.081ZM169.344 204.697H153.719V203.903H169.344V204.697ZM169.344 201.517H153.719V200.723H169.344V201.517ZM169.344 199.928H153.719V199.134H169.344V199.928ZM169.344 196.75H153.719V195.161H169.344V196.75ZM169.344 192.776H153.719V191.981H169.344V192.776ZM169.344 189.598H153.719V188.803H169.344V189.598ZM169.344 188.009H153.719V186.42H169.344V188.009ZM169.344 184.034H153.719V182.446H169.344V184.034ZM169.344 181.651H153.719V179.268H169.344V181.651ZM169.344 178.473H153.719V177.679H169.344V178.473ZM169.344 175.293H153.719V173.704H169.344V175.293ZM169.344 172.91H153.719V170.526H169.344V172.91ZM169.344 168.143H153.719V167.348H169.344V168.143ZM169.344 166.552H153.719V164.963H169.344V166.552ZM169.344 162.579H153.719V161.785H169.344V162.579ZM169.344 160.99H153.719V158.607H169.344V160.99ZM169.344 157.81H153.719V157.016H169.344V157.81ZM169.344 156.221H153.719V155.427H169.344V156.221ZM169.344 153.043H153.719V151.454H169.344V153.043ZM169.344 149.069H153.719V148.274H169.344V149.069ZM169.344 145.891H153.719V145.097H169.344V145.891ZM169.344 142.713H153.719V141.124H169.344V142.713ZM169.344 140.328H153.719V138.739H169.344V140.328ZM169.344 137.944H153.719V135.561H169.344V137.944ZM169.344 133.177H153.719V132.383H169.344V133.177ZM169.344 131.586H153.719V130.792H169.344V131.586ZM169.344 128.408H153.719V126.025H169.344V128.408ZM169.344 125.23H153.719V123.641H169.344V125.23Z" fill="#F2F2F2"/>
</g>
<g clip-path="url(#clip9_137_2361)">
<rect width="23.9497" height="99.3036" transform="translate(119.281 0.51709)" fill="#2F9293"/>
<path d="M130.725 99.6064H115.1V98.812H130.725V99.6064ZM130.725 96.4285H115.1V95.634H130.725V96.4285ZM130.725 94.8395H115.1V93.2506H130.725V94.8395ZM130.725 90.8651H115.1V90.0706H130.725V90.8651ZM130.725 87.6871H115.1V86.0982H130.725V87.6871ZM130.725 85.3037H115.1V84.5092H130.725V85.3037ZM130.725 82.1237H115.1V81.3292H130.725V82.1237ZM130.725 80.5347H115.1V79.7402H130.725V80.5347ZM130.725 77.3568H115.1V75.7678H130.725V77.3568ZM130.725 73.3823H115.1V72.5878H130.725V73.3823ZM130.725 70.2044H115.1V69.4099H130.725V70.2044ZM130.725 68.6154H115.1V67.0264H130.725V68.6154ZM130.725 64.6409H115.1V63.052H130.725V64.6409ZM130.725 62.2575H115.1V59.874H130.725V62.2575ZM130.725 59.0796H115.1V58.2851H130.725V59.0796ZM130.725 55.8996H115.1V54.3106H130.725V55.8996ZM130.725 53.5161H115.1V51.1327H130.725V53.5161ZM130.725 48.7492H115.1V47.9547H130.725V48.7492ZM130.725 47.1582H115.1V45.5692H130.725V47.1582ZM130.725 43.1858H115.1V42.3913H130.725V43.1858ZM130.725 41.5968H115.1V39.2133H130.725V41.5968ZM130.725 38.4168H115.1V37.6223H130.725V38.4168ZM130.725 36.8278H115.1V36.0333H130.725V36.8278ZM130.725 33.6499H115.1V32.0609H130.725V33.6499ZM130.725 29.6754H115.1V28.8809H130.725V29.6754ZM130.725 26.4975H115.1V25.703H130.725V26.4975ZM130.725 23.3196H115.1V21.7306H130.725V23.3196ZM130.725 20.934H115.1V19.3451H130.725V20.934ZM130.725 18.5506H115.1V16.1671H130.725V18.5506ZM130.725 13.7837H115.1V12.9892H130.725V13.7837ZM130.725 12.1927H115.1V11.3982H130.725V12.1927ZM130.725 9.01473H115.1V6.63128H130.725V9.01473ZM130.725 5.8368H115.1V4.24783H130.725V5.8368Z" fill="#F2F2F2"/>
<path d="M146.172 99.6064H130.547V98.812H146.172V99.6064ZM146.172 96.4285H130.547V95.634H146.172V96.4285ZM146.172 94.8395H130.547V93.2506H146.172V94.8395ZM146.172 90.8651H130.547V90.0706H146.172V90.8651ZM146.172 87.6871H130.547V86.0982H146.172V87.6871ZM146.172 85.3037H130.547V84.5092H146.172V85.3037ZM146.172 82.1237H130.547V81.3292H146.172V82.1237ZM146.172 80.5347H130.547V79.7402H146.172V80.5347ZM146.172 77.3568H130.547V75.7678H146.172V77.3568ZM146.172 73.3823H130.547V72.5878H146.172V73.3823ZM146.172 70.2044H130.547V69.4099H146.172V70.2044ZM146.172 68.6154H130.547V67.0264H146.172V68.6154ZM146.172 64.6409H130.547V63.052H146.172V64.6409ZM146.172 62.2575H130.547V59.874H146.172V62.2575ZM146.172 59.0796H130.547V58.2851H146.172V59.0796ZM146.172 55.8996H130.547V54.3106H146.172V55.8996ZM146.172 53.5161H130.547V51.1327H146.172V53.5161ZM146.172 48.7492H130.547V47.9547H146.172V48.7492ZM146.172 47.1582H130.547V45.5692H146.172V47.1582ZM146.172 43.1858H130.547V42.3913H146.172V43.1858ZM146.172 41.5968H130.547V39.2133H146.172V41.5968ZM146.172 38.4168H130.547V37.6223H146.172V38.4168ZM146.172 36.8278H130.547V36.0333H146.172V36.8278ZM146.172 33.6499H130.547V32.0609H146.172V33.6499ZM146.172 29.6754H130.547V28.8809H146.172V29.6754ZM146.172 26.4975H130.547V25.703H146.172V26.4975ZM146.172 23.3196H130.547V21.7306H146.172V23.3196ZM146.172 20.934H130.547V19.3451H146.172V20.934ZM146.172 18.5506H130.547V16.1671H146.172V18.5506ZM146.172 13.7837H130.547V12.9892H146.172V13.7837ZM146.172 12.1927H130.547V11.3982H146.172V12.1927ZM146.172 9.01473H130.547V6.63128H146.172V9.01473ZM146.172 5.8368H130.547V4.24783H146.172V5.8368Z" fill="#F2F2F2"/>
</g>
<g clip-path="url(#clip10_137_2361)">
<rect width="23.8329" height="71.3409" transform="translate(167.062 9.12402)" fill="#B68617"/>
<path d="M178.172 104.021H162.547V103.226H178.172V104.021ZM178.172 100.843H162.547V100.048H178.172V100.843ZM178.172 99.2536H162.547V97.6646H178.172V99.2536ZM178.172 95.2791H162.547V94.4846H178.172V95.2791ZM178.172 92.1012H162.547V90.5122H178.172V92.1012ZM178.172 89.7177H162.547V88.9233H178.172V89.7177ZM178.172 86.5378H162.547V85.7433H178.172V86.5378ZM178.172 84.9488H162.547V84.1543H178.172V84.9488ZM178.172 81.7709H162.547V80.1819H178.172V81.7709ZM178.172 77.7964H162.547V77.0019H178.172V77.7964ZM178.172 74.6184H162.547V73.824H178.172V74.6184ZM178.172 73.0295H162.547V71.4405H178.172V73.0295ZM178.172 69.055H162.547V67.466H178.172V69.055ZM178.172 66.6715H162.547V64.2881H178.172V66.6715ZM178.172 63.4936H162.547V62.6991H178.172V63.4936ZM178.172 60.3136H162.547V58.7246H178.172V60.3136ZM178.172 57.9302H162.547V55.5467H178.172V57.9302ZM178.172 53.1633H162.547V52.3688H178.172V53.1633ZM178.172 51.5722H162.547V49.9833H178.172V51.5722ZM178.172 47.5998H162.547V46.8053H178.172V47.5998ZM178.172 46.0109H162.547V43.6274H178.172V46.0109ZM178.172 42.8309H162.547V42.0364H178.172V42.8309ZM178.172 41.2419H162.547V40.4474H178.172V41.2419ZM178.172 38.064H162.547V36.475H178.172V38.064ZM178.172 34.0895H162.547V33.295H178.172V34.0895ZM178.172 30.9115H162.547V30.1171H178.172V30.9115ZM178.172 27.7336H162.547V26.1446H178.172V27.7336ZM178.172 25.3481H162.547V23.7591H178.172V25.3481ZM178.172 22.9647H162.547V20.5812H178.172V22.9647ZM178.172 18.1978H162.547V17.4033H178.172V18.1978ZM178.172 16.6067H162.547V15.8122H178.172V16.6067ZM178.172 13.4288H162.547V11.0453H178.172V13.4288ZM178.172 10.2509H162.547V8.66189H178.172V10.2509Z" fill="#F2F2F2"/>
<path d="M193.619 104.021H177.994V103.226H193.619V104.021ZM193.619 100.843H177.994V100.048H193.619V100.843ZM193.619 99.2536H177.994V97.6646H193.619V99.2536ZM193.619 95.2791H177.994V94.4846H193.619V95.2791ZM193.619 92.1012H177.994V90.5122H193.619V92.1012ZM193.619 89.7177H177.994V88.9233H193.619V89.7177ZM193.619 86.5378H177.994V85.7433H193.619V86.5378ZM193.619 84.9488H177.994V84.1543H193.619V84.9488ZM193.619 81.7709H177.994V80.1819H193.619V81.7709ZM193.619 77.7964H177.994V77.0019H193.619V77.7964ZM193.619 74.6184H177.994V73.824H193.619V74.6184ZM193.619 73.0295H177.994V71.4405H193.619V73.0295ZM193.619 69.055H177.994V67.466H193.619V69.055ZM193.619 66.6715H177.994V64.2881H193.619V66.6715ZM193.619 63.4936H177.994V62.6991H193.619V63.4936ZM193.619 60.3136H177.994V58.7246H193.619V60.3136ZM193.619 57.9302H177.994V55.5467H193.619V57.9302ZM193.619 53.1633H177.994V52.3688H193.619V53.1633ZM193.619 51.5722H177.994V49.9833H193.619V51.5722ZM193.619 47.5998H177.994V46.8053H193.619V47.5998ZM193.619 46.0109H177.994V43.6274H193.619V46.0109ZM193.619 42.8309H177.994V42.0364H193.619V42.8309ZM193.619 41.2419H177.994V40.4474H193.619V41.2419ZM193.619 38.064H177.994V36.475H193.619V38.064ZM193.619 34.0895H177.994V33.295H193.619V34.0895ZM193.619 30.9115H177.994V30.1171H193.619V30.9115ZM193.619 27.7336H177.994V26.1446H193.619V27.7336ZM193.619 25.3481H177.994V23.7591H193.619V25.3481ZM193.619 22.9647H177.994V20.5812H193.619V22.9647ZM193.619 18.1978H177.994V17.4033H193.619V18.1978ZM193.619 16.6067H177.994V15.8122H193.619V16.6067ZM193.619 13.4288H177.994V11.0453H193.619V13.4288ZM193.619 10.2509H177.994V8.66189H193.619V10.2509Z" fill="#F2F2F2"/>
</g>
</g>
<defs>
<clipPath id="clip0_137_2361">
<rect width="23.8329" height="99.3036" fill="white" transform="translate(0 17.0688)"/>
</clipPath>
<clipPath id="clip1_137_2361">
<rect width="24.2759" height="133.517" fill="white" transform="translate(47.4473 34.7241)"/>
</clipPath>
<clipPath id="clip2_137_2361">
<rect width="23.9497" height="99.3036" fill="white" transform="translate(23.832 25.8965)"/>
</clipPath>
<clipPath id="clip3_137_2361">
<rect width="23.8329" height="71.3409" fill="white" transform="translate(71.6152 17.0688)"/>
</clipPath>
<clipPath id="clip4_137_2361">
<rect width="23.8329" height="99.3036" fill="white" transform="translate(190.896 17.0688)"/>
</clipPath>
<clipPath id="clip5_137_2361">
<rect width="24.2759" height="133.517" fill="white" transform="translate(238.787 34.7241)"/>
</clipPath>
<clipPath id="clip6_137_2361">
<rect width="23.9497" height="99.3036" fill="white" transform="translate(214.73 25.8965)"/>
</clipPath>
<clipPath id="clip7_137_2361">
<rect width="23.8329" height="99.3036" fill="white" transform="translate(95.4473 53.4824)"/>
</clipPath>
<clipPath id="clip8_137_2361">
<rect width="24.2759" height="133.517" fill="white" transform="translate(142.896 27)"/>
</clipPath>
<clipPath id="clip9_137_2361">
<rect width="23.9497" height="99.3036" fill="white" transform="translate(119.281 0.51709)"/>
</clipPath>
<clipPath id="clip10_137_2361">
<rect width="23.8329" height="71.3409" fill="white" transform="translate(167.062 9.12402)"/>
</clipPath>
</defs>
</svg>
