<svg width="20" height="23" viewBox="0 0 20 23" fill="none" xmlns="http://www.w3.org/2000/svg">
<path d="M3.3335 19.4167V14.4792C3.3335 14.2014 3.3996 13.9375 3.53182 13.6875C3.66404 13.4375 3.84794 13.2361 4.0835 13.0833L5.00016 12.4792C5.09738 13.6458 5.25016 14.6389 5.4585 15.4583C5.66682 16.2778 5.99322 17.1875 6.43766 18.1875L3.3335 19.4167ZM7.68766 17.75C7.20154 16.8333 6.84044 15.8611 6.60432 14.8333C6.36822 13.8056 6.25016 12.7431 6.25016 11.6458C6.25016 9.90972 6.59404 8.27444 7.28182 6.74C7.9696 5.20556 8.87572 4.04222 10.0002 3.25C11.1252 4.04166 12.0315 5.205 12.7193 6.74C13.4071 8.275 13.7507 9.91028 13.7502 11.6458C13.7502 12.7292 13.6321 13.7814 13.396 14.8025C13.1599 15.8236 12.7988 16.8061 12.3127 17.75H7.68766ZM10.0002 11.9167C10.4585 11.9167 10.851 11.7536 11.1777 11.4275C11.5043 11.1014 11.6674 10.7089 11.6668 10.25C11.6668 9.79166 11.5038 9.39944 11.1777 9.07334C10.8515 8.74722 10.459 8.58388 10.0002 8.58334C9.54182 8.58334 9.1496 8.74666 8.8235 9.07334C8.49738 9.4 8.33404 9.79222 8.3335 10.25C8.3335 10.7083 8.49682 11.1008 8.8235 11.4275C9.15016 11.7542 9.54238 11.9172 10.0002 11.9167ZM16.6668 19.4167L13.5627 18.1875C14.0071 17.1875 14.3335 16.2778 14.5418 15.4583C14.7502 14.6389 14.9029 13.6458 15.0002 12.4792L15.9168 13.0833C16.1529 13.2361 16.3371 13.4375 16.4693 13.6875C16.6015 13.9375 16.6674 14.2014 16.6668 14.4792V19.4167Z" fill="#0078CC"/>
</svg>
