<svg width="86" height="86" viewBox="0 0 86 86" fill="none" xmlns="http://www.w3.org/2000/svg">
<path d="M46.4767 66.8941C45.1267 66.8941 43.8329 66.7066 42.5954 66.3316C41.3579 65.9566 40.2329 65.4504 39.2204 64.8129C38.2454 64.1754 37.4204 63.4441 36.7454 62.6191C36.1079 61.7566 35.6767 60.8754 35.4517 59.9754L37.4204 59.3004L36.9142 66.2191H28.5329V24.6504H37.5892V43.5504L35.7329 42.8754C35.9579 41.9004 36.3892 41.0004 37.0267 40.1754C37.6642 39.3129 38.4704 38.5629 39.4454 37.9254C40.4204 37.2504 41.4892 36.7254 42.6517 36.3504C43.8142 35.9754 45.0142 35.7879 46.2517 35.7879C48.8392 35.7879 51.1267 36.4629 53.1142 37.8129C55.1392 39.1254 56.7329 40.9629 57.8954 43.3254C59.0579 45.6504 59.6392 48.3129 59.6392 51.3129C59.6392 54.3504 59.0579 57.0504 57.8954 59.4129C56.7704 61.7379 55.2142 63.5754 53.2267 64.9254C51.2392 66.2379 48.9892 66.8941 46.4767 66.8941ZM44.1142 59.3004C45.4642 59.3004 46.6454 58.9629 47.6579 58.2879C48.6704 57.6129 49.4392 56.6941 49.9642 55.5316C50.5267 54.3316 50.8079 52.9254 50.8079 51.3129C50.8079 49.7379 50.5267 48.3504 49.9642 47.1504C49.4392 45.9504 48.6704 45.0316 47.6579 44.3941C46.6454 43.7566 45.4642 43.4379 44.1142 43.4379C42.7267 43.4379 41.5267 43.7566 40.5142 44.3941C39.5017 45.0316 38.7142 45.9504 38.1517 47.1504C37.5892 48.3504 37.3079 49.7379 37.3079 51.3129C37.3079 52.9254 37.5892 54.3316 38.1517 55.5316C38.7142 56.6941 39.5017 57.6129 40.5142 58.2879C41.5267 58.9629 42.7267 59.3004 44.1142 59.3004Z" fill="white"/>
</svg>
