<svg width="52" height="45" viewBox="0 0 52 45" fill="none" xmlns="http://www.w3.org/2000/svg">
<path d="M12.0215 21.3931C11.9695 29.3387 18.365 35.8185 26.3106 35.8705C34.2561 35.9225 40.7359 29.527 40.7879 21.5814C40.8399 13.6358 34.4444 7.15605 26.4989 7.10404C18.5533 7.05203 12.0735 13.4476 12.0215 21.3931ZM38.0041 21.5632C37.9622 27.9603 32.7258 33.1285 26.3288 33.0867C19.9317 33.0448 14.7634 27.8084 14.8053 21.4114C14.8472 15.0143 20.0836 9.84602 26.4806 9.88789C32.8777 9.92976 38.046 15.1661 38.0041 21.5632ZM25.4464 26.121C25.4531 25.0944 24.6292 24.2596 23.6026 24.2529C22.5761 24.2462 21.7413 25.0701 21.7346 26.0967C21.7279 27.1232 22.5518 27.958 23.5783 27.9647C24.6049 27.9714 25.4397 27.1475 25.4464 26.121ZM25.5071 16.8414C25.5138 15.8149 24.6899 14.9801 23.6634 14.9734C22.6368 14.9667 21.802 15.7906 21.7953 16.8172C21.7886 17.8437 22.6125 18.6785 23.6391 18.6852C24.6656 18.6919 25.5004 17.868 25.5071 16.8414ZM29.7192 16.637C31.1612 17.8528 31.9847 19.6388 31.9724 21.5237C31.9601 23.4086 31.1191 25.1837 29.6554 26.3805C29.0606 26.8696 28.9795 27.7507 29.4628 28.3396C29.9519 28.9344 30.8272 29.0155 31.4219 28.5322C33.5212 26.806 34.7327 24.2562 34.7505 21.5419C34.7682 18.8276 33.5902 16.2622 31.5137 14.5086C30.9254 14.0117 30.0491 14.0872 29.5523 14.6755C29.0613 15.2581 29.1309 16.1402 29.7192 16.637Z" fill="#FFBF2B"/>
</svg>
