<svg width="23" height="23" viewBox="0 0 23 23" fill="none" xmlns="http://www.w3.org/2000/svg">
<path d="M6.14807 6.53014C3.58027 9.4266 3.89511 13.8969 6.85151 16.5178C9.80791 19.1388 14.2837 18.9155 16.8515 16.0191C19.4193 13.1226 19.1045 8.6523 16.1481 6.03136C13.1917 3.41044 8.71587 3.63368 6.14807 6.53014ZM15.8157 15.1008C13.7483 17.4327 10.1314 17.6131 7.75117 15.503C5.37095 13.3929 5.11653 9.7804 7.18389 7.44842C9.25125 5.11646 12.8682 4.93606 15.2484 7.04618C17.6286 9.15632 17.8831 12.7688 15.8157 15.1008ZM9.65507 12.6599C9.98683 12.2857 9.94627 11.7098 9.56431 11.3711C9.18235 11.0325 8.60573 11.0613 8.27399 11.4355C7.94223 11.8097 7.98279 12.3856 8.36475 12.7242C8.74671 13.0628 9.32333 13.0341 9.65507 12.6599ZM12.654 9.27714C12.9857 8.90292 12.9452 8.32702 12.5632 7.9884C12.1812 7.6498 11.6046 7.67854 11.2729 8.05276C10.9411 8.42698 10.9817 9.00288 11.3636 9.3415C11.7456 9.68012 12.3222 9.65136 12.654 9.27714ZM14.2956 10.5815C14.4453 11.4995 14.1806 12.424 13.5714 13.1112C12.9623 13.7983 12.0783 14.1738 11.1468 14.1333C10.7674 14.1179 10.4544 14.4144 10.4464 14.7886C10.4386 15.1669 10.7401 15.4833 11.1177 15.5008C12.4568 15.5553 13.7279 15.017 14.6051 14.0275C15.4823 13.0381 15.8643 11.7116 15.6497 10.3886C15.5889 10.0138 15.2368 9.75454 14.8622 9.80756C14.4917 9.8604 14.2348 10.2066 14.2956 10.5815Z" fill="#B63637"/>
</svg>
