<svg width="11" height="11" viewBox="0 0 11 11" fill="none" xmlns="http://www.w3.org/2000/svg">
<path d="M7.27057 1.19679C7.69 0.791802 8.38274 1.15954 8.28177 1.73358L7.92156 3.78576C7.89973 3.9108 7.91799 4.03954 7.97372 4.15358C8.02946 4.26762 8.11982 4.36112 8.23189 4.42072L10.0725 5.39778C10.5876 5.67126 10.4514 6.44396 9.87426 6.52602L7.81158 6.81717C7.68568 6.83486 7.56861 6.89196 7.47717 6.98028C7.38572 7.06861 7.32458 7.18362 7.30253 7.30883L6.94231 9.36101C6.84188 9.93533 6.06452 10.0454 5.80804 9.52077L4.89346 7.64916C4.83765 7.53503 4.74716 7.44149 4.63495 7.38193C4.52274 7.32236 4.39456 7.29982 4.26877 7.31754L2.20609 7.60869C1.62841 7.69047 1.28451 6.98523 1.70341 6.57996L3.20136 5.13174C3.29271 5.04332 3.35372 4.92824 3.37564 4.80301C3.39756 4.67777 3.37926 4.54882 3.32337 4.43462L2.40904 2.56382C2.15362 2.0398 2.71784 1.49429 3.23248 1.76748L5.07253 2.74426C5.18472 2.80386 5.31288 2.82643 5.43868 2.80874C5.56448 2.79106 5.68145 2.73403 5.77286 2.64582L7.27082 1.1976L7.27057 1.19679Z" fill="#672F93"/>
</svg>
