<svg width="85" height="531" viewBox="0 0 85 531" fill="none" xmlns="http://www.w3.org/2000/svg">
<g clip-path="url(#clip0_4751_6932)">
<mask id="mask0_4751_6932" style="mask-type:alpha" maskUnits="userSpaceOnUse" x="0" y="0" width="85" height="544">
<path opacity="0.3" d="M2.28526 532.632V456.67H4.38769V532.632H2.28526ZM6.67295 532.632V456.67H7.67846V532.632H6.67295ZM3.565 535.009L1.55397 535.648L1.37115 535.009L3.83923 533.729H4.57051V543.327H3.565V535.009ZM8.77539 532.632V456.67H9.87231V532.632H8.77539ZM13.1631 532.632V456.67H15.3569V532.632H13.1631ZM12.5232 540.95H8.40975V540.127L12.7974 533.729H13.7115V540.036H14.8999V540.95H13.7115V543.327H12.5232V540.95ZM12.5232 540.036V535.648L9.68949 540.036H12.5232ZM18.6477 532.632V456.67H20.8415V532.632H18.6477ZM21.9385 532.632V456.67H23.0354V532.632H21.9385ZM19.1962 533.637C20.1103 533.637 20.8415 534.094 21.39 535.009C21.8775 535.862 22.1213 537.05 22.1213 538.574C22.1213 540.158 21.8775 541.377 21.39 542.23C20.9025 543.083 20.1712 543.51 19.1962 543.51C18.2211 543.51 17.4898 543.083 17.0023 542.23C16.5148 541.377 16.271 540.158 16.271 538.574C16.271 537.05 16.5148 535.862 17.0023 535.009C17.5508 534.094 18.2821 533.637 19.1962 533.637ZM19.1962 534.643C18.5868 534.643 18.1297 534.978 17.825 535.648C17.5203 536.38 17.368 537.355 17.368 538.574C17.368 539.244 17.3984 539.823 17.4594 540.31L20.7501 536.105C20.5673 535.618 20.354 535.252 20.1103 535.009C19.8665 534.765 19.5618 534.643 19.1962 534.643ZM19.1962 542.504C19.8056 542.504 20.2626 542.169 20.5673 541.499C20.872 540.828 21.0244 539.853 21.0244 538.574C21.0244 537.964 20.9939 537.446 20.933 537.02L17.7336 541.133C18.0383 542.047 18.5258 542.504 19.1962 542.504ZM25.3206 532.632V456.67H27.4231V532.632H25.3206ZM29.7083 532.632V456.67H30.7139V532.632H29.7083ZM26.6004 535.009L24.5894 535.648L24.4065 535.009L26.8746 533.729H27.6059V543.327H26.6004V535.009ZM34.096 532.632V456.67H35.1015V532.632H34.096ZM37.3868 532.632V456.67H38.3923V532.632H37.3868ZM34.5531 543.418C33.9437 543.418 33.4257 543.327 32.9991 543.144C32.5725 542.9 32.2374 542.596 31.9936 542.23C31.7498 541.803 31.628 541.346 31.628 540.859C31.628 540.31 31.8108 539.792 32.1764 539.305C32.5421 538.817 32.9991 538.452 33.5476 538.208C33.121 537.964 32.7554 537.659 32.4506 537.294C32.2069 536.867 32.085 536.441 32.085 536.014C32.085 535.283 32.2983 534.704 32.7249 534.277C33.2124 533.851 33.8523 533.637 34.6445 533.637C35.4977 533.637 36.1375 533.851 36.5641 534.277C36.9907 534.704 37.204 535.252 37.204 535.923C37.204 536.349 37.0516 536.776 36.7469 537.202C36.4422 537.629 36.0766 537.964 35.65 538.208C36.1985 538.452 36.6555 538.817 37.0212 539.305C37.3259 539.792 37.4782 540.31 37.4782 540.859C37.4782 541.346 37.3563 541.773 37.1126 542.139C36.8688 542.565 36.5336 542.9 36.1071 543.144C35.6805 543.327 35.1625 543.418 34.5531 543.418ZM34.8273 537.842C35.193 537.598 35.4977 537.294 35.7414 536.928C35.9852 536.623 36.1071 536.288 36.1071 535.923C36.1071 535.496 35.9852 535.161 35.7414 534.917C35.4367 534.673 35.0711 534.551 34.6445 534.551C34.157 534.551 33.7609 534.673 33.4562 534.917C33.2124 535.161 33.0905 535.466 33.0905 535.831C33.0905 536.258 33.2429 536.623 33.5476 536.928C33.7913 537.172 34.2179 537.477 34.8273 537.842ZM34.5531 542.504C35.1625 542.504 35.6195 542.352 35.9242 542.047C36.2289 541.742 36.3813 541.346 36.3813 540.859C36.3813 540.371 36.1985 539.914 35.8328 539.488C35.4672 539.122 34.9797 538.848 34.3703 538.665C33.8827 538.848 33.4866 539.122 33.1819 539.488C32.8772 539.914 32.7249 540.341 32.7249 540.767C32.7249 541.255 32.9077 541.651 33.2733 541.956C33.578 542.321 34.0046 542.504 34.5531 542.504ZM40.5862 532.632V456.67H41.6831V532.632H40.5862ZM42.78 532.632V456.67H46.0708V532.632H42.78ZM42.1401 533.637C42.7495 533.637 43.298 533.82 43.7855 534.186C44.2121 534.551 44.5473 535.039 44.791 535.648C45.0348 536.258 45.1567 536.959 45.1567 537.751C45.1567 539.64 44.8824 541.042 44.334 541.956C43.7246 542.931 42.9019 543.418 41.8659 543.418C40.9518 543.418 40.1901 543.144 39.5807 542.596L40.4033 541.681L40.4948 541.773C40.4948 541.895 40.4948 541.986 40.4948 542.047C40.5557 542.108 40.6471 542.169 40.769 542.23C41.0737 542.413 41.4089 542.504 41.7745 542.504C42.5058 542.504 43.0542 542.169 43.4199 541.499C43.7855 540.828 43.9988 539.975 44.0598 538.939C43.816 539.183 43.5418 539.366 43.2371 539.488C42.9324 539.609 42.5972 539.67 42.2316 539.67C41.6831 539.67 41.1956 539.549 40.769 539.305C40.3424 539.061 40.0072 538.726 39.7635 538.299C39.5197 537.873 39.3978 537.355 39.3978 536.745C39.3978 536.197 39.5197 535.679 39.7635 535.191C40.0072 534.704 40.3424 534.338 40.769 534.094C41.1956 533.79 41.6526 533.637 42.1401 533.637ZM42.2316 538.756C42.6581 538.756 43.0238 538.695 43.3285 538.574C43.6332 538.452 43.8769 538.238 44.0598 537.934C44.0598 536.837 43.9074 536.014 43.6027 535.466C43.298 534.917 42.841 534.643 42.2316 534.643C41.6831 534.643 41.2565 534.826 40.9518 535.191C40.6471 535.557 40.4948 536.075 40.4948 536.745C40.4948 537.355 40.6471 537.842 40.9518 538.208C41.3174 538.574 41.744 538.756 42.2316 538.756ZM48.356 532.632V456.67H49.3616V532.632H48.356ZM52.7437 532.632V456.67H53.7492V532.632H52.7437ZM48.4474 543.327C49.3616 540.402 50.3366 537.538 51.3726 534.734H47.2591V533.729H52.7437V534.369C51.464 537.538 50.428 540.524 49.6358 543.327H48.4474ZM57.04 532.632V456.67H59.2339V532.632H57.04ZM60.3308 532.632V456.67H61.4277V532.632H60.3308ZM57.5885 533.637C58.5026 533.637 59.2339 534.094 59.7823 535.009C60.2698 535.862 60.5136 537.05 60.5136 538.574C60.5136 540.158 60.2698 541.377 59.7823 542.23C59.2948 543.083 58.5635 543.51 57.5885 543.51C56.6134 543.51 55.8822 543.083 55.3946 542.23C54.9071 541.377 54.6633 540.158 54.6633 538.574C54.6633 537.05 54.9071 535.862 55.3946 535.009C55.9431 534.094 56.6744 533.637 57.5885 533.637ZM57.5885 534.643C56.9791 534.643 56.522 534.978 56.2173 535.648C55.9126 536.38 55.7603 537.355 55.7603 538.574C55.7603 539.244 55.7907 539.823 55.8517 540.31L59.1425 536.105C58.9596 535.618 58.7463 535.252 58.5026 535.009C58.2588 534.765 57.9541 534.643 57.5885 534.643ZM57.5885 542.504C58.1979 542.504 58.6549 542.169 58.9596 541.499C59.2643 540.828 59.4167 539.853 59.4167 538.574C59.4167 537.964 59.3862 537.446 59.3253 537.02L56.1259 541.133C56.4306 542.047 56.9181 542.504 57.5885 542.504ZM63.713 532.632V456.67H64.7185V532.632H63.713ZM67.0037 532.632V456.67H69.1062V532.632H67.0037ZM62.5246 542.413L63.8044 541.133C64.5966 540.341 65.206 539.701 65.6326 539.213C66.0592 538.726 66.3943 538.269 66.6381 537.842C66.8819 537.355 67.0037 536.867 67.0037 536.38C67.0037 535.77 66.8514 535.313 66.5467 535.009C66.242 534.765 65.8459 534.643 65.3583 534.643C64.6271 534.643 63.9872 534.948 63.4387 535.557C63.3169 535.74 63.2559 535.892 63.2559 536.014C63.2559 536.075 63.2559 536.105 63.2559 536.105V536.197L63.0731 536.105L62.3418 535.557C62.6465 534.948 63.0731 534.491 63.6216 534.186C64.1091 533.82 64.688 533.637 65.3583 533.637C66.2115 533.637 66.8819 533.881 67.3694 534.369C67.8569 534.856 68.1007 535.526 68.1007 536.38C68.1007 536.928 67.9788 537.477 67.735 538.025C67.4913 538.513 67.1561 539 66.7295 539.488C66.3029 539.975 65.724 540.585 64.9927 541.316L63.8958 542.321H67.4608C67.6436 542.321 67.7655 542.321 67.8264 542.321C67.9483 542.321 68.0397 542.291 68.1007 542.23H68.1921V543.327H62.5246V542.413ZM71.3 532.632V456.67H72.3969V532.632H71.3ZM73.4939 532.632V456.67H76.7846V532.632H73.4939ZM72.854 533.637C73.4634 533.637 74.0119 533.82 74.4994 534.186C74.926 534.551 75.2611 535.039 75.5049 535.648C75.7487 536.258 75.8705 536.959 75.8705 537.751C75.8705 539.64 75.5963 541.042 75.0478 541.956C74.4384 542.931 73.6157 543.418 72.5798 543.418C71.6657 543.418 70.9039 543.144 70.2945 542.596L71.1172 541.681L71.2086 541.773C71.2086 541.895 71.2086 541.986 71.2086 542.047C71.2695 542.108 71.361 542.169 71.4828 542.23C71.7875 542.413 72.1227 542.504 72.4884 542.504C73.2196 542.504 73.7681 542.169 74.1337 541.499C74.4994 540.828 74.7127 539.975 74.7736 538.939C74.5298 539.183 74.2556 539.366 73.9509 539.488C73.6462 539.609 73.311 539.67 72.9454 539.67C72.3969 539.67 71.9094 539.549 71.4828 539.305C71.0563 539.061 70.7211 538.726 70.4773 538.299C70.2336 537.873 70.1117 537.355 70.1117 536.745C70.1117 536.197 70.2336 535.679 70.4773 535.191C70.7211 534.704 71.0563 534.338 71.4828 534.094C71.9094 533.79 72.3665 533.637 72.854 533.637ZM72.9454 538.756C73.372 538.756 73.7376 538.695 74.0423 538.574C74.347 538.452 74.5908 538.238 74.7736 537.934C74.7736 536.837 74.6213 536.014 74.3166 535.466C74.0119 534.917 73.5548 534.643 72.9454 534.643C72.3969 534.643 71.9704 534.826 71.6657 535.191C71.361 535.557 71.2086 536.075 71.2086 536.745C71.2086 537.355 71.361 537.842 71.6657 538.208C72.0313 538.574 72.4579 538.756 72.9454 538.756ZM78.9785 532.632V456.67H82.2693V532.632H78.9785ZM83.3662 532.632V456.67H84.4631V532.632H83.3662ZM81.6294 540.95H77.5159V540.127L81.9036 533.729H82.8177V540.036H84.006V540.95H82.8177V543.327H81.6294V540.95ZM81.6294 540.036V535.648L78.7957 540.036H81.6294Z" fill="white"/>
<g clip-path="url(#clip1_4751_6932)">
<path opacity="0.3" d="M2.28422 456.691V380.729H4.38666V456.691H2.28422ZM6.67191 456.691V380.729H7.67743V456.691H6.67191ZM3.56396 459.068L1.55294 459.708L1.37012 459.068L3.83819 457.788H4.56948V467.386H3.56396V459.068ZM8.77435 456.691V380.729H9.87127V456.691H8.77435ZM13.162 456.691V380.729H15.3559V456.691H13.162ZM12.5222 465.01H8.40871V464.187L12.7964 457.788H13.7105V464.096H14.8988V465.01H13.7105V467.386H12.5222V465.01ZM12.5222 464.096V459.708L9.68845 464.096H12.5222ZM18.6467 456.691V380.729H20.8405V456.691H18.6467ZM21.9374 456.691V380.729H23.0344V456.691H21.9374ZM19.1951 457.697C20.1092 457.697 20.8405 458.154 21.389 459.068C21.8765 459.921 22.1202 461.11 22.1202 462.633C22.1202 464.218 21.8765 465.436 21.389 466.289C20.9014 467.143 20.1702 467.569 19.1951 467.569C18.2201 467.569 17.4888 467.143 17.0013 466.289C16.5138 465.436 16.27 464.218 16.27 462.633C16.27 461.11 16.5138 459.921 17.0013 459.068C17.5497 458.154 18.281 457.697 19.1951 457.697ZM19.1951 458.702C18.5857 458.702 18.1287 459.038 17.824 459.708C17.5193 460.439 17.3669 461.414 17.3669 462.633C17.3669 463.303 17.3974 463.882 17.4583 464.37L20.7491 460.165C20.5663 459.677 20.353 459.312 20.1092 459.068C19.8655 458.824 19.5608 458.702 19.1951 458.702ZM19.1951 466.564C19.8045 466.564 20.2616 466.229 20.5663 465.558C20.871 464.888 21.0233 463.913 21.0233 462.633C21.0233 462.024 20.9929 461.506 20.9319 461.079L17.7326 465.193C18.0373 466.107 18.5248 466.564 19.1951 466.564ZM25.3196 456.691V380.729H27.422V456.691H25.3196ZM29.7073 456.691V380.729H30.7128V456.691H29.7073ZM26.5994 459.068L24.5883 459.708L24.4055 459.068L26.8736 457.788H27.6049V467.386H26.5994V459.068ZM34.095 456.691V380.729H35.1005V456.691H34.095ZM37.3858 456.691V380.729H38.3913V456.691H37.3858ZM34.552 467.478C33.9426 467.478 33.4247 467.386 32.9981 467.204C32.5715 466.96 32.2363 466.655 31.9926 466.289C31.7488 465.863 31.6269 465.406 31.6269 464.918C31.6269 464.37 31.8097 463.852 32.1754 463.364C32.541 462.877 32.9981 462.511 33.5465 462.267C33.12 462.024 32.7543 461.719 32.4496 461.353C32.2059 460.927 32.084 460.5 32.084 460.074C32.084 459.342 32.2973 458.763 32.7238 458.337C33.2114 457.91 33.8512 457.697 34.6435 457.697C35.4966 457.697 36.1365 457.91 36.5631 458.337C36.9897 458.763 37.2029 459.312 37.2029 459.982C37.2029 460.409 37.0506 460.835 36.7459 461.262C36.4412 461.689 36.0756 462.024 35.649 462.267C36.1974 462.511 36.6545 462.877 37.0201 463.364C37.3248 463.852 37.4772 464.37 37.4772 464.918C37.4772 465.406 37.3553 465.832 37.1115 466.198C36.8678 466.625 36.5326 466.96 36.106 467.204C35.6794 467.386 35.1614 467.478 34.552 467.478ZM34.8263 461.902C35.1919 461.658 35.4966 461.353 35.7404 460.988C35.9841 460.683 36.106 460.348 36.106 459.982C36.106 459.556 35.9841 459.22 35.7404 458.977C35.4357 458.733 35.07 458.611 34.6435 458.611C34.1559 458.611 33.7598 458.733 33.4551 458.977C33.2114 459.22 33.0895 459.525 33.0895 459.891C33.0895 460.317 33.2418 460.683 33.5465 460.988C33.7903 461.231 34.2169 461.536 34.8263 461.902ZM34.552 466.564C35.1614 466.564 35.6185 466.411 35.9232 466.107C36.2279 465.802 36.3803 465.406 36.3803 464.918C36.3803 464.431 36.1974 463.974 35.8318 463.547C35.4662 463.182 34.9786 462.907 34.3692 462.724C33.8817 462.907 33.4856 463.182 33.1809 463.547C32.8762 463.974 32.7238 464.4 32.7238 464.827C32.7238 465.314 32.9067 465.711 33.2723 466.015C33.577 466.381 34.0036 466.564 34.552 466.564ZM40.5851 456.691V380.729H41.6821V456.691H40.5851ZM42.779 456.691V380.729H46.0697V456.691H42.779ZM42.1391 457.697C42.7485 457.697 43.297 457.88 43.7845 458.245C44.2111 458.611 44.5462 459.099 44.79 459.708C45.0338 460.317 45.1556 461.018 45.1556 461.81C45.1556 463.7 44.8814 465.101 44.3329 466.015C43.7235 466.99 42.9009 467.478 41.8649 467.478C40.9508 467.478 40.189 467.204 39.5796 466.655L40.4023 465.741L40.4937 465.832C40.4937 465.954 40.4937 466.046 40.4937 466.107C40.5547 466.168 40.6461 466.229 40.7679 466.289C41.0726 466.472 41.4078 466.564 41.7735 466.564C42.5047 466.564 43.0532 466.229 43.4188 465.558C43.7845 464.888 43.9978 464.035 44.0587 462.999C43.815 463.242 43.5407 463.425 43.236 463.547C42.9313 463.669 42.5962 463.73 42.2305 463.73C41.6821 463.73 41.1945 463.608 40.7679 463.364C40.3414 463.121 40.0062 462.785 39.7624 462.359C39.5187 461.932 39.3968 461.414 39.3968 460.805C39.3968 460.256 39.5187 459.738 39.7624 459.251C40.0062 458.763 40.3414 458.398 40.7679 458.154C41.1945 457.849 41.6516 457.697 42.1391 457.697ZM42.2305 462.816C42.6571 462.816 43.0227 462.755 43.3274 462.633C43.6321 462.511 43.8759 462.298 44.0587 461.993C44.0587 460.896 43.9064 460.074 43.6017 459.525C43.297 458.977 42.8399 458.702 42.2305 458.702C41.6821 458.702 41.2555 458.885 40.9508 459.251C40.6461 459.617 40.4937 460.135 40.4937 460.805C40.4937 461.414 40.6461 461.902 40.9508 462.267C41.3164 462.633 41.743 462.816 42.2305 462.816ZM48.355 456.691V380.729H49.3605V456.691H48.355ZM52.7427 456.691V380.729H53.7482V456.691H52.7427ZM48.4464 467.386C49.3605 464.461 50.3356 461.597 51.3715 458.794H47.2581V457.788H52.7427V458.428C51.463 461.597 50.427 464.583 49.6347 467.386H48.4464ZM57.039 456.691V380.729H59.2328V456.691H57.039ZM60.3297 456.691V380.729H61.4267V456.691H60.3297ZM57.5874 457.697C58.5015 457.697 59.2328 458.154 59.7813 459.068C60.2688 459.921 60.5126 461.11 60.5126 462.633C60.5126 464.218 60.2688 465.436 59.7813 466.289C59.2938 467.143 58.5625 467.569 57.5874 467.569C56.6124 467.569 55.8811 467.143 55.3936 466.289C54.9061 465.436 54.6623 464.218 54.6623 462.633C54.6623 461.11 54.9061 459.921 55.3936 459.068C55.9421 458.154 56.6733 457.697 57.5874 457.697ZM57.5874 458.702C56.978 458.702 56.521 459.038 56.2163 459.708C55.9116 460.439 55.7592 461.414 55.7592 462.633C55.7592 463.303 55.7897 463.882 55.8506 464.37L59.1414 460.165C58.9586 459.677 58.7453 459.312 58.5015 459.068C58.2578 458.824 57.9531 458.702 57.5874 458.702ZM57.5874 466.564C58.1968 466.564 58.6539 466.229 58.9586 465.558C59.2633 464.888 59.4156 463.913 59.4156 462.633C59.4156 462.024 59.3852 461.506 59.3242 461.079L56.1249 465.193C56.4296 466.107 56.9171 466.564 57.5874 466.564ZM63.7119 456.691V380.729H64.7174V456.691H63.7119ZM67.0027 456.691V380.729H69.1051V456.691H67.0027ZM62.5236 466.472L63.8033 465.193C64.5956 464.4 65.205 463.76 65.6315 463.273C66.0581 462.785 66.3933 462.328 66.6371 461.902C66.8808 461.414 67.0027 460.927 67.0027 460.439C67.0027 459.83 66.8503 459.373 66.5456 459.068C66.2409 458.824 65.8448 458.702 65.3573 458.702C64.626 458.702 63.9862 459.007 63.4377 459.617C63.3158 459.799 63.2549 459.952 63.2549 460.074C63.2549 460.135 63.2549 460.165 63.2549 460.165V460.256L63.0721 460.165L62.3408 459.617C62.6455 459.007 63.0721 458.55 63.6205 458.245C64.108 457.88 64.687 457.697 65.3573 457.697C66.2105 457.697 66.8808 457.941 67.3683 458.428C67.8559 458.916 68.0996 459.586 68.0996 460.439C68.0996 460.988 67.9777 461.536 67.734 462.085C67.4902 462.572 67.155 463.06 66.7285 463.547C66.3019 464.035 65.723 464.644 64.9917 465.375L63.8947 466.381H67.4597C67.6426 466.381 67.7644 466.381 67.8254 466.381C67.9473 466.381 68.0387 466.35 68.0996 466.289H68.191V467.386H62.5236V466.472ZM71.299 456.691V380.729H72.3959V456.691H71.299ZM73.4928 456.691V380.729H76.7836V456.691H73.4928ZM72.853 457.697C73.4624 457.697 74.0108 457.88 74.4983 458.245C74.9249 458.611 75.2601 459.099 75.5039 459.708C75.7476 460.317 75.8695 461.018 75.8695 461.81C75.8695 463.7 75.5953 465.101 75.0468 466.015C74.4374 466.99 73.6147 467.478 72.5787 467.478C71.6646 467.478 70.9029 467.204 70.2935 466.655L71.1162 465.741L71.2076 465.832C71.2076 465.954 71.2076 466.046 71.2076 466.107C71.2685 466.168 71.3599 466.229 71.4818 466.289C71.7865 466.472 72.1217 466.564 72.4873 466.564C73.2186 466.564 73.7671 466.229 74.1327 465.558C74.4983 464.888 74.7116 464.035 74.7726 462.999C74.5288 463.242 74.2546 463.425 73.9499 463.547C73.6452 463.669 73.31 463.73 72.9444 463.73C72.3959 463.73 71.9084 463.608 71.4818 463.364C71.0552 463.121 70.72 462.785 70.4763 462.359C70.2325 461.932 70.1106 461.414 70.1106 460.805C70.1106 460.256 70.2325 459.738 70.4763 459.251C70.72 458.763 71.0552 458.398 71.4818 458.154C71.9084 457.849 72.3654 457.697 72.853 457.697ZM72.9444 462.816C73.3709 462.816 73.7366 462.755 74.0413 462.633C74.346 462.511 74.5897 462.298 74.7726 461.993C74.7726 460.896 74.6202 460.074 74.3155 459.525C74.0108 458.977 73.5538 458.702 72.9444 458.702C72.3959 458.702 71.9693 458.885 71.6646 459.251C71.3599 459.617 71.2076 460.135 71.2076 460.805C71.2076 461.414 71.3599 461.902 71.6646 462.267C72.0303 462.633 72.4568 462.816 72.9444 462.816ZM78.9774 456.691V380.729H82.2682V456.691H78.9774ZM83.3651 456.691V380.729H84.4621V456.691H83.3651ZM81.6283 465.01H77.5149V464.187L81.9026 457.788H82.8167V464.096H84.005V465.01H82.8167V467.386H81.6283V465.01ZM81.6283 464.096V459.708L78.7946 464.096H81.6283Z" fill="white"/>
</g>
<g clip-path="url(#clip2_4751_6932)">
<path opacity="0.3" d="M2.28422 380.749V304.787H4.38666V380.749H2.28422ZM6.67191 380.749V304.787H7.67743V380.749H6.67191ZM3.56396 383.126L1.55294 383.766L1.37012 383.126L3.83819 381.846H4.56948V391.444H3.56396V383.126ZM8.77435 380.749V304.787H9.87127V380.749H8.77435ZM13.162 380.749V304.787H15.3559V380.749H13.162ZM12.5222 389.067H8.40871V388.245L12.7964 381.846H13.7105V388.153H14.8988V389.067H13.7105V391.444H12.5222V389.067ZM12.5222 388.153V383.766L9.68845 388.153H12.5222ZM18.6467 380.749V304.787H20.8405V380.749H18.6467ZM21.9374 380.749V304.787H23.0344V380.749H21.9374ZM19.1951 381.755C20.1092 381.755 20.8405 382.212 21.389 383.126C21.8765 383.979 22.1202 385.167 22.1202 386.691C22.1202 388.275 21.8765 389.494 21.389 390.347C20.9014 391.2 20.1702 391.627 19.1951 391.627C18.2201 391.627 17.4888 391.2 17.0013 390.347C16.5138 389.494 16.27 388.275 16.27 386.691C16.27 385.167 16.5138 383.979 17.0013 383.126C17.5497 382.212 18.281 381.755 19.1951 381.755ZM19.1951 382.76C18.5857 382.76 18.1287 383.095 17.824 383.766C17.5193 384.497 17.3669 385.472 17.3669 386.691C17.3669 387.361 17.3974 387.94 17.4583 388.427L20.7491 384.223C20.5663 383.735 20.353 383.369 20.1092 383.126C19.8655 382.882 19.5608 382.76 19.1951 382.76ZM19.1951 390.621C19.8045 390.621 20.2616 390.286 20.5663 389.616C20.871 388.945 21.0233 387.97 21.0233 386.691C21.0233 386.081 20.9929 385.563 20.9319 385.137L17.7326 389.25C18.0373 390.164 18.5248 390.621 19.1951 390.621ZM25.3196 380.749V304.787H27.422V380.749H25.3196ZM29.7073 380.749V304.787H30.7128V380.749H29.7073ZM26.5994 383.126L24.5883 383.766L24.4055 383.126L26.8736 381.846H27.6049V391.444H26.5994V383.126ZM34.095 380.749V304.787H35.1005V380.749H34.095ZM37.3858 380.749V304.787H38.3913V380.749H37.3858ZM34.552 391.535C33.9426 391.535 33.4247 391.444 32.9981 391.261C32.5715 391.017 32.2363 390.713 31.9926 390.347C31.7488 389.921 31.6269 389.463 31.6269 388.976C31.6269 388.427 31.8097 387.909 32.1754 387.422C32.541 386.934 32.9981 386.569 33.5465 386.325C33.12 386.081 32.7543 385.777 32.4496 385.411C32.2059 384.984 32.084 384.558 32.084 384.131C32.084 383.4 32.2973 382.821 32.7238 382.394C33.2114 381.968 33.8512 381.755 34.6435 381.755C35.4966 381.755 36.1365 381.968 36.5631 382.394C36.9897 382.821 37.2029 383.369 37.2029 384.04C37.2029 384.466 37.0506 384.893 36.7459 385.32C36.4412 385.746 36.0756 386.081 35.649 386.325C36.1974 386.569 36.6545 386.934 37.0201 387.422C37.3248 387.909 37.4772 388.427 37.4772 388.976C37.4772 389.463 37.3553 389.89 37.1115 390.256C36.8678 390.682 36.5326 391.017 36.106 391.261C35.6794 391.444 35.1614 391.535 34.552 391.535ZM34.8263 385.959C35.1919 385.716 35.4966 385.411 35.7404 385.045C35.9841 384.741 36.106 384.405 36.106 384.04C36.106 383.613 35.9841 383.278 35.7404 383.034C35.4357 382.791 35.07 382.669 34.6435 382.669C34.1559 382.669 33.7598 382.791 33.4551 383.034C33.2114 383.278 33.0895 383.583 33.0895 383.948C33.0895 384.375 33.2418 384.741 33.5465 385.045C33.7903 385.289 34.2169 385.594 34.8263 385.959ZM34.552 390.621C35.1614 390.621 35.6185 390.469 35.9232 390.164C36.2279 389.86 36.3803 389.463 36.3803 388.976C36.3803 388.488 36.1974 388.031 35.8318 387.605C35.4662 387.239 34.9786 386.965 34.3692 386.782C33.8817 386.965 33.4856 387.239 33.1809 387.605C32.8762 388.031 32.7238 388.458 32.7238 388.885C32.7238 389.372 32.9067 389.768 33.2723 390.073C33.577 390.439 34.0036 390.621 34.552 390.621ZM40.5851 380.749V304.787H41.6821V380.749H40.5851ZM42.779 380.749V304.787H46.0697V380.749H42.779ZM42.1391 381.755C42.7485 381.755 43.297 381.937 43.7845 382.303C44.2111 382.669 44.5462 383.156 44.79 383.766C45.0338 384.375 45.1556 385.076 45.1556 385.868C45.1556 387.757 44.8814 389.159 44.3329 390.073C43.7235 391.048 42.9009 391.535 41.8649 391.535C40.9508 391.535 40.189 391.261 39.5796 390.713L40.4023 389.799L40.4937 389.89C40.4937 390.012 40.4937 390.103 40.4937 390.164C40.5547 390.225 40.6461 390.286 40.7679 390.347C41.0726 390.53 41.4078 390.621 41.7735 390.621C42.5047 390.621 43.0532 390.286 43.4188 389.616C43.7845 388.945 43.9978 388.092 44.0587 387.056C43.815 387.3 43.5407 387.483 43.236 387.605C42.9313 387.727 42.5962 387.788 42.2305 387.788C41.6821 387.788 41.1945 387.666 40.7679 387.422C40.3414 387.178 40.0062 386.843 39.7624 386.416C39.5187 385.99 39.3968 385.472 39.3968 384.862C39.3968 384.314 39.5187 383.796 39.7624 383.309C40.0062 382.821 40.3414 382.455 40.7679 382.212C41.1945 381.907 41.6516 381.755 42.1391 381.755ZM42.2305 386.874C42.6571 386.874 43.0227 386.813 43.3274 386.691C43.6321 386.569 43.8759 386.356 44.0587 386.051C44.0587 384.954 43.9064 384.131 43.6017 383.583C43.297 383.034 42.8399 382.76 42.2305 382.76C41.6821 382.76 41.2555 382.943 40.9508 383.309C40.6461 383.674 40.4937 384.192 40.4937 384.862C40.4937 385.472 40.6461 385.959 40.9508 386.325C41.3164 386.691 41.743 386.874 42.2305 386.874ZM48.355 380.749V304.787H49.3605V380.749H48.355ZM52.7427 380.749V304.787H53.7482V380.749H52.7427ZM48.4464 391.444C49.3605 388.519 50.3356 385.655 51.3715 382.851H47.2581V381.846H52.7427V382.486C51.463 385.655 50.427 388.641 49.6347 391.444H48.4464ZM57.039 380.749V304.787H59.2328V380.749H57.039ZM60.3297 380.749V304.787H61.4267V380.749H60.3297ZM57.5874 381.755C58.5015 381.755 59.2328 382.212 59.7813 383.126C60.2688 383.979 60.5126 385.167 60.5126 386.691C60.5126 388.275 60.2688 389.494 59.7813 390.347C59.2938 391.2 58.5625 391.627 57.5874 391.627C56.6124 391.627 55.8811 391.2 55.3936 390.347C54.9061 389.494 54.6623 388.275 54.6623 386.691C54.6623 385.167 54.9061 383.979 55.3936 383.126C55.9421 382.212 56.6733 381.755 57.5874 381.755ZM57.5874 382.76C56.978 382.76 56.521 383.095 56.2163 383.766C55.9116 384.497 55.7592 385.472 55.7592 386.691C55.7592 387.361 55.7897 387.94 55.8506 388.427L59.1414 384.223C58.9586 383.735 58.7453 383.369 58.5015 383.126C58.2578 382.882 57.9531 382.76 57.5874 382.76ZM57.5874 390.621C58.1968 390.621 58.6539 390.286 58.9586 389.616C59.2633 388.945 59.4156 387.97 59.4156 386.691C59.4156 386.081 59.3852 385.563 59.3242 385.137L56.1249 389.25C56.4296 390.164 56.9171 390.621 57.5874 390.621ZM63.7119 380.749V304.787H64.7174V380.749H63.7119ZM67.0027 380.749V304.787H69.1051V380.749H67.0027ZM62.5236 390.53L63.8033 389.25C64.5956 388.458 65.205 387.818 65.6315 387.331C66.0581 386.843 66.3933 386.386 66.6371 385.959C66.8808 385.472 67.0027 384.984 67.0027 384.497C67.0027 383.887 66.8503 383.43 66.5456 383.126C66.2409 382.882 65.8448 382.76 65.3573 382.76C64.626 382.76 63.9862 383.065 63.4377 383.674C63.3158 383.857 63.2549 384.009 63.2549 384.131C63.2549 384.192 63.2549 384.223 63.2549 384.223V384.314L63.0721 384.223L62.3408 383.674C62.6455 383.065 63.0721 382.608 63.6205 382.303C64.108 381.937 64.687 381.755 65.3573 381.755C66.2105 381.755 66.8808 381.998 67.3683 382.486C67.8559 382.973 68.0996 383.644 68.0996 384.497C68.0996 385.045 67.9777 385.594 67.734 386.142C67.4902 386.63 67.155 387.117 66.7285 387.605C66.3019 388.092 65.723 388.702 64.9917 389.433L63.8947 390.439H67.4597C67.6426 390.439 67.7644 390.439 67.8254 390.439C67.9473 390.439 68.0387 390.408 68.0996 390.347H68.191V391.444H62.5236V390.53ZM71.299 380.749V304.787H72.3959V380.749H71.299ZM73.4928 380.749V304.787H76.7836V380.749H73.4928ZM72.853 381.755C73.4624 381.755 74.0108 381.937 74.4983 382.303C74.9249 382.669 75.2601 383.156 75.5039 383.766C75.7476 384.375 75.8695 385.076 75.8695 385.868C75.8695 387.757 75.5953 389.159 75.0468 390.073C74.4374 391.048 73.6147 391.535 72.5787 391.535C71.6646 391.535 70.9029 391.261 70.2935 390.713L71.1162 389.799L71.2076 389.89C71.2076 390.012 71.2076 390.103 71.2076 390.164C71.2685 390.225 71.3599 390.286 71.4818 390.347C71.7865 390.53 72.1217 390.621 72.4873 390.621C73.2186 390.621 73.7671 390.286 74.1327 389.616C74.4983 388.945 74.7116 388.092 74.7726 387.056C74.5288 387.3 74.2546 387.483 73.9499 387.605C73.6452 387.727 73.31 387.788 72.9444 387.788C72.3959 387.788 71.9084 387.666 71.4818 387.422C71.0552 387.178 70.72 386.843 70.4763 386.416C70.2325 385.99 70.1106 385.472 70.1106 384.862C70.1106 384.314 70.2325 383.796 70.4763 383.309C70.72 382.821 71.0552 382.455 71.4818 382.212C71.9084 381.907 72.3654 381.755 72.853 381.755ZM72.9444 386.874C73.3709 386.874 73.7366 386.813 74.0413 386.691C74.346 386.569 74.5897 386.356 74.7726 386.051C74.7726 384.954 74.6202 384.131 74.3155 383.583C74.0108 383.034 73.5538 382.76 72.9444 382.76C72.3959 382.76 71.9693 382.943 71.6646 383.309C71.3599 383.674 71.2076 384.192 71.2076 384.862C71.2076 385.472 71.3599 385.959 71.6646 386.325C72.0303 386.691 72.4568 386.874 72.9444 386.874ZM78.9774 380.749V304.787H82.2682V380.749H78.9774ZM83.3651 380.749V304.787H84.4621V380.749H83.3651ZM81.6283 389.067H77.5149V388.245L81.9026 381.846H82.8167V388.153H84.005V389.067H82.8167V391.444H81.6283V389.067ZM81.6283 388.153V383.766L78.7946 388.153H81.6283Z" fill="white"/>
</g>
<g clip-path="url(#clip3_4751_6932)">
<path opacity="0.3" d="M2.28422 304.808V228.846H4.38666V304.808H2.28422ZM6.67191 304.808V228.846H7.67743V304.808H6.67191ZM3.56396 307.184L1.55294 307.824L1.37012 307.184L3.83819 305.905H4.56948V315.503H3.56396V307.184ZM8.77435 304.808V228.846H9.87127V304.808H8.77435ZM13.162 304.808V228.846H15.3559V304.808H13.162ZM12.5222 313.126H8.40871V312.303L12.7964 305.905H13.7105V312.212H14.8988V313.126H13.7105V315.503H12.5222V313.126ZM12.5222 312.212V307.824L9.68845 312.212H12.5222ZM18.6467 304.808V228.846H20.8405V304.808H18.6467ZM21.9374 304.808V228.846H23.0344V304.808H21.9374ZM19.1951 305.813C20.1092 305.813 20.8405 306.27 21.389 307.184C21.8765 308.037 22.1202 309.226 22.1202 310.749C22.1202 312.334 21.8765 313.553 21.389 314.406C20.9014 315.259 20.1702 315.685 19.1951 315.685C18.2201 315.685 17.4888 315.259 17.0013 314.406C16.5138 313.553 16.27 312.334 16.27 310.749C16.27 309.226 16.5138 308.037 17.0013 307.184C17.5497 306.27 18.281 305.813 19.1951 305.813ZM19.1951 306.819C18.5857 306.819 18.1287 307.154 17.824 307.824C17.5193 308.555 17.3669 309.53 17.3669 310.749C17.3669 311.42 17.3974 311.999 17.4583 312.486L20.7491 308.281C20.5663 307.794 20.353 307.428 20.1092 307.184C19.8655 306.941 19.5608 306.819 19.1951 306.819ZM19.1951 314.68C19.8045 314.68 20.2616 314.345 20.5663 313.674C20.871 313.004 21.0233 312.029 21.0233 310.749C21.0233 310.14 20.9929 309.622 20.9319 309.195L17.7326 313.309C18.0373 314.223 18.5248 314.68 19.1951 314.68ZM25.3196 304.808V228.846H27.422V304.808H25.3196ZM29.7073 304.808V228.846H30.7128V304.808H29.7073ZM26.5994 307.184L24.5883 307.824L24.4055 307.184L26.8736 305.905H27.6049V315.503H26.5994V307.184ZM34.095 304.808V228.846H35.1005V304.808H34.095ZM37.3858 304.808V228.846H38.3913V304.808H37.3858ZM34.552 315.594C33.9426 315.594 33.4247 315.503 32.9981 315.32C32.5715 315.076 32.2363 314.771 31.9926 314.406C31.7488 313.979 31.6269 313.522 31.6269 313.035C31.6269 312.486 31.8097 311.968 32.1754 311.481C32.541 310.993 32.9981 310.627 33.5465 310.384C33.12 310.14 32.7543 309.835 32.4496 309.47C32.2059 309.043 32.084 308.616 32.084 308.19C32.084 307.459 32.2973 306.88 32.7238 306.453C33.2114 306.026 33.8512 305.813 34.6435 305.813C35.4966 305.813 36.1365 306.026 36.5631 306.453C36.9897 306.88 37.2029 307.428 37.2029 308.098C37.2029 308.525 37.0506 308.952 36.7459 309.378C36.4412 309.805 36.0756 310.14 35.649 310.384C36.1974 310.627 36.6545 310.993 37.0201 311.481C37.3248 311.968 37.4772 312.486 37.4772 313.035C37.4772 313.522 37.3553 313.949 37.1115 314.314C36.8678 314.741 36.5326 315.076 36.106 315.32C35.6794 315.503 35.1614 315.594 34.552 315.594ZM34.8263 310.018C35.1919 309.774 35.4966 309.47 35.7404 309.104C35.9841 308.799 36.106 308.464 36.106 308.098C36.106 307.672 35.9841 307.337 35.7404 307.093C35.4357 306.849 35.07 306.727 34.6435 306.727C34.1559 306.727 33.7598 306.849 33.4551 307.093C33.2114 307.337 33.0895 307.641 33.0895 308.007C33.0895 308.434 33.2418 308.799 33.5465 309.104C33.7903 309.348 34.2169 309.652 34.8263 310.018ZM34.552 314.68C35.1614 314.68 35.6185 314.528 35.9232 314.223C36.2279 313.918 36.3803 313.522 36.3803 313.035C36.3803 312.547 36.1974 312.09 35.8318 311.663C35.4662 311.298 34.9786 311.024 34.3692 310.841C33.8817 311.024 33.4856 311.298 33.1809 311.663C32.8762 312.09 32.7238 312.517 32.7238 312.943C32.7238 313.431 32.9067 313.827 33.2723 314.131C33.577 314.497 34.0036 314.68 34.552 314.68ZM40.5851 304.808V228.846H41.6821V304.808H40.5851ZM42.779 304.808V228.846H46.0697V304.808H42.779ZM42.1391 305.813C42.7485 305.813 43.297 305.996 43.7845 306.362C44.2111 306.727 44.5462 307.215 44.79 307.824C45.0338 308.434 45.1556 309.134 45.1556 309.927C45.1556 311.816 44.8814 313.217 44.3329 314.131C43.7235 315.107 42.9009 315.594 41.8649 315.594C40.9508 315.594 40.189 315.32 39.5796 314.771L40.4023 313.857L40.4937 313.949C40.4937 314.071 40.4937 314.162 40.4937 314.223C40.5547 314.284 40.6461 314.345 40.7679 314.406C41.0726 314.589 41.4078 314.68 41.7735 314.68C42.5047 314.68 43.0532 314.345 43.4188 313.674C43.7845 313.004 43.9978 312.151 44.0587 311.115C43.815 311.359 43.5407 311.542 43.236 311.663C42.9313 311.785 42.5962 311.846 42.2305 311.846C41.6821 311.846 41.1945 311.724 40.7679 311.481C40.3414 311.237 40.0062 310.902 39.7624 310.475C39.5187 310.048 39.3968 309.53 39.3968 308.921C39.3968 308.373 39.5187 307.855 39.7624 307.367C40.0062 306.88 40.3414 306.514 40.7679 306.27C41.1945 305.965 41.6516 305.813 42.1391 305.813ZM42.2305 310.932C42.6571 310.932 43.0227 310.871 43.3274 310.749C43.6321 310.627 43.8759 310.414 44.0587 310.109C44.0587 309.012 43.9064 308.19 43.6017 307.641C43.297 307.093 42.8399 306.819 42.2305 306.819C41.6821 306.819 41.2555 307.001 40.9508 307.367C40.6461 307.733 40.4937 308.251 40.4937 308.921C40.4937 309.53 40.6461 310.018 40.9508 310.384C41.3164 310.749 41.743 310.932 42.2305 310.932ZM48.355 304.808V228.846H49.3605V304.808H48.355ZM52.7427 304.808V228.846H53.7482V304.808H52.7427ZM48.4464 315.503C49.3605 312.577 50.3356 309.713 51.3715 306.91H47.2581V305.905H52.7427V306.544C51.463 309.713 50.427 312.699 49.6347 315.503H48.4464ZM57.039 304.808V228.846H59.2328V304.808H57.039ZM60.3297 304.808V228.846H61.4267V304.808H60.3297ZM57.5874 305.813C58.5015 305.813 59.2328 306.27 59.7813 307.184C60.2688 308.037 60.5126 309.226 60.5126 310.749C60.5126 312.334 60.2688 313.553 59.7813 314.406C59.2938 315.259 58.5625 315.685 57.5874 315.685C56.6124 315.685 55.8811 315.259 55.3936 314.406C54.9061 313.553 54.6623 312.334 54.6623 310.749C54.6623 309.226 54.9061 308.037 55.3936 307.184C55.9421 306.27 56.6733 305.813 57.5874 305.813ZM57.5874 306.819C56.978 306.819 56.521 307.154 56.2163 307.824C55.9116 308.555 55.7592 309.53 55.7592 310.749C55.7592 311.42 55.7897 311.999 55.8506 312.486L59.1414 308.281C58.9586 307.794 58.7453 307.428 58.5015 307.184C58.2578 306.941 57.9531 306.819 57.5874 306.819ZM57.5874 314.68C58.1968 314.68 58.6539 314.345 58.9586 313.674C59.2633 313.004 59.4156 312.029 59.4156 310.749C59.4156 310.14 59.3852 309.622 59.3242 309.195L56.1249 313.309C56.4296 314.223 56.9171 314.68 57.5874 314.68ZM63.7119 304.808V228.846H64.7174V304.808H63.7119ZM67.0027 304.808V228.846H69.1051V304.808H67.0027ZM62.5236 314.589L63.8033 313.309C64.5956 312.517 65.205 311.877 65.6315 311.389C66.0581 310.902 66.3933 310.445 66.6371 310.018C66.8808 309.53 67.0027 309.043 67.0027 308.555C67.0027 307.946 66.8503 307.489 66.5456 307.184C66.2409 306.941 65.8448 306.819 65.3573 306.819C64.626 306.819 63.9862 307.123 63.4377 307.733C63.3158 307.916 63.2549 308.068 63.2549 308.19C63.2549 308.251 63.2549 308.281 63.2549 308.281V308.373L63.0721 308.281L62.3408 307.733C62.6455 307.123 63.0721 306.666 63.6205 306.362C64.108 305.996 64.687 305.813 65.3573 305.813C66.2105 305.813 66.8808 306.057 67.3683 306.544C67.8559 307.032 68.0996 307.702 68.0996 308.555C68.0996 309.104 67.9777 309.652 67.734 310.201C67.4902 310.688 67.155 311.176 66.7285 311.663C66.3019 312.151 65.723 312.76 64.9917 313.492L63.8947 314.497H67.4597C67.6426 314.497 67.7644 314.497 67.8254 314.497C67.9473 314.497 68.0387 314.467 68.0996 314.406H68.191V315.503H62.5236V314.589ZM71.299 304.808V228.846H72.3959V304.808H71.299ZM73.4928 304.808V228.846H76.7836V304.808H73.4928ZM72.853 305.813C73.4624 305.813 74.0108 305.996 74.4983 306.362C74.9249 306.727 75.2601 307.215 75.5039 307.824C75.7476 308.434 75.8695 309.134 75.8695 309.927C75.8695 311.816 75.5953 313.217 75.0468 314.131C74.4374 315.107 73.6147 315.594 72.5787 315.594C71.6646 315.594 70.9029 315.32 70.2935 314.771L71.1162 313.857L71.2076 313.949C71.2076 314.071 71.2076 314.162 71.2076 314.223C71.2685 314.284 71.3599 314.345 71.4818 314.406C71.7865 314.589 72.1217 314.68 72.4873 314.68C73.2186 314.68 73.7671 314.345 74.1327 313.674C74.4983 313.004 74.7116 312.151 74.7726 311.115C74.5288 311.359 74.2546 311.542 73.9499 311.663C73.6452 311.785 73.31 311.846 72.9444 311.846C72.3959 311.846 71.9084 311.724 71.4818 311.481C71.0552 311.237 70.72 310.902 70.4763 310.475C70.2325 310.048 70.1106 309.53 70.1106 308.921C70.1106 308.373 70.2325 307.855 70.4763 307.367C70.72 306.88 71.0552 306.514 71.4818 306.27C71.9084 305.965 72.3654 305.813 72.853 305.813ZM72.9444 310.932C73.3709 310.932 73.7366 310.871 74.0413 310.749C74.346 310.627 74.5897 310.414 74.7726 310.109C74.7726 309.012 74.6202 308.19 74.3155 307.641C74.0108 307.093 73.5538 306.819 72.9444 306.819C72.3959 306.819 71.9693 307.001 71.6646 307.367C71.3599 307.733 71.2076 308.251 71.2076 308.921C71.2076 309.53 71.3599 310.018 71.6646 310.384C72.0303 310.749 72.4568 310.932 72.9444 310.932ZM78.9774 304.808V228.846H82.2682V304.808H78.9774ZM83.3651 304.808V228.846H84.4621V304.808H83.3651ZM81.6283 313.126H77.5149V312.303L81.9026 305.905H82.8167V312.212H84.005V313.126H82.8167V315.503H81.6283V313.126ZM81.6283 312.212V307.824L78.7946 312.212H81.6283Z" fill="white"/>
</g>
<g clip-path="url(#clip4_4751_6932)">
<path opacity="0.3" d="M2.28422 228.875V152.913H4.38666V228.875H2.28422ZM6.67191 228.875V152.913H7.67743V228.875H6.67191ZM3.56396 231.252L1.55294 231.892L1.37012 231.252L3.83819 229.972H4.56948V239.57H3.56396V231.252ZM8.77435 228.875V152.913H9.87127V228.875H8.77435ZM13.162 228.875V152.913H15.3559V228.875H13.162ZM12.5222 237.193H8.40871V236.371L12.7964 229.972H13.7105V236.279H14.8988V237.193H13.7105V239.57H12.5222V237.193ZM12.5222 236.279V231.892L9.68845 236.279H12.5222ZM18.6467 228.875V152.913H20.8405V228.875H18.6467ZM21.9374 228.875V152.913H23.0344V228.875H21.9374ZM19.1951 229.881C20.1092 229.881 20.8405 230.338 21.389 231.252C21.8765 232.105 22.1202 233.293 22.1202 234.817C22.1202 236.401 21.8765 237.62 21.389 238.473C20.9014 239.326 20.1702 239.753 19.1951 239.753C18.2201 239.753 17.4888 239.326 17.0013 238.473C16.5138 237.62 16.27 236.401 16.27 234.817C16.27 233.293 16.5138 232.105 17.0013 231.252C17.5497 230.338 18.281 229.881 19.1951 229.881ZM19.1951 230.886C18.5857 230.886 18.1287 231.221 17.824 231.892C17.5193 232.623 17.3669 233.598 17.3669 234.817C17.3669 235.487 17.3974 236.066 17.4583 236.553L20.7491 232.349C20.5663 231.861 20.353 231.495 20.1092 231.252C19.8655 231.008 19.5608 230.886 19.1951 230.886ZM19.1951 238.747C19.8045 238.747 20.2616 238.412 20.5663 237.742C20.871 237.071 21.0233 236.096 21.0233 234.817C21.0233 234.207 20.9929 233.689 20.9319 233.263L17.7326 237.376C18.0373 238.29 18.5248 238.747 19.1951 238.747ZM25.3196 228.875V152.913H27.422V228.875H25.3196ZM29.7073 228.875V152.913H30.7128V228.875H29.7073ZM26.5994 231.252L24.5883 231.892L24.4055 231.252L26.8736 229.972H27.6049V239.57H26.5994V231.252ZM34.095 228.875V152.913H35.1005V228.875H34.095ZM37.3858 228.875V152.913H38.3913V228.875H37.3858ZM34.552 239.661C33.9426 239.661 33.4247 239.57 32.9981 239.387C32.5715 239.143 32.2363 238.839 31.9926 238.473C31.7488 238.046 31.6269 237.589 31.6269 237.102C31.6269 236.553 31.8097 236.035 32.1754 235.548C32.541 235.06 32.9981 234.695 33.5465 234.451C33.12 234.207 32.7543 233.903 32.4496 233.537C32.2059 233.11 32.084 232.684 32.084 232.257C32.084 231.526 32.2973 230.947 32.7238 230.52C33.2114 230.094 33.8512 229.881 34.6435 229.881C35.4966 229.881 36.1365 230.094 36.5631 230.52C36.9897 230.947 37.2029 231.495 37.2029 232.166C37.2029 232.592 37.0506 233.019 36.7459 233.446C36.4412 233.872 36.0756 234.207 35.649 234.451C36.1974 234.695 36.6545 235.06 37.0201 235.548C37.3248 236.035 37.4772 236.553 37.4772 237.102C37.4772 237.589 37.3553 238.016 37.1115 238.382C36.8678 238.808 36.5326 239.143 36.106 239.387C35.6794 239.57 35.1614 239.661 34.552 239.661ZM34.8263 234.085C35.1919 233.842 35.4966 233.537 35.7404 233.171C35.9841 232.867 36.106 232.531 36.106 232.166C36.106 231.739 35.9841 231.404 35.7404 231.16C35.4357 230.916 35.07 230.795 34.6435 230.795C34.1559 230.795 33.7598 230.916 33.4551 231.16C33.2114 231.404 33.0895 231.709 33.0895 232.074C33.0895 232.501 33.2418 232.867 33.5465 233.171C33.7903 233.415 34.2169 233.72 34.8263 234.085ZM34.552 238.747C35.1614 238.747 35.6185 238.595 35.9232 238.29C36.2279 237.986 36.3803 237.589 36.3803 237.102C36.3803 236.614 36.1974 236.157 35.8318 235.731C35.4662 235.365 34.9786 235.091 34.3692 234.908C33.8817 235.091 33.4856 235.365 33.1809 235.731C32.8762 236.157 32.7238 236.584 32.7238 237.011C32.7238 237.498 32.9067 237.894 33.2723 238.199C33.577 238.564 34.0036 238.747 34.552 238.747ZM40.5851 228.875V152.913H41.6821V228.875H40.5851ZM42.779 228.875V152.913H46.0697V228.875H42.779ZM42.1391 229.881C42.7485 229.881 43.297 230.063 43.7845 230.429C44.2111 230.795 44.5462 231.282 44.79 231.892C45.0338 232.501 45.1556 233.202 45.1556 233.994C45.1556 235.883 44.8814 237.285 44.3329 238.199C43.7235 239.174 42.9009 239.661 41.8649 239.661C40.9508 239.661 40.189 239.387 39.5796 238.839L40.4023 237.925L40.4937 238.016C40.4937 238.138 40.4937 238.229 40.4937 238.29C40.5547 238.351 40.6461 238.412 40.7679 238.473C41.0726 238.656 41.4078 238.747 41.7735 238.747C42.5047 238.747 43.0532 238.412 43.4188 237.742C43.7845 237.071 43.9978 236.218 44.0587 235.182C43.815 235.426 43.5407 235.609 43.236 235.731C42.9313 235.853 42.5962 235.914 42.2305 235.914C41.6821 235.914 41.1945 235.792 40.7679 235.548C40.3414 235.304 40.0062 234.969 39.7624 234.542C39.5187 234.116 39.3968 233.598 39.3968 232.988C39.3968 232.44 39.5187 231.922 39.7624 231.434C40.0062 230.947 40.3414 230.581 40.7679 230.338C41.1945 230.033 41.6516 229.881 42.1391 229.881ZM42.2305 234.999C42.6571 234.999 43.0227 234.939 43.3274 234.817C43.6321 234.695 43.8759 234.481 44.0587 234.177C44.0587 233.08 43.9064 232.257 43.6017 231.709C43.297 231.16 42.8399 230.886 42.2305 230.886C41.6821 230.886 41.2555 231.069 40.9508 231.434C40.6461 231.8 40.4937 232.318 40.4937 232.988C40.4937 233.598 40.6461 234.085 40.9508 234.451C41.3164 234.817 41.743 234.999 42.2305 234.999ZM48.355 228.875V152.913H49.3605V228.875H48.355ZM52.7427 228.875V152.913H53.7482V228.875H52.7427ZM48.4464 239.57C49.3605 236.645 50.3356 233.781 51.3715 230.977H47.2581V229.972H52.7427V230.612C51.463 233.781 50.427 236.767 49.6347 239.57H48.4464ZM57.039 228.875V152.913H59.2328V228.875H57.039ZM60.3297 228.875V152.913H61.4267V228.875H60.3297ZM57.5874 229.881C58.5015 229.881 59.2328 230.338 59.7813 231.252C60.2688 232.105 60.5126 233.293 60.5126 234.817C60.5126 236.401 60.2688 237.62 59.7813 238.473C59.2938 239.326 58.5625 239.753 57.5874 239.753C56.6124 239.753 55.8811 239.326 55.3936 238.473C54.9061 237.62 54.6623 236.401 54.6623 234.817C54.6623 233.293 54.9061 232.105 55.3936 231.252C55.9421 230.338 56.6733 229.881 57.5874 229.881ZM57.5874 230.886C56.978 230.886 56.521 231.221 56.2163 231.892C55.9116 232.623 55.7592 233.598 55.7592 234.817C55.7592 235.487 55.7897 236.066 55.8506 236.553L59.1414 232.349C58.9586 231.861 58.7453 231.495 58.5015 231.252C58.2578 231.008 57.9531 230.886 57.5874 230.886ZM57.5874 238.747C58.1968 238.747 58.6539 238.412 58.9586 237.742C59.2633 237.071 59.4156 236.096 59.4156 234.817C59.4156 234.207 59.3852 233.689 59.3242 233.263L56.1249 237.376C56.4296 238.29 56.9171 238.747 57.5874 238.747ZM63.7119 228.875V152.913H64.7174V228.875H63.7119ZM67.0027 228.875V152.913H69.1051V228.875H67.0027ZM62.5236 238.656L63.8033 237.376C64.5956 236.584 65.205 235.944 65.6315 235.457C66.0581 234.969 66.3933 234.512 66.6371 234.085C66.8808 233.598 67.0027 233.11 67.0027 232.623C67.0027 232.013 66.8503 231.556 66.5456 231.252C66.2409 231.008 65.8448 230.886 65.3573 230.886C64.626 230.886 63.9862 231.191 63.4377 231.8C63.3158 231.983 63.2549 232.135 63.2549 232.257C63.2549 232.318 63.2549 232.349 63.2549 232.349V232.44L63.0721 232.349L62.3408 231.8C62.6455 231.191 63.0721 230.734 63.6205 230.429C64.108 230.063 64.687 229.881 65.3573 229.881C66.2105 229.881 66.8808 230.124 67.3683 230.612C67.8559 231.099 68.0996 231.77 68.0996 232.623C68.0996 233.171 67.9777 233.72 67.734 234.268C67.4902 234.756 67.155 235.243 66.7285 235.731C66.3019 236.218 65.723 236.828 64.9917 237.559L63.8947 238.564H67.4597C67.6426 238.564 67.7644 238.564 67.8254 238.564C67.9473 238.564 68.0387 238.534 68.0996 238.473H68.191V239.57H62.5236V238.656ZM71.299 228.875V152.913H72.3959V228.875H71.299ZM73.4928 228.875V152.913H76.7836V228.875H73.4928ZM72.853 229.881C73.4624 229.881 74.0108 230.063 74.4983 230.429C74.9249 230.795 75.2601 231.282 75.5039 231.892C75.7476 232.501 75.8695 233.202 75.8695 233.994C75.8695 235.883 75.5953 237.285 75.0468 238.199C74.4374 239.174 73.6147 239.661 72.5787 239.661C71.6646 239.661 70.9029 239.387 70.2935 238.839L71.1162 237.925L71.2076 238.016C71.2076 238.138 71.2076 238.229 71.2076 238.29C71.2685 238.351 71.3599 238.412 71.4818 238.473C71.7865 238.656 72.1217 238.747 72.4873 238.747C73.2186 238.747 73.7671 238.412 74.1327 237.742C74.4983 237.071 74.7116 236.218 74.7726 235.182C74.5288 235.426 74.2546 235.609 73.9499 235.731C73.6452 235.853 73.31 235.914 72.9444 235.914C72.3959 235.914 71.9084 235.792 71.4818 235.548C71.0552 235.304 70.72 234.969 70.4763 234.542C70.2325 234.116 70.1106 233.598 70.1106 232.988C70.1106 232.44 70.2325 231.922 70.4763 231.434C70.72 230.947 71.0552 230.581 71.4818 230.338C71.9084 230.033 72.3654 229.881 72.853 229.881ZM72.9444 234.999C73.3709 234.999 73.7366 234.939 74.0413 234.817C74.346 234.695 74.5897 234.481 74.7726 234.177C74.7726 233.08 74.6202 232.257 74.3155 231.709C74.0108 231.16 73.5538 230.886 72.9444 230.886C72.3959 230.886 71.9693 231.069 71.6646 231.434C71.3599 231.8 71.2076 232.318 71.2076 232.988C71.2076 233.598 71.3599 234.085 71.6646 234.451C72.0303 234.817 72.4568 234.999 72.9444 234.999ZM78.9774 228.875V152.913H82.2682V228.875H78.9774ZM83.3651 228.875V152.913H84.4621V228.875H83.3651ZM81.6283 237.193H77.5149V236.371L81.9026 229.972H82.8167V236.279H84.005V237.193H82.8167V239.57H81.6283V237.193ZM81.6283 236.279V231.892L78.7946 236.279H81.6283Z" fill="white"/>
</g>
<g clip-path="url(#clip5_4751_6932)">
<path opacity="0.3" d="M2.28422 152.94V76.9785H4.38666V152.94H2.28422ZM6.67191 152.94V76.9785H7.67743V152.94H6.67191ZM3.56396 155.317L1.55294 155.957L1.37012 155.317L3.83819 154.037H4.56948V163.635H3.56396V155.317ZM8.77435 152.94V76.9785H9.87127V152.94H8.77435ZM13.162 152.94V76.9785H15.3559V152.94H13.162ZM12.5222 161.259H8.40871V160.436L12.7964 154.037H13.7105V160.345H14.8988V161.259H13.7105V163.635H12.5222V161.259ZM12.5222 160.345V155.957L9.68845 160.345H12.5222ZM18.6467 152.94V76.9785H20.8405V152.94H18.6467ZM21.9374 152.94V76.9785H23.0344V152.94H21.9374ZM19.1951 153.946C20.1092 153.946 20.8405 154.403 21.389 155.317C21.8765 156.17 22.1202 157.359 22.1202 158.882C22.1202 160.467 21.8765 161.685 21.389 162.539C20.9014 163.392 20.1702 163.818 19.1951 163.818C18.2201 163.818 17.4888 163.392 17.0013 162.539C16.5138 161.685 16.27 160.467 16.27 158.882C16.27 157.359 16.5138 156.17 17.0013 155.317C17.5497 154.403 18.281 153.946 19.1951 153.946ZM19.1951 154.951C18.5857 154.951 18.1287 155.287 17.824 155.957C17.5193 156.688 17.3669 157.663 17.3669 158.882C17.3669 159.552 17.3974 160.131 17.4583 160.619L20.7491 156.414C20.5663 155.926 20.353 155.561 20.1092 155.317C19.8655 155.073 19.5608 154.951 19.1951 154.951ZM19.1951 162.813C19.8045 162.813 20.2616 162.478 20.5663 161.807C20.871 161.137 21.0233 160.162 21.0233 158.882C21.0233 158.273 20.9929 157.755 20.9319 157.328L17.7326 161.442C18.0373 162.356 18.5248 162.813 19.1951 162.813ZM25.3196 152.94V76.9785H27.422V152.94H25.3196ZM29.7073 152.94V76.9785H30.7128V152.94H29.7073ZM26.5994 155.317L24.5883 155.957L24.4055 155.317L26.8736 154.037H27.6049V163.635H26.5994V155.317ZM34.095 152.94V76.9785H35.1005V152.94H34.095ZM37.3858 152.94V76.9785H38.3913V152.94H37.3858ZM34.552 163.727C33.9426 163.727 33.4247 163.635 32.9981 163.453C32.5715 163.209 32.2363 162.904 31.9926 162.539C31.7488 162.112 31.6269 161.655 31.6269 161.167C31.6269 160.619 31.8097 160.101 32.1754 159.613C32.541 159.126 32.9981 158.76 33.5465 158.516C33.12 158.273 32.7543 157.968 32.4496 157.602C32.2059 157.176 32.084 156.749 32.084 156.323C32.084 155.591 32.2973 155.012 32.7238 154.586C33.2114 154.159 33.8512 153.946 34.6435 153.946C35.4966 153.946 36.1365 154.159 36.5631 154.586C36.9897 155.012 37.2029 155.561 37.2029 156.231C37.2029 156.658 37.0506 157.084 36.7459 157.511C36.4412 157.938 36.0756 158.273 35.649 158.516C36.1974 158.76 36.6545 159.126 37.0201 159.613C37.3248 160.101 37.4772 160.619 37.4772 161.167C37.4772 161.655 37.3553 162.081 37.1115 162.447C36.8678 162.874 36.5326 163.209 36.106 163.453C35.6794 163.635 35.1614 163.727 34.552 163.727ZM34.8263 158.151C35.1919 157.907 35.4966 157.602 35.7404 157.237C35.9841 156.932 36.106 156.597 36.106 156.231C36.106 155.805 35.9841 155.469 35.7404 155.226C35.4357 154.982 35.07 154.86 34.6435 154.86C34.1559 154.86 33.7598 154.982 33.4551 155.226C33.2114 155.469 33.0895 155.774 33.0895 156.14C33.0895 156.566 33.2418 156.932 33.5465 157.237C33.7903 157.48 34.2169 157.785 34.8263 158.151ZM34.552 162.813C35.1614 162.813 35.6185 162.66 35.9232 162.356C36.2279 162.051 36.3803 161.655 36.3803 161.167C36.3803 160.68 36.1974 160.223 35.8318 159.796C35.4662 159.431 34.9786 159.156 34.3692 158.974C33.8817 159.156 33.4856 159.431 33.1809 159.796C32.8762 160.223 32.7238 160.649 32.7238 161.076C32.7238 161.563 32.9067 161.96 33.2723 162.264C33.577 162.63 34.0036 162.813 34.552 162.813ZM40.5851 152.94V76.9785H41.6821V152.94H40.5851ZM42.779 152.94V76.9785H46.0697V152.94H42.779ZM42.1391 153.946C42.7485 153.946 43.297 154.129 43.7845 154.494C44.2111 154.86 44.5462 155.348 44.79 155.957C45.0338 156.566 45.1556 157.267 45.1556 158.059C45.1556 159.949 44.8814 161.35 44.3329 162.264C43.7235 163.239 42.9009 163.727 41.8649 163.727C40.9508 163.727 40.189 163.453 39.5796 162.904L40.4023 161.99L40.4937 162.081C40.4937 162.203 40.4937 162.295 40.4937 162.356C40.5547 162.417 40.6461 162.478 40.7679 162.539C41.0726 162.721 41.4078 162.813 41.7735 162.813C42.5047 162.813 43.0532 162.478 43.4188 161.807C43.7845 161.137 43.9978 160.284 44.0587 159.248C43.815 159.491 43.5407 159.674 43.236 159.796C42.9313 159.918 42.5962 159.979 42.2305 159.979C41.6821 159.979 41.1945 159.857 40.7679 159.613C40.3414 159.37 40.0062 159.034 39.7624 158.608C39.5187 158.181 39.3968 157.663 39.3968 157.054C39.3968 156.505 39.5187 155.987 39.7624 155.5C40.0062 155.012 40.3414 154.647 40.7679 154.403C41.1945 154.098 41.6516 153.946 42.1391 153.946ZM42.2305 159.065C42.6571 159.065 43.0227 159.004 43.3274 158.882C43.6321 158.76 43.8759 158.547 44.0587 158.242C44.0587 157.145 43.9064 156.323 43.6017 155.774C43.297 155.226 42.8399 154.951 42.2305 154.951C41.6821 154.951 41.2555 155.134 40.9508 155.5C40.6461 155.866 40.4937 156.384 40.4937 157.054C40.4937 157.663 40.6461 158.151 40.9508 158.516C41.3164 158.882 41.743 159.065 42.2305 159.065ZM48.355 152.94V76.9785H49.3605V152.94H48.355ZM52.7427 152.94V76.9785H53.7482V152.94H52.7427ZM48.4464 163.635C49.3605 160.71 50.3356 157.846 51.3715 155.043H47.2581V154.037H52.7427V154.677C51.463 157.846 50.427 160.832 49.6347 163.635H48.4464ZM57.039 152.94V76.9785H59.2328V152.94H57.039ZM60.3297 152.94V76.9785H61.4267V152.94H60.3297ZM57.5874 153.946C58.5015 153.946 59.2328 154.403 59.7813 155.317C60.2688 156.17 60.5126 157.359 60.5126 158.882C60.5126 160.467 60.2688 161.685 59.7813 162.539C59.2938 163.392 58.5625 163.818 57.5874 163.818C56.6124 163.818 55.8811 163.392 55.3936 162.539C54.9061 161.685 54.6623 160.467 54.6623 158.882C54.6623 157.359 54.9061 156.17 55.3936 155.317C55.9421 154.403 56.6733 153.946 57.5874 153.946ZM57.5874 154.951C56.978 154.951 56.521 155.287 56.2163 155.957C55.9116 156.688 55.7592 157.663 55.7592 158.882C55.7592 159.552 55.7897 160.131 55.8506 160.619L59.1414 156.414C58.9586 155.926 58.7453 155.561 58.5015 155.317C58.2578 155.073 57.9531 154.951 57.5874 154.951ZM57.5874 162.813C58.1968 162.813 58.6539 162.478 58.9586 161.807C59.2633 161.137 59.4156 160.162 59.4156 158.882C59.4156 158.273 59.3852 157.755 59.3242 157.328L56.1249 161.442C56.4296 162.356 56.9171 162.813 57.5874 162.813ZM63.7119 152.94V76.9785H64.7174V152.94H63.7119ZM67.0027 152.94V76.9785H69.1051V152.94H67.0027ZM62.5236 162.721L63.8033 161.442C64.5956 160.649 65.205 160.009 65.6315 159.522C66.0581 159.034 66.3933 158.577 66.6371 158.151C66.8808 157.663 67.0027 157.176 67.0027 156.688C67.0027 156.079 66.8503 155.622 66.5456 155.317C66.2409 155.073 65.8448 154.951 65.3573 154.951C64.626 154.951 63.9862 155.256 63.4377 155.866C63.3158 156.048 63.2549 156.201 63.2549 156.323C63.2549 156.384 63.2549 156.414 63.2549 156.414V156.505L63.0721 156.414L62.3408 155.866C62.6455 155.256 63.0721 154.799 63.6205 154.494C64.108 154.129 64.687 153.946 65.3573 153.946C66.2105 153.946 66.8808 154.19 67.3683 154.677C67.8559 155.165 68.0996 155.835 68.0996 156.688C68.0996 157.237 67.9777 157.785 67.734 158.334C67.4902 158.821 67.155 159.309 66.7285 159.796C66.3019 160.284 65.723 160.893 64.9917 161.624L63.8947 162.63H67.4597C67.6426 162.63 67.7644 162.63 67.8254 162.63C67.9473 162.63 68.0387 162.599 68.0996 162.539H68.191V163.635H62.5236V162.721ZM71.299 152.94V76.9785H72.3959V152.94H71.299ZM73.4928 152.94V76.9785H76.7836V152.94H73.4928ZM72.853 153.946C73.4624 153.946 74.0108 154.129 74.4983 154.494C74.9249 154.86 75.2601 155.348 75.5039 155.957C75.7476 156.566 75.8695 157.267 75.8695 158.059C75.8695 159.949 75.5953 161.35 75.0468 162.264C74.4374 163.239 73.6147 163.727 72.5787 163.727C71.6646 163.727 70.9029 163.453 70.2935 162.904L71.1162 161.99L71.2076 162.081C71.2076 162.203 71.2076 162.295 71.2076 162.356C71.2685 162.417 71.3599 162.478 71.4818 162.539C71.7865 162.721 72.1217 162.813 72.4873 162.813C73.2186 162.813 73.7671 162.478 74.1327 161.807C74.4983 161.137 74.7116 160.284 74.7726 159.248C74.5288 159.491 74.2546 159.674 73.9499 159.796C73.6452 159.918 73.31 159.979 72.9444 159.979C72.3959 159.979 71.9084 159.857 71.4818 159.613C71.0552 159.37 70.72 159.034 70.4763 158.608C70.2325 158.181 70.1106 157.663 70.1106 157.054C70.1106 156.505 70.2325 155.987 70.4763 155.5C70.72 155.012 71.0552 154.647 71.4818 154.403C71.9084 154.098 72.3654 153.946 72.853 153.946ZM72.9444 159.065C73.3709 159.065 73.7366 159.004 74.0413 158.882C74.346 158.76 74.5897 158.547 74.7726 158.242C74.7726 157.145 74.6202 156.323 74.3155 155.774C74.0108 155.226 73.5538 154.951 72.9444 154.951C72.3959 154.951 71.9693 155.134 71.6646 155.5C71.3599 155.866 71.2076 156.384 71.2076 157.054C71.2076 157.663 71.3599 158.151 71.6646 158.516C72.0303 158.882 72.4568 159.065 72.9444 159.065ZM78.9774 152.94V76.9785H82.2682V152.94H78.9774ZM83.3651 152.94V76.9785H84.4621V152.94H83.3651ZM81.6283 161.259H77.5149V160.436L81.9026 154.037H82.8167V160.345H84.005V161.259H82.8167V163.635H81.6283V161.259ZM81.6283 160.345V155.957L78.7946 160.345H81.6283Z" fill="white"/>
</g>
<g clip-path="url(#clip6_4751_6932)">
<path opacity="0.3" d="M2.28416 77V1.03806H4.38659V77H2.28416ZM6.67185 77V1.03806H7.67736V77H6.67185ZM3.5639 79.3767L1.55288 80.0165L1.37006 79.3767L3.83813 78.0969H4.56942V87.695H3.5639V79.3767ZM8.77429 77V1.03806H9.87121V77H8.77429ZM13.162 77V1.03806H15.3558V77H13.162ZM12.5221 85.3183H8.40865V84.4956L12.7963 78.0969H13.7104V84.4042H14.8988V85.3183H13.7104V87.695H12.5221V85.3183ZM12.5221 84.4042V80.0165L9.68839 84.4042H12.5221ZM18.6466 77V1.03806H20.8404V77H18.6466ZM21.9374 77V1.03806H23.0343V77H21.9374ZM19.1951 78.0055C20.1092 78.0055 20.8404 78.4626 21.3889 79.3767C21.8764 80.2298 22.1202 81.4182 22.1202 82.9417C22.1202 84.5261 21.8764 85.7449 21.3889 86.5981C20.9014 87.4512 20.1701 87.8778 19.1951 87.8778C18.22 87.8778 17.4887 87.4512 17.0012 86.5981C16.5137 85.7449 16.2699 84.5261 16.2699 82.9417C16.2699 81.4182 16.5137 80.2298 17.0012 79.3767C17.5497 78.4626 18.281 78.0055 19.1951 78.0055ZM19.1951 79.011C18.5857 79.011 18.1286 79.3462 17.8239 80.0165C17.5192 80.7478 17.3669 81.7229 17.3669 82.9417C17.3669 83.612 17.3973 84.1909 17.4583 84.6785L20.749 80.4736C20.5662 79.9861 20.3529 79.6204 20.1092 79.3767C19.8654 79.1329 19.5607 79.011 19.1951 79.011ZM19.1951 86.8723C19.8045 86.8723 20.2615 86.5371 20.5662 85.8668C20.8709 85.1965 21.0233 84.2214 21.0233 82.9417C21.0233 82.3323 20.9928 81.8143 20.9319 81.3877L17.7325 85.5012C18.0372 86.4153 18.5247 86.8723 19.1951 86.8723ZM25.3195 77V1.03806H27.422V77H25.3195ZM29.7072 77V1.03806H30.7128V77H29.7072ZM26.5993 79.3767L24.5883 80.0165L24.4054 79.3767L26.8735 78.0969H27.6048V87.695H26.5993V79.3767ZM34.0949 77V1.03806H35.1004V77H34.0949ZM37.3857 77V1.03806H38.3912V77H37.3857ZM34.552 87.7864C33.9426 87.7864 33.4246 87.695 32.998 87.5122C32.5714 87.2684 32.2363 86.9637 31.9925 86.5981C31.7487 86.1715 31.6269 85.7144 31.6269 85.2269C31.6269 84.6785 31.8097 84.1605 32.1753 83.673C32.541 83.1854 32.998 82.8198 33.5465 82.576C33.1199 82.3323 32.7543 82.0276 32.4496 81.6619C32.2058 81.2353 32.0839 80.8088 32.0839 80.3822C32.0839 79.6509 32.2972 79.072 32.7238 78.6454C33.2113 78.2188 33.8512 78.0055 34.6434 78.0055C35.4966 78.0055 36.1364 78.2188 36.563 78.6454C36.9896 79.072 37.2029 79.6204 37.2029 80.2908C37.2029 80.7174 37.0505 81.1439 36.7458 81.5705C36.4411 81.9971 36.0755 82.3323 35.6489 82.576C36.1974 82.8198 36.6544 83.1854 37.0201 83.673C37.3248 84.1605 37.4771 84.6785 37.4771 85.2269C37.4771 85.7144 37.3552 86.141 37.1115 86.5067C36.8677 86.9333 36.5325 87.2684 36.106 87.5122C35.6794 87.695 35.1614 87.7864 34.552 87.7864ZM34.8262 82.2104C35.1919 81.9666 35.4966 81.6619 35.7403 81.2963C35.9841 80.9916 36.106 80.6564 36.106 80.2908C36.106 79.8642 35.9841 79.529 35.7403 79.2853C35.4356 79.0415 35.07 78.9196 34.6434 78.9196C34.1559 78.9196 33.7598 79.0415 33.4551 79.2853C33.2113 79.529 33.0894 79.8337 33.0894 80.1994C33.0894 80.6259 33.2418 80.9916 33.5465 81.2963C33.7902 81.54 34.2168 81.8447 34.8262 82.2104ZM34.552 86.8723C35.1614 86.8723 35.6184 86.72 35.9231 86.4153C36.2278 86.1106 36.3802 85.7144 36.3802 85.2269C36.3802 84.7394 36.1974 84.2824 35.8317 83.8558C35.4661 83.4901 34.9786 83.2159 34.3692 83.0331C33.8816 83.2159 33.4855 83.4901 33.1808 83.8558C32.8761 84.2824 32.7238 84.7089 32.7238 85.1355C32.7238 85.623 32.9066 86.0191 33.2722 86.3238C33.5769 86.6895 34.0035 86.8723 34.552 86.8723ZM40.5851 77V1.03806H41.682V77H40.5851ZM42.7789 77V1.03806H46.0697V77H42.7789ZM42.139 78.0055C42.7484 78.0055 43.2969 78.1883 43.7844 78.554C44.211 78.9196 44.5462 79.4071 44.7899 80.0165C45.0337 80.6259 45.1556 81.3268 45.1556 82.119C45.1556 84.0081 44.8813 85.4097 44.3329 86.3238C43.7235 87.2989 42.9008 87.7864 41.8648 87.7864C40.9507 87.7864 40.189 87.5122 39.5796 86.9637L40.4022 86.0496L40.4937 86.141C40.4937 86.2629 40.4937 86.3543 40.4937 86.4153C40.5546 86.4762 40.646 86.5371 40.7679 86.5981C41.0726 86.7809 41.4078 86.8723 41.7734 86.8723C42.5047 86.8723 43.0531 86.5371 43.4188 85.8668C43.7844 85.1965 43.9977 84.3433 44.0587 83.3073C43.8149 83.5511 43.5407 83.7339 43.236 83.8558C42.9313 83.9777 42.5961 84.0386 42.2305 84.0386C41.682 84.0386 41.1945 83.9167 40.7679 83.673C40.3413 83.4292 40.0061 83.094 39.7624 82.6674C39.5186 82.2409 39.3967 81.7229 39.3967 81.1135C39.3967 80.565 39.5186 80.047 39.7624 79.5595C40.0061 79.072 40.3413 78.7063 40.7679 78.4626C41.1945 78.1579 41.6515 78.0055 42.139 78.0055ZM42.2305 83.1245C42.657 83.1245 43.0227 83.0635 43.3274 82.9417C43.6321 82.8198 43.8758 82.6065 44.0587 82.3018C44.0587 81.2049 43.9063 80.3822 43.6016 79.8337C43.2969 79.2853 42.8399 79.011 42.2305 79.011C41.682 79.011 41.2554 79.1938 40.9507 79.5595C40.646 79.9251 40.4937 80.4431 40.4937 81.1135C40.4937 81.7229 40.646 82.2104 40.9507 82.576C41.3163 82.9417 41.7429 83.1245 42.2305 83.1245ZM48.3549 77V1.03806H49.3605V77H48.3549ZM52.7426 77V1.03806H53.7481V77H52.7426ZM48.4464 87.695C49.3605 84.7699 50.3355 81.9057 51.3715 79.1024H47.258V78.0969H52.7426V78.7368C51.4629 81.9057 50.4269 84.8918 49.6347 87.695H48.4464ZM57.0389 77V1.03806H59.2328V77H57.0389ZM60.3297 77V1.03806H61.4266V77H60.3297ZM57.5874 78.0055C58.5015 78.0055 59.2328 78.4626 59.7812 79.3767C60.2687 80.2298 60.5125 81.4182 60.5125 82.9417C60.5125 84.5261 60.2687 85.7449 59.7812 86.5981C59.2937 87.4512 58.5624 87.8778 57.5874 87.8778C56.6123 87.8778 55.8811 87.4512 55.3935 86.5981C54.906 85.7449 54.6622 84.5261 54.6622 82.9417C54.6622 81.4182 54.906 80.2298 55.3935 79.3767C55.942 78.4626 56.6733 78.0055 57.5874 78.0055ZM57.5874 79.011C56.978 79.011 56.5209 79.3462 56.2162 80.0165C55.9115 80.7478 55.7592 81.7229 55.7592 82.9417C55.7592 83.612 55.7896 84.1909 55.8506 84.6785L59.1414 80.4736C58.9585 79.9861 58.7452 79.6204 58.5015 79.3767C58.2577 79.1329 57.953 79.011 57.5874 79.011ZM57.5874 86.8723C58.1968 86.8723 58.6538 86.5371 58.9585 85.8668C59.2632 85.1965 59.4156 84.2214 59.4156 82.9417C59.4156 82.3323 59.3851 81.8143 59.3242 81.3877L56.1248 85.5012C56.4295 86.4153 56.917 86.8723 57.5874 86.8723ZM63.7119 77V1.03806H64.7174V77H63.7119ZM67.0026 77V1.03806H69.1051V77H67.0026ZM62.5235 86.7809L63.8033 85.5012C64.5955 84.7089 65.2049 84.0691 65.6315 83.5815C66.0581 83.094 66.3932 82.637 66.637 82.2104C66.8808 81.7229 67.0026 81.2353 67.0026 80.7478C67.0026 80.1384 66.8503 79.6814 66.5456 79.3767C66.2409 79.1329 65.8448 79.011 65.3573 79.011C64.626 79.011 63.9861 79.3157 63.4376 79.9251C63.3158 80.1079 63.2548 80.2603 63.2548 80.3822C63.2548 80.4431 63.2548 80.4736 63.2548 80.4736V80.565L63.072 80.4736L62.3407 79.9251C62.6454 79.3157 63.072 78.8587 63.6205 78.554C64.108 78.1883 64.6869 78.0055 65.3573 78.0055C66.2104 78.0055 66.8808 78.2493 67.3683 78.7368C67.8558 79.2243 68.0996 79.8947 68.0996 80.7478C68.0996 81.2963 67.9777 81.8447 67.7339 82.3932C67.4902 82.8807 67.155 83.3682 66.7284 83.8558C66.3018 84.3433 65.7229 84.9527 64.9916 85.684L63.8947 86.6895H67.4597C67.6425 86.6895 67.7644 86.6895 67.8253 86.6895C67.9472 86.6895 68.0386 86.659 68.0996 86.5981H68.191V87.695H62.5235V86.7809ZM71.2989 77V1.03806H72.3958V77H71.2989ZM73.4928 77V1.03806H76.7835V77H73.4928ZM72.8529 78.0055C73.4623 78.0055 74.0108 78.1883 74.4983 78.554C74.9249 78.9196 75.26 79.4071 75.5038 80.0165C75.7476 80.6259 75.8694 81.3268 75.8694 82.119C75.8694 84.0081 75.5952 85.4097 75.0467 86.3238C74.4373 87.2989 73.6146 87.7864 72.5787 87.7864C71.6646 87.7864 70.9028 87.5122 70.2934 86.9637L71.1161 86.0496L71.2075 86.141C71.2075 86.2629 71.2075 86.3543 71.2075 86.4153C71.2684 86.4762 71.3599 86.5371 71.4817 86.5981C71.7864 86.7809 72.1216 86.8723 72.4873 86.8723C73.2185 86.8723 73.767 86.5371 74.1326 85.8668C74.4983 85.1965 74.7116 84.3433 74.7725 83.3073C74.5287 83.5511 74.2545 83.7339 73.9498 83.8558C73.6451 83.9777 73.3099 84.0386 72.9443 84.0386C72.3958 84.0386 71.9083 83.9167 71.4817 83.673C71.0552 83.4292 70.72 83.094 70.4762 82.6674C70.2325 82.2409 70.1106 81.7229 70.1106 81.1135C70.1106 80.565 70.2325 80.047 70.4762 79.5595C70.72 79.072 71.0552 78.7063 71.4817 78.4626C71.9083 78.1579 72.3654 78.0055 72.8529 78.0055ZM72.9443 83.1245C73.3709 83.1245 73.7365 83.0635 74.0412 82.9417C74.3459 82.8198 74.5897 82.6065 74.7725 82.3018C74.7725 81.2049 74.6202 80.3822 74.3155 79.8337C74.0108 79.2853 73.5537 79.011 72.9443 79.011C72.3958 79.011 71.9693 79.1938 71.6646 79.5595C71.3599 79.9251 71.2075 80.4431 71.2075 81.1135C71.2075 81.7229 71.3599 82.2104 71.6646 82.576C72.0302 82.9417 72.4568 83.1245 72.9443 83.1245ZM78.9774 77V1.03806H82.2682V77H78.9774ZM83.3651 77V1.03806H84.462V77H83.3651ZM81.6283 85.3183H77.5148V84.4956L81.9025 78.0969H82.8166V84.4042H84.005V85.3183H82.8166V87.695H81.6283V85.3183ZM81.6283 84.4042V80.0165L78.7946 84.4042H81.6283Z" fill="white"/>
</g>
</mask>
<g mask="url(#mask0_4751_6932)">
<path d="M94.1933 -27.3594L-4.40027 296.004V558.334H94.7802L94.1933 -27.3594Z" fill="url(#paint0_linear_4751_6932)"/>
</g>
</g>
<defs>
<linearGradient id="paint0_linear_4751_6932" x1="-4.40027" y1="210.322" x2="95.3671" y2="265.487" gradientUnits="userSpaceOnUse">
<stop offset="0.239209" stop-color="white" stop-opacity="0"/>
<stop offset="1" stop-color="white"/>
</linearGradient>
<clipPath id="clip0_4751_6932">
<rect width="85" height="531" fill="white"/>
</clipPath>
<clipPath id="clip1_4751_6932">
<rect width="84.5088" height="77.4664" fill="white" transform="translate(0.293579 379.691)"/>
</clipPath>
<clipPath id="clip2_4751_6932">
<rect width="84.5088" height="77.4664" fill="white" transform="translate(0.293579 303.749)"/>
</clipPath>
<clipPath id="clip3_4751_6932">
<rect width="84.5088" height="77.4664" fill="white" transform="translate(0.293579 227.808)"/>
</clipPath>
<clipPath id="clip4_4751_6932">
<rect width="84.5088" height="77.4664" fill="white" transform="translate(0.293579 151.875)"/>
</clipPath>
<clipPath id="clip5_4751_6932">
<rect width="84.5088" height="77.4664" fill="white" transform="translate(0.293579 75.9404)"/>
</clipPath>
<clipPath id="clip6_4751_6932">
<rect width="84.5088" height="77.4664" fill="white" transform="translate(0.293518)"/>
</clipPath>
</defs>
</svg>
