<svg width="105" height="105" viewBox="0 0 105 105" fill="none" xmlns="http://www.w3.org/2000/svg">
<mask id="path-1-inside-1_4319_3959" fill="white">
<path d="M49.5 17.4818C49.5 17.2157 49.7158 16.9997 49.9818 17.0033C56.1981 17.0876 62.2863 18.8031 67.6355 21.9819C72.9848 25.1607 77.402 29.6882 80.4477 35.1078C80.5781 35.3398 80.4915 35.6326 80.2578 35.7598V35.7598C80.024 35.887 79.7317 35.8004 79.6013 35.5685C76.6384 30.301 72.3435 25.9006 67.1433 22.8103C61.943 19.72 56.0248 18.0513 49.9818 17.967C49.7158 17.9632 49.5 17.7479 49.5 17.4818V17.4818Z"/>
</mask>
<path d="M49.5 17.4818C49.5 17.2157 49.7158 16.9997 49.9818 17.0033C56.1981 17.0876 62.2863 18.8031 67.6355 21.9819C72.9848 25.1607 77.402 29.6882 80.4477 35.1078C80.5781 35.3398 80.4915 35.6326 80.2578 35.7598V35.7598C80.024 35.887 79.7317 35.8004 79.6013 35.5685C76.6384 30.301 72.3435 25.9006 67.1433 22.8103C61.943 19.72 56.0248 18.0513 49.9818 17.967C49.7158 17.9632 49.5 17.7479 49.5 17.4818V17.4818Z" fill="white"/>
<path d="M80.4477 35.1078L79.576 35.5977L80.4477 35.1078ZM49.9683 18.0032C56.0094 18.0852 61.9262 19.7523 67.1247 22.8416L68.1464 21.1223C62.6465 17.8539 56.3868 16.0901 49.9954 16.0034L49.9683 18.0032ZM67.1247 22.8416C72.3232 25.9309 76.616 30.3308 79.576 35.5977L81.3195 34.6179C78.188 29.0456 73.6463 24.3906 68.1464 21.1223L67.1247 22.8416ZM80.4729 35.0783C77.4242 29.6583 73.005 25.1304 67.6541 21.9507L66.6324 23.67C71.6821 26.6708 75.8527 30.9438 78.7297 36.0588L80.4729 35.0783ZM67.6541 21.9507C62.3033 18.7709 56.2137 17.0538 49.9958 16.9671L49.9679 18.9669C55.8359 19.0487 61.5827 20.6692 66.6324 23.67L67.6541 21.9507ZM79.7797 34.8815C80.0343 34.7429 80.3397 34.8416 80.4729 35.0783L78.7297 36.0588C79.1237 36.7593 80.0137 37.0311 80.7358 36.6381L79.7797 34.8815ZM79.576 35.5977C79.4289 35.336 79.5314 35.0166 79.7797 34.8815L80.7358 36.6381C81.4516 36.2486 81.7273 35.3436 81.3195 34.6179L79.576 35.5977ZM49.9958 16.9671C50.2673 16.9708 50.5 17.1919 50.5 17.4818H48.5C48.5 18.3039 49.1642 18.9557 49.9679 18.9669L49.9958 16.9671ZM49.9954 16.0034C49.1631 15.9921 48.5 16.6669 48.5 17.4818H50.5C50.5 17.7645 50.2685 18.0073 49.9683 18.0032L49.9954 16.0034Z" fill="white" mask="url(#path-1-inside-1_4319_3959)"/>
<path d="M47.5003 13.4261L48.8076 7.1705L47.1517 7.46498L46.3503 11.7971L44.1052 8.0063L42.4615 8.29825L45.8438 13.7204L47.5003 13.4261Z" fill="white"/>
<path d="M49.5401 10.083C49.5558 11.9858 50.9287 13.1901 52.7334 13.175C53.6546 13.1673 54.5731 12.8896 55.17 12.3322L54.474 11.331C54.0962 11.7025 53.4474 11.9288 52.895 11.9337C51.888 11.9422 51.2814 11.3204 51.1772 10.5727L55.5847 10.5365L55.5818 10.1927C55.5657 8.25284 54.3516 6.93671 52.5833 6.95121C50.7789 6.96579 49.5257 8.36408 49.5401 10.083ZM52.594 8.19115C53.6253 8.18251 54.0242 8.92825 54.0658 9.49257L51.144 9.51716C51.2127 8.9269 51.624 8.19918 52.594 8.19115Z" fill="white"/>
<path d="M57.7493 13.3671L58.2776 9.4866C58.584 9.14423 59.3035 8.95662 59.8146 9.02683C59.9849 9.04975 60.1292 9.08186 60.2351 9.12081L60.4408 7.61249C59.7107 7.51282 58.9246 7.82741 58.4395 8.29413L58.549 7.49101L57.0036 7.2809L56.2039 13.157L57.7493 13.3671Z" fill="white"/>
<path d="M65.8731 15.4993L70.1587 10.7583L68.5805 10.1766L65.7023 13.5125L65.6771 9.10686L64.1104 8.52922L64.2949 14.9175L65.8731 15.4993Z" fill="white"/>
<path d="M75.1131 10.4024L73.8347 9.74719L71.5645 10.5709L72.5365 11.0689L75.1131 10.4024ZM69.6749 17.2732L72.3795 11.9952L70.9917 11.2843L68.2874 16.5617L69.6749 17.2732Z" fill="white"/>
<path d="M75.3019 20.9188L79.9625 14.1855L78.6706 13.2911L76.9518 15.7744C76.9106 15.0142 76.54 14.3846 75.9647 13.9859C74.7227 13.1264 73.1331 13.4599 72.0294 15.055C70.904 16.68 71.1901 18.2518 72.4218 19.1042C73.0073 19.51 73.7236 19.6178 74.4362 19.4085L74.01 20.0244L75.3019 20.9188ZM75.0996 18.4497C74.654 18.619 74.039 18.5364 73.6051 18.236C72.8783 17.7332 72.7715 16.808 73.3514 15.9704C73.9385 15.122 74.8415 14.8961 75.5687 15.3997C76.0026 15.7001 76.2962 16.2466 76.2947 16.7233L75.0996 18.4497Z" fill="white"/>
<path d="M77.812 19.1377C76.4673 20.4843 76.5727 22.3074 77.8504 23.5829C78.5021 24.2333 79.3444 24.6928 80.1606 24.7265L80.3853 23.5284C79.8558 23.52 79.2389 23.2171 78.8479 22.8263C78.1357 22.115 78.1522 21.2471 78.6119 20.6474L81.7312 23.7618L81.9738 23.5183C83.3447 22.1459 83.4299 20.3569 82.1786 19.1079C80.9014 17.8327 79.0263 17.9211 77.812 19.1377ZM81.3025 19.9857C82.0325 20.7142 81.7815 21.5218 81.4087 21.9475L79.3404 19.8826C79.8091 19.5181 80.6161 19.3006 81.3025 19.9857Z" fill="white"/>
<path d="M81.7361 28.2405C82.8597 29.8514 84.7018 30.0035 86.0916 29.0343C87.4714 28.0721 87.9654 26.291 86.8415 24.6792C85.7249 23.0781 83.8827 22.9261 82.5029 23.8883C81.1132 24.8574 80.6189 26.6392 81.7361 28.2405ZM82.8736 27.4468C82.3191 26.651 82.6643 25.7516 83.4299 25.2179C84.185 24.6909 85.1488 24.6775 85.7035 25.4727C86.2585 26.2687 85.92 27.1785 85.1643 27.7053C84.3996 28.2387 83.4288 28.2422 82.8736 27.4468Z" fill="white"/>
</svg>
